<svg width="32" height="32" viewBox="0 0 32 32" fill="none" xmlns="http://www.w3.org/2000/svg">
<path fill-rule="evenodd" clip-rule="evenodd" d="M30.4266 19.7711C32.5915 17.622 32.4564 14.2442 30.4266 12.2282C27.7103 9.53276 25.5445 11.8009 22.8283 9.10444C20.113 6.40801 22.3968 4.258 19.6815 1.56158C17.5195 -0.584692 14.1159 -0.455354 12.0832 1.56158C10.0618 3.56913 9.91077 6.94692 12.0832 9.10444C14.7994 11.8009 16.9653 9.53276 19.6815 12.2282C21.7038 14.2358 21.8549 17.6136 19.6815 19.7711C16.9653 22.4675 14.7994 20.1994 12.0832 22.8949C9.91833 25.0449 10.0533 28.4227 12.0832 30.4378C14.1065 32.4463 17.5081 32.5953 19.6815 30.4378C22.3968 27.7413 20.113 25.5913 22.8283 22.8949C25.5445 20.1994 27.7103 22.4675 30.4266 19.7711Z" fill="#009BCD"/>
<path fill-rule="evenodd" clip-rule="evenodd" d="M5.25509 10.8237C2.35283 10.8237 0 13.1767 0 16.0791C0 18.9806 2.35283 21.3335 5.25509 21.3335C8.15734 21.3335 10.5102 18.9806 10.5102 16.0791C10.5102 13.1767 8.15734 10.8237 5.25509 10.8237Z" fill="#0E1D45"/>
</svg>
