<?xml version="1.0" encoding="UTF-8"?>
<svg width="231px" height="17px" viewBox="0 0 231 17" version="1.1" xmlns="http://www.w3.org/2000/svg" xmlns:xlink="http://www.w3.org/1999/xlink">
    <!-- Generator: sketchtool 61 (101010) - https://sketch.com -->
    <title>40F6D65A-E19A-4E0A-91A2-1570C492178B</title>
    <desc>Created with sketchtool.</desc>
    <g id="Page-1" stroke="none" stroke-width="1" fill="none" fill-rule="evenodd">
        <g id="HCP-users-read-only-list-_5" transform="translate(-255.000000, -193.000000)" fill="#0F265C" fill-rule="nonzero">
            <g id="logoHorizontal" transform="translate(255.000000, 193.000000)">
                <g id="Group">
                    <g id="Shape">
                        <g id="path0_fill-link" transform="translate(0.098000, 0.630000)">
                            <path d="M14.14721,14.33446 C12.55926,14.86541 10.68263,15.73411 8.27659,15.73411 C3.320268,15.73411 0,12.69352 0,7.91532 C0,3.185441 3.320268,0 8.37284,0 C11.4044,0 13.04051,0.723961 14.09912,1.399664 C14.09912,1.97883 13.90662,2.558003 13.56978,3.233706 L13.23294,3.233706 C12.31867,2.07536 10.73072,1.110074 8.421,1.110074 C4.571385,1.110074 2.405991,4.054197 2.405991,7.86709 C2.405991,11.77645 4.956343,14.57582 8.56534,14.57582 C9.76836,14.57582 11.26006,14.1897 12.07808,13.65875 C12.07808,11.96951 11.98183,9.02538 11.93374,8.10838 L14.24346,8.10838 C14.19537,9.36327 14.14721,13.51399 14.14721,14.33446 Z" id="path0_fill"></path>
                        </g>
                    </g>
                    <g id="Shape" transform="translate(16.100000, 4.900000)">
                        <g id="path1_fill-link" transform="translate(0.406000, 0.504000)">
                            <path d="M2.11743,5.502077 L9.23909,5.502077 L9.57579,5.357324 C9.62395,3.233741 9.04666,0 5.052439,0 C1.732227,0 0,2.799314 0,5.695193 C0,8.10845 1.491602,11.00435 5.485501,10.95598 C7.60291,10.95598 8.9985,10.08728 9.33513,9.55633 C9.52756,9.21844 9.52756,8.68763 9.43152,8.20484 L9.1427,8.20484 C8.75784,8.97715 7.60291,9.84599 5.918899,9.84599 C3.897852,9.84599 2.261672,8.59103 2.11743,5.502077 Z M2.165282,4.488477 C2.357712,2.075388 3.753274,0.965237 5.148829,0.965237 C6.929251,0.965237 7.69895,2.702756 7.50652,4.488477 L2.165282,4.488477 Z" id="path1_fill"></path>
                        </g>
                    </g>
                    <g id="Shape" transform="translate(28.000000, 4.900000)">
                        <g id="path2_fill-link" transform="translate(0.105000, 0.504000)">
                            <path d="M7.21798,10.71469 C7.26607,9.70109 7.36232,5.357331 7.36232,4.585098 C7.36232,2.751063 6.592418,1.399664 4.860107,1.399664 C3.849587,1.399664 2.021033,2.26842 2.021033,4.971218 C2.021033,5.502119 2.117276,9.99068 2.117276,10.71469 L0,10.71469 C0.0962395,9.4115 0.0962395,5.357331 0.0962395,4.681628 C0.0962395,4.005932 0.04811982,1.254869 0,0.2895851 L2.165394,0.2895851 L2.117276,1.785777 C2.646595,0.868756 3.801469,0 5.533787,0 C7.65107,0 9.33527,1.351399 9.33527,3.764607 C9.33527,4.681628 9.23902,7.38444 9.23902,7.77056 C9.23902,8.15668 9.28711,10.3768 9.33527,10.76292 L7.21798,10.76292 L7.21798,10.71469 Z" id="path2_fill"></path>
                        </g>
                    </g>
                    <g id="Shape" transform="translate(39.200000, 4.900000)">
                        <g id="path3_fill-link" transform="translate(0.497000, 0.504000)">
                            <path d="M2.11743,5.502077 L9.23909,5.502077 L9.57579,5.357324 C9.62395,3.233741 9.04666,0 5.052439,0 C1.732227,0 0,2.799314 0,5.695193 C0,8.10845 1.539797,10.95598 5.533689,10.95598 C7.65114,10.95598 8.9985,10.08728 9.33513,9.55633 C9.52756,9.21844 9.52756,8.68763 9.43152,8.20484 L9.1427,8.20484 C8.75784,8.97715 7.60291,9.84599 5.918899,9.84599 C3.897852,9.84599 2.261672,8.59103 2.11743,5.502077 Z M2.165282,4.488477 C2.357712,2.075388 3.753274,0.965237 5.148829,0.965237 C6.929251,0.965237 7.69895,2.702756 7.50652,4.488477 L2.165282,4.488477 Z" id="path3_fill"></path>
                        </g>
                    </g>
                    <g id="Shape" transform="translate(51.100000, 4.900000)">
                        <g id="path4_fill-link" transform="translate(0.245000, 0.455000)">
                            <path d="M5.293183,2.36495 L5.004468,2.36495 C4.860107,1.930572 4.571385,1.640982 4.090191,1.640982 C2.790949,1.640982 2.021033,2.944116 2.021033,4.971218 C2.021033,5.502119 2.117276,9.99068 2.117276,10.71469 L0,10.71469 C0.0962395,9.4115 0.0962395,5.357331 0.0962395,4.681628 C0.0962395,4.005932 0.04811982,1.254869 0,0.2895851 L2.165394,0.2895851 L2.117276,1.930572 C2.454116,1.110074 3.416511,0 4.811989,0 C5.245065,0 5.581905,0.1447929 5.822502,0.3861137 C5.822502,1.013551 5.630023,1.785777 5.293183,2.36495 Z" id="path4_fill"></path>
                        </g>
                    </g>
                    <g id="Shape" transform="translate(57.400000, 4.900000)">
                        <g id="path5_fill-link" transform="translate(0.343000, 0.406000)">
                            <path d="M6.448001,9.70102 C6.688626,10.52156 7.02562,10.90775 8.08416,10.90775 C8.46902,10.90775 9.1427,10.76285 9.43152,10.47333 L9.43152,9.70102 C9.23909,9.84599 9.04666,9.89415 8.80607,9.89415 C8.42086,9.89415 8.1802,9.55633 8.1802,8.68763 C8.1802,7.96355 8.27659,4.247166 8.27659,3.426682 C8.27659,1.592773 7.12166,0 4.667579,0 C3.031399,0 1.924657,0.4826171 1.106735,1.206541 C1.002148,1.290625 0.951902,1.511769 0.944727,1.774612 C0.935158,2.115722 0.998046,2.526734 1.106735,2.799314 L1.44375,2.799314 C1.924657,1.882272 2.742922,1.158353 4.042087,1.158353 C5.341259,1.158353 6.351954,2.027025 6.351954,3.426682 L6.351954,4.247166 C5.683398,4.507958 4.938626,4.685695 4.200686,4.861717 C2.070607,5.369798 0,5.863697 0,8.30137 C0,9.55633 0.86611,11.05251 3.175977,11.05251 C4.571532,11.05251 5.533689,10.61809 6.448001,9.70102 Z M5.532667,5.534032 C5.785598,5.477465 6.043653,5.419701 6.303759,5.357324 L6.303759,8.54273 C5.437649,9.55633 4.667579,9.94238 3.849657,9.94238 C2.838962,9.94238 2.021047,9.26681 2.021047,8.10845 C2.021047,6.319481 3.632615,5.959058 5.532667,5.534032 Z" id="path5_fill"></path>
                        </g>
                    </g>
                    <g id="Shape" transform="translate(68.600000, 0.000000)">
                        <g id="path6_fill-link" transform="translate(0.546000, 0.238000)">
                            <path d="M0,15.87894 C0.0962395,14.57582 0.0962395,8.25321 0.0962395,7.5775 C0.0962395,6.901783 0.04811982,1.013551 0,0 L2.069151,0 C2.069151,1.013551 1.972915,6.901783 1.972915,7.5775 C1.972915,8.25321 2.021033,14.52752 2.069151,15.87894 L0,15.87894 Z" id="path6_fill"></path>
                        </g>
                    </g>
                </g>
                <g id="Group" transform="translate(80.500000, 0.000000)">
                    <g id="Shape">
                        <g id="path7_fill-link" transform="translate(0.063000, 0.630000)">
                            <path d="M14.13916,15.39629 C13.84964,11.58339 13.56005,8.34974 13.174,4.681628 C11.34028,8.4945 9.89261,11.63169 8.10712,15.39629 L7.72107,15.39629 C5.935545,11.72822 4.246571,8.30144 2.412823,4.681628 C2.219798,6.998313 1.978515,11.63169 1.78549,15.39629 L0,15.39629 C0.5790778,10.13551 1.013383,5.212536 1.592465,0 L2.123289,0 C4.053546,3.909402 6.128577,7.77056 8.39664,11.82475 C10.42342,7.91532 12.16061,4.24725 14.23569,0 L14.66997,0 C15.24908,5.164271 15.82812,10.18374 16.45546,15.39629 L14.13916,15.39629 Z" id="path7_fill"></path>
                        </g>
                    </g>
                    <g id="Shape" transform="translate(17.500000, 4.900000)">
                        <g id="path8_fill-link" transform="translate(0.567000, 0.406000)">
                            <path d="M2.171435,5.502077 L9.31364,5.502077 L9.60316,5.357324 C9.65132,3.233741 9.07228,0 5.066796,0 C1.737351,0 0,2.799314 0,5.695193 C0,8.10845 1.544235,10.95598 5.549411,10.95598 C7.67263,10.95598 9.07228,10.08728 9.41003,9.55633 C9.60316,9.21844 9.60316,8.68763 9.50642,8.20484 L9.2169,8.20484 C8.83099,8.97715 7.67263,9.84599 5.983838,9.84599 C3.956981,9.84599 2.316356,8.59103 2.171435,5.502077 Z M2.21963,4.440282 C2.412746,2.0272 3.81206,0.917042 5.211374,0.917042 C6.996927,0.917042 7.81725,2.702756 7.57624,4.440282 L2.21963,4.440282 Z" id="path8_fill"></path>
                        </g>
                    </g>
                    <g id="Shape" transform="translate(29.400000, 0.000000)">
                        <g id="path9_fill-link" transform="translate(0.147000, 0.147000)">
                            <path d="M8.20344,14.47922 C8.15528,15.0584 8.15528,15.63758 8.15528,15.87887 L10.23029,15.87887 C10.20607,15.20246 10.18178,13.29279 10.16365,11.46915 C10.14587,9.64929 10.13397,7.91497 10.13397,7.5775 C10.13397,7.27377 10.15343,5.916848 10.17492,4.422852 C10.20124,2.593213 10.23029,0.5579833 10.23029,0 L8.15528,0 C8.18433,0.4959472 8.21373,2.084964 8.23221,3.691065 C8.24446,4.742087 8.25202,5.800291 8.25202,6.563865 C7.76937,5.888309 6.755959,5.164208 5.211717,5.164208 C1.833741,5.164208 0,7.96355 0,10.66646 C0,12.79005 1.15801,16.12016 5.018601,16.12016 C6.369727,16.12016 7.47985,15.63758 8.20344,14.47922 Z M2.21963,10.66625 C2.21963,7.96355 3.667482,6.226003 5.308107,6.226003 C7.04515,6.226003 8.34806,7.4809 8.34806,10.56972 C8.34806,12.88644 7.38318,15.0584 5.211374,15.0584 C3.233055,15.0584 2.21963,13.1761 2.21963,10.66625 Z" id="path9_fill"></path>
                        </g>
                    </g>
                    <g id="Shape" transform="translate(42.000000, 0.700000)">
                        <g id="path10_fill-link" transform="translate(0.581000, 0.070000)">
                            <path d="M0,1.303099 C0,1.97883 0.5790036,2.606198 1.302931,2.606198 C1.978662,2.606198 2.605862,1.97883 2.605862,1.303099 C2.605862,0.5791751 2.026857,0 1.302931,0 C0.6271972,0 0,0.5791751 0,1.303099 Z M0.2413089,9.21844 C0.2413089,9.89415 0.2413089,13.9482 0.1449217,15.25146 L2.316356,15.25146 C2.268161,13.9482 2.219973,9.89415 2.219973,9.21844 C2.219973,8.7927 2.264402,7.38983 2.292773,6.215062 C2.306444,5.658107 2.316356,5.15242 2.316356,4.826346 L0.1449217,4.826346 C0.1931153,5.791576 0.2413089,8.54273 0.2413089,9.21844 Z" id="path10_fill"></path>
                        </g>
                    </g>
                    <g id="Shape" transform="translate(46.900000, 4.900000)">
                        <g id="path11_fill-link" transform="translate(0.455000, 0.455000)">
                            <path d="M9.21697,9.55633 C8.87922,10.08721 7.52801,10.95598 5.404728,10.95598 C1.206415,10.95598 0,7.67403 0,5.502119 C0,2.17189 2.316314,0 5.74252,0 C7.19019,0 8.34834,0.3861137 9.3135,1.110074 C9.3135,1.689247 9.12051,2.123625 8.78269,2.751063 L8.44487,2.751063 C7.96229,1.930572 7.14196,1.013551 5.790778,1.013551 C3.619238,1.013551 2.219798,2.751063 2.219798,5.453854 C2.219798,8.34974 3.667496,9.89415 5.839036,9.89415 C7.38325,9.89415 8.73439,8.88062 9.07221,8.25321 L9.36173,8.25321 C9.45826,8.63933 9.41000408,9.26674 9.21697,9.55633 Z" id="path11_fill"></path>
                        </g>
                    </g>
                    <g id="Shape" transform="translate(57.400000, 4.900000)">
                        <g id="path12_fill-link" transform="translate(0.574000, 0.364000)">
                            <path d="M6.466453,9.65286 C6.707764,10.47333 7.04543,10.85938 8.10705,10.85938 C8.35044,10.85938 8.72816,10.78266 9.03469,10.67759 C9.21417,10.61606 9.36901,10.5448 9.45819,10.47333 L9.45819,9.70102 C9.26506,9.84599 9.07228,9.89415 8.83099,9.89415 C8.4448,9.89415 8.20344,9.55633 8.20344,8.68763 C8.20344,7.96355 8.30018,4.247166 8.30018,3.426682 C8.30018,1.592773 7.14182,0 4.680907,0 C3.040282,0 1.930124,0.4826171 1.109815,1.206541 C0.868504,1.399657 0.917042,2.316699 1.109815,2.799314 L1.447852,2.799314 C1.930124,1.882272 2.750783,1.158353 4.053714,1.158353 C5.356638,1.158353 6.369727,2.027025 6.369727,3.426682 L6.369727,4.198978 C5.699463,4.459763 4.952297,4.6375 4.212306,4.813522 C2.076417,5.321603 0,5.815502 0,8.25321 C0,9.5081 0.868504,11.00435 3.18486,11.00435 C4.584524,11.00435 5.549411,10.56993 6.466453,9.65286 Z M5.596584,5.485837 C5.850194,5.42927 6.108935,5.371506 6.369727,5.309129 L6.369727,8.4945 C5.501223,9.5081 4.729102,9.89415 3.908786,9.89415 C2.895361,9.89415 2.075052,9.21858 2.075052,8.06022 C2.075052,6.271286 3.691408,5.910863 5.596584,5.485837 Z" id="path12_fill"></path>
                        </g>
                    </g>
                    <g id="Shape" transform="translate(69.300000, 0.000000)">
                        <g id="path13_fill-link" transform="translate(0.161000, 0.147000)">
                            <path d="M0,15.87894 C0.0965132,14.57582 0.0965132,8.25321 0.0965132,7.5775 C0.0965132,6.901783 0.04825646,1.013551 0,0 L2.075031,0 C2.075031,1.013551 1.978515,6.901783 1.978515,7.5775 C1.978515,8.25321 2.026773,14.57582 2.075031,15.87894 L0,15.87894 Z" id="path13_fill"></path>
                        </g>
                    </g>
                </g>
                <g id="Group" transform="translate(159.600000, 0.000000)">
                    <g id="Shape">
                        <g id="path14_fill-link" transform="translate(0.665000, 0.434000)">
                            <path d="M13.82059,13.36916 C13.19241,14.33446 11.11446,15.73411 8.26336,15.73411 C1.691333,15.73411 0,11.05251 0,7.91532 C0,2.654533 3.865897,0 8.11839,0 C11.01779,0 12.51586,0.820491 13.53065,1.447929 C13.53065,2.027095 13.33738,2.702798 12.99907,3.281964 L12.66083,3.281964 C11.74264,2.027095 10.14797,1.110074 8.16669,1.110074 C4.252486,1.110074 2.464511,4.34378 2.464511,7.81879 C2.464511,10.85945 4.300814,14.57582 8.5533,14.57582 C11.01779,14.57582 13.09574,13.07964 13.72392,11.92128 L14.01386,11.92128 C13.96556,12.3074 13.96556,13.2244 13.82059,13.36916 Z" id="path14_fill"></path>
                        </g>
                    </g>
                    <g id="Shape" transform="translate(15.400000, 4.900000)">
                        <g id="path15_fill-link" transform="translate(0.434000, 0.315000)">
                            <path d="M0,5.502077 C0,7.67403 1.208249,10.95598 5.412351,10.95598 C9.61646,10.95598 10.82438,7.67403 10.82438,5.502077 C10.82438,2.509815 8.94005,0 5.412351,0 C1.932861,0 0,2.509815 0,5.502077 Z M2.223046,5.405687 C2.223046,3.137183 3.237843,0.917042 5.412351,0.917042 C7.58688,0.917042 8.60167,3.137183 8.60167,5.405687 C8.60167,8.01192 7.58688,9.94252 5.412351,9.94252 C3.237843,9.94252 2.223046,8.01192 2.223046,5.405687 Z" id="path15_fill"></path>
                        </g>
                    </g>
                    <g id="Shape" transform="translate(28.700000, 4.900000)">
                        <g id="path16_fill-link" transform="translate(0.042000, 0.553000)">
                            <path d="M9.22985,6.033027 C9.22985,6.70873 9.27815,9.4598 9.32645,10.4251 L7.1519,10.4251 L7.20027,8.92885 C6.668676,9.84592 5.508902,10.71469 3.769248,10.71469 C1.643005,10.71469 0,9.36327 0,6.998313 C0,6.081292 0.0966476,3.378494 0.0966476,2.992381 C0.0966476,2.26842 0.04832373,0.772226 0,0 L2.126243,0 C2.077922,1.013551 1.981273,5.357331 1.981273,6.129557 C1.981273,7.96362 2.70613,9.31497 4.494105,9.31497 C5.508902,9.31497 7.34524,8.44627 7.34524,5.743444 C7.34524,5.212536 7.24857,0.723961 7.24857,0 L9.37482,0 C9.22985,1.303134 9.22985,5.357331 9.22985,6.033027 Z" id="path16_fill"></path>
                        </g>
                    </g>
                    <g id="Shape" transform="translate(40.600000, 4.900000)">
                        <g id="path17_fill-link" transform="translate(0.077000, 0.266000)">
                            <path d="M7.24857,10.71469 C7.29687,9.70109 7.39354,5.357331 7.39354,4.585098 C7.39354,2.751063 6.620348,1.399664 4.880694,1.399664 C3.865897,1.399664 2.029594,2.26842 2.029594,4.971218 C2.029594,5.502119 2.126243,9.99068 2.126243,10.71469 L0,10.71469 C0.0966476,9.4115 0.0966476,5.357331 0.0966476,4.681628 C0.0966476,4.005932 0.04832373,1.254869 0,0.2895851 L2.174571,0.2895851 L2.126243,1.785777 C2.657802,0.868756 3.817576,0 5.55723,0 C7.68348,0 9.37482,1.351399 9.37482,3.716342 C9.37482,4.633363 9.27815,7.33614 9.27815,7.72226 C9.27815,8.10838 9.32645,10.32857 9.37482,10.71469 L7.24857,10.71469 Z" id="path17_fill"></path>
                        </g>
                    </g>
                    <g id="Shape" transform="translate(51.800000, 4.900000)">
                        <g id="path18_fill-link" transform="translate(0.329000, 0.364000)">
                            <path d="M9.03651,2.606268 L8.69827,2.606268 C8.26336,1.737512 7.29687,0.868756 5.895498,0.868756 C3.720927,0.868756 2.222892,2.654533 2.222892,5.357331 C2.222892,8.39797 4.059195,9.79762 5.943819,9.79762 C7.44184,9.79762 8.79494,9.02538 9.22985,8.20491 L9.51979,8.20491 C9.61639,8.63933 9.56809,9.26674 9.37482,9.55633 C9.13318,9.89415 8.16669,10.95598 5.508902,10.95598 C1.836303,10.95598 0,8.15668 0,5.502119 C0,3.378494 1.208095,0 5.750521,0 C7.78015,0 8.69827,0.4826423 9.56809,1.110074 C9.56809,1.592717 9.37482,2.027095 9.03651,2.606268 Z" id="path18_fill"></path>
                        </g>
                    </g>
                    <g id="Shape" transform="translate(63.700000, 0.000000)">
                        <g id="path19_fill-link" transform="translate(0.077000, 0.630000)">
                            <path d="M0,1.303099 C0,1.97883 0.5800291,2.606198 1.304639,2.606198 C2.029587,2.606198 2.609621,2.027025 2.609621,1.303099 C2.609621,0.5791751 2.029587,0 1.304639,0 C0.6282227,0 0,0.5791751 0,1.303099 Z M0.2901857,9.21844 C0.2901857,9.89415 0.2901857,13.9482 0.1934569,15.25146 L2.367967,15.25146 C2.319772,13.9482 2.271241,9.89415 2.271241,9.21844 C2.271241,8.54273 2.367967,5.839939 2.367967,4.826346 L0.1934569,4.826346 C0.2416505,5.791576 0.2901857,8.54273 0.2901857,9.21844 Z" id="path19_fill"></path>
                        </g>
                    </g>
                    <g id="Shape" transform="translate(68.600000, 0.000000)">
                        <g id="path20_fill-link" transform="translate(0.637000, 0.000000)">
                            <path d="M0,15.87894 C0.0966476,14.57582 0.0966476,8.25321 0.0966476,7.5775 C0.0966476,6.901783 0.04832373,1.013551 0,0 L2.077922,0 C2.077922,1.013551 1.981273,6.901783 1.981273,7.5775 C1.981273,8.25321 2.029594,14.52752 2.077922,15.87894 L0,15.87894 Z" id="path20_fill"></path>
                        </g>
                    </g>
                </g>
            </g>
        </g>
    </g>
</svg>