<?xml version="1.0" encoding="UTF-8"?>
<svg width="96px" height="44px" viewBox="0 0 96 44" version="1.1" xmlns="http://www.w3.org/2000/svg" xmlns:xlink="http://www.w3.org/1999/xlink">
    <!-- Generator: sketchtool 61 (101010) - https://sketch.com -->
    <title>DAB4840C-615B-4926-AABA-4DAF0A6AC239</title>
    <desc>Created with sketchtool.</desc>
    <g id="Page-1" stroke="none" stroke-width="1" fill="none" fill-rule="evenodd">
        <g id="HCP-users-read-only-list-_4" transform="translate(-255.000000, -182.000000)">
            <g id="logo-cibg" transform="translate(255.000000, 182.000000)">
                <g id="Laag_1_1_">
                    <g id="Group">
                        <rect id="Rectangle" x="0" y="0" width="131" height="52"></rect>
                        <rect id="Rectangle" fill="#154273" fill-rule="nonzero" x="0" y="0" width="20.8598726" height="41.6"></rect>
                    </g>
                    <path d="M10.805414,32.18176 L10.4424522,32.18176 L10.4424522,31.1792 L10.805414,31.1792 L10.805414,32.18176 Z M12.445,27.75552 L12.0820382,27.75552 L12.0820382,26.75296 L12.445,26.75296 L12.445,27.75552 Z M5.71977707,26.02496 C5.69057325,26.02496 5.50283439,26.02496 5.50283439,26.0624 C5.50283439,26.09984 5.59044586,26.0832 5.71977707,26.104 C6.01181529,26.15392 6.1244586,26.29952 6.32888535,26.29952 C6.51245223,26.29952 6.70436306,26.17472 6.62926752,25.90848 C6.61675159,25.86272 6.59171975,25.8752 6.5833758,25.90432 C6.55417197,26.02496 6.40815287,26.09152 6.25378981,26.09152 C6.06187898,26.09152 6.02433121,26.02496 5.71977707,26.02496 Z M3.72140127,27.02752 C3.75477707,27.07328 4.09687898,27.51424 3.57121019,27.6848 C3.54617834,27.69312 3.54200637,27.71392 3.57538217,27.73056 C3.9633758,27.8928 4.15111465,27.59328 4.15111465,27.59328 C4.34719745,28.04256 4.04681529,28.288 4.04681529,28.288 C4.08853503,28.36704 4.27627389,28.50432 4.55579618,28.56672 C4.66426752,28.50848 4.8144586,28.40032 4.87703822,28.23392 C4.87703822,28.23392 4.95213376,28.42944 4.88538217,28.61664 C5.67805732,28.68736 5.95757962,28.05504 6.57085987,28.17152 C6.58754777,28.17568 6.59589172,28.1632 6.59589172,28.14656 C6.59589172,27.75552 6.35808917,27.04416 5.59878981,26.89856 C4.84366242,26.75296 5.04808917,26.44512 5.04808917,26.44512 C5.36515924,26.43264 5.54872611,26.56992 5.54872611,26.56992 C5.60713376,26.47424 5.52369427,26.3744 5.52369427,26.3744 C5.55289809,26.33696 5.56958599,26.208 5.56958599,26.208 C5.21079618,26.208 5.11901274,26.12896 5.11901274,26.12896 C5.06477707,25.9168 5.21079618,25.61728 5.74480892,25.9376 C5.8783121,25.82112 5.86579618,25.63808 5.86579618,25.63808 C5.90751592,25.61728 5.93254777,25.55488 5.93254777,25.52992 C5.93254777,25.44256 5.50700637,25.20544 5.39853503,25.17632 C5.37350318,25.04736 5.2066242,24.86432 4.70598726,24.93088 C4.46818471,24.96 4.29713376,24.8976 4.37640127,24.76032 C4.3889172,24.73536 4.34719745,24.7312 4.32633758,24.75616 C4.27210191,24.81024 4.19700637,24.96416 4.40143312,25.06816 C4.63089172,25.18464 4.64340764,25.41344 4.64757962,25.44672 C4.65175159,25.49664 4.59334395,25.5008 4.58082803,25.45088 C4.47652866,25.064 3.94251592,24.9808 3.62961783,25.18464 C3.64630573,25.39264 3.87159236,25.52992 3.99257962,25.52992 C4.06350318,25.52992 4.1594586,25.4592 4.1594586,25.36352 C4.1594586,25.31776 4.18449045,25.32192 4.19700637,25.35936 C4.24707006,25.49664 4.04264331,25.78368 3.74226115,25.60896 C3.43353503,25.9168 3.55869427,26.29952 3.58789809,26.4368 C3.64213376,26.6864 3.5211465,26.93184 3.2916879,26.81952 C3.27917197,26.81536 3.26665605,26.8112 3.26665605,26.83616 C3.27082803,26.98592 3.47525478,27.1648 3.72140127,27.02752 Z M5.42356688,25.47584 C5.27754777,25.63808 5.0439172,25.60064 4.98550955,25.3344 C5.28589172,25.31776 5.41105096,25.34688 5.42356688,25.47584 Z M14.6311146,26.09152 C14.4767516,26.09152 14.3307325,26.02496 14.3015287,25.90432 C14.2931847,25.8752 14.2681529,25.86272 14.2556369,25.90848 C14.1805414,26.17472 14.3724522,26.29952 14.5560191,26.29952 C14.7604459,26.29952 14.8730892,26.15392 15.1651274,26.104 C15.2944586,26.0832 15.3820701,26.104 15.3820701,26.0624 C15.3820701,26.02496 15.1943312,26.02496 15.1651274,26.02496 C14.8647452,26.02496 14.8230255,26.09152 14.6311146,26.09152 Z M17.6182484,26.82784 C17.6182484,26.80288 17.6057325,26.80704 17.5932166,26.8112 C17.363758,26.92352 17.2427707,26.68224 17.2970064,26.42848 C17.3262102,26.28704 17.4513694,25.90848 17.1426433,25.60064 C16.8380892,25.77536 16.6336624,25.48832 16.6878981,25.35104 C16.700414,25.3136 16.7254459,25.30944 16.7254459,25.3552 C16.7254459,25.45088 16.8214013,25.5216 16.8923248,25.5216 C17.0133121,25.5216 17.2385987,25.38432 17.2552866,25.17632 C16.9423885,24.97248 16.4083758,25.05568 16.3040764,25.44256 C16.2915605,25.49248 16.2331529,25.48832 16.2373248,25.4384 C16.2373248,25.40512 16.2540127,25.17632 16.4834713,25.05984 C16.6920701,24.95584 16.6169745,24.80192 16.5585669,24.74784 C16.537707,24.72704 16.4918153,24.7312 16.5085032,24.752 C16.5877707,24.88928 16.4167197,24.95168 16.1830892,24.92256 C15.6824522,24.856 15.5197452,25.0432 15.4905414,25.168 C15.3820701,25.19712 14.9565287,25.43424 14.9565287,25.5216 C14.9565287,25.54656 14.9815605,25.61312 15.0232803,25.62976 C15.0232803,25.62976 15.0149363,25.80864 15.1442675,25.92928 C15.6741083,25.60896 15.8242994,25.90848 15.7700637,26.12064 C15.7700637,26.12064 15.6741083,26.19552 15.3153185,26.19968 C15.3153185,26.19968 15.3320064,26.32864 15.3612102,26.36608 C15.3612102,26.36608 15.2777707,26.47008 15.3361783,26.5616 C15.3361783,26.5616 15.5197452,26.42432 15.8368153,26.4368 C15.8368153,26.4368 16.041242,26.74464 15.2861146,26.89024 C14.5309873,27.03584 14.2890127,27.7472 14.2890127,28.13824 C14.2890127,28.15904 14.2973567,28.16736 14.3140446,28.1632 C14.9273248,28.05088 15.2068471,28.6832 15.9995223,28.60832 C15.9285987,28.42112 16.0078662,28.2256 16.0078662,28.2256 C16.0704459,28.392 16.2206369,28.50432 16.3291083,28.5584 C16.6128025,28.496 16.7963694,28.36288 16.8380892,28.27968 C16.8380892,28.27968 16.537707,28.03424 16.7337898,27.58496 C16.7337898,27.58496 16.9215287,27.88448 17.3095223,27.72224 C17.3428981,27.7056 17.3345541,27.6848 17.3136943,27.67648 C16.7880255,27.50592 17.1301274,27.06496 17.1635032,27.0192 C17.4096497,27.1648 17.6182484,26.98592 17.6182484,26.82784 Z M15.8993949,25.3344 C15.8409873,25.60064 15.6073567,25.63808 15.4613376,25.47584 C15.4738535,25.34688 15.6031847,25.31776 15.8993949,25.3344 Z M10.3047771,20.88736 C10.3047771,20.95392 10.3339809,21.01216 10.3548408,21.04544 C10.4007325,21.112 10.3923885,21.14944 10.3715287,21.17024 C10.3506688,21.19104 10.313121,21.19936 10.2463694,21.1536 C10.2129936,21.12864 10.154586,21.10368 10.0878344,21.10368 C9.97519108,21.10368 9.91678344,21.17856 9.91678344,21.24096 C9.91678344,21.30336 9.97519108,21.37824 10.0878344,21.37824 C10.154586,21.37824 10.2129936,21.34912 10.2463694,21.32832 C10.313121,21.28256 10.3506688,21.29088 10.3715287,21.31168 C10.3923885,21.33248 10.3631847,21.56128 10.3339809,21.74432 C10.146242,21.78592 10.0544586,21.93568 10.0544586,22.02304 C10.0544586,22.25184 10.2964331,22.3808 10.4424522,22.45984 C10.5842994,22.38496 10.8304459,22.25184 10.8304459,22.02304 C10.8304459,21.93568 10.7386624,21.78176 10.5509236,21.74432 C10.5258917,21.56544 10.4925159,21.33248 10.5133758,21.31168 C10.5342357,21.29088 10.5717834,21.28256 10.638535,21.32832 C10.6719108,21.35328 10.7303185,21.37824 10.7970701,21.37824 C10.9097134,21.37824 10.968121,21.30336 10.968121,21.24096 C10.968121,21.17856 10.9097134,21.10368 10.7970701,21.10368 C10.7303185,21.10368 10.6719108,21.1328 10.638535,21.1536 C10.5717834,21.19936 10.5342357,21.19104 10.5133758,21.17024 C10.4925159,21.14944 10.484172,21.112 10.5300637,21.04544 C10.5550955,21.01216 10.5801274,20.95392 10.5801274,20.88736 C10.5801274,20.77504 10.5050318,20.7168 10.4424522,20.7168 C10.3798726,20.7168 10.3047771,20.77504 10.3047771,20.88736 Z M10.4424522,22.57632 C10.2880892,22.57632 10.1629299,22.70112 10.1629299,22.85504 C10.1629299,23.00896 10.2880892,23.13376 10.4424522,23.13376 C10.5968153,23.13376 10.7219745,23.00896 10.7219745,22.85504 C10.7219745,22.70112 10.5968153,22.57632 10.4424522,22.57632 Z M10.4424522,25.24288 C11.5563694,25.24288 12.1821656,25.45504 12.1821656,25.45504 C12.1863376,24.89344 12.1863376,24.58144 12.5075796,24.6272 C12.3323567,24.15712 13.0916561,23.96992 13.0916561,23.3584 C13.0916561,22.95488 12.8037898,22.90912 12.7203503,22.90912 C12.4700318,22.90912 12.5075796,23.07136 12.2948089,23.07136 C12.2697771,23.07136 12.2405732,23.06304 12.2405732,23.08384 C12.2405732,23.15456 12.2989809,23.2752 12.3991083,23.2752 C12.5326115,23.2752 12.5326115,23.14208 12.6327389,23.14208 C12.6744586,23.14208 12.7370382,23.17536 12.7370382,23.31264 C12.7370382,23.57472 12.5659873,23.86176 12.3615605,24.0864 C12.3156688,24.024 12.2530892,23.9824 12.1738217,23.9824 C12.0528344,23.9824 11.948535,24.1072 11.948535,24.26112 C11.948535,24.31936 11.956879,24.36096 11.9777389,24.40672 C11.9109873,24.44416 11.8484076,24.46496 11.8066879,24.46496 C11.7149045,24.46496 11.5772293,24.42752 11.5772293,24.22784 C11.5772293,23.78272 12.1738217,23.39168 12.1738217,22.82592 C12.1738217,22.55552 11.9944268,22.28928 11.6147771,22.28928 C11.2100955,22.28928 11.2851911,22.65536 10.9347452,22.65536 C10.9180573,22.65536 10.9055414,22.65952 10.9055414,22.67616 C10.9055414,22.70112 10.968121,22.90496 11.1475159,22.90496 C11.3394268,22.90496 11.3936624,22.57216 11.5688854,22.57216 C11.631465,22.57216 11.7274204,22.6096 11.7274204,22.83424 C11.7274204,23.00896 11.6398089,23.296 11.5146497,23.5664 C11.468758,23.52064 11.4061783,23.48736 11.3394268,23.48736 C11.1892357,23.48736 11.0807643,23.63296 11.0807643,23.80352 C11.0807643,23.91168 11.1224841,24.01984 11.1975796,24.0864 C11.1099682,24.19872 11.0181847,24.29024 10.8971975,24.29024 C10.6552229,24.29024 10.5509236,24.15296 10.5509236,24.0032 C10.5509236,23.84096 10.8471338,23.78272 10.8471338,23.53312 C10.8471338,23.36256 10.7344904,23.26688 10.6301911,23.26688 C10.5133758,23.26688 10.4549682,23.34176 10.4424522,23.34176 C10.4299363,23.34176 10.3715287,23.26688 10.2547134,23.26688 C10.146242,23.26688 10.0377707,23.36256 10.0377707,23.53312 C10.0377707,23.78272 10.3339809,23.84512 10.3339809,24.0032 C10.3339809,24.15296 10.2255096,24.29024 9.98770701,24.29024 C9.86671975,24.29024 9.77493631,24.19872 9.68732484,24.0864 C9.76242038,24.01568 9.80414013,23.91168 9.80414013,23.80352 C9.80414013,23.6288 9.69566879,23.48736 9.54547771,23.48736 C9.47455414,23.48736 9.4161465,23.52064 9.37025478,23.5664 C9.24509554,23.29184 9.15748408,23.00896 9.15748408,22.83424 C9.15748408,22.6096 9.25343949,22.57216 9.31601911,22.57216 C9.48707006,22.57216 9.54130573,22.90496 9.73738854,22.90496 C9.91678344,22.90496 9.97936306,22.70112 9.97936306,22.67616 C9.97936306,22.66368 9.96684713,22.65536 9.95015924,22.65536 C9.59971338,22.65536 9.67480892,22.28928 9.27012739,22.28928 C8.89464968,22.28928 8.7110828,22.55552 8.7110828,22.82592 C8.7110828,23.39168 9.30767516,23.78272 9.30767516,24.22784 C9.30767516,24.42752 9.17,24.46496 9.07821656,24.46496 C9.03232484,24.46496 8.9739172,24.44416 8.90716561,24.40672 C8.92802548,24.3568 8.93636943,24.31936 8.93636943,24.26112 C8.93636943,24.1072 8.83207006,23.9824 8.7110828,23.9824 C8.63598726,23.9824 8.57340764,24.024 8.52751592,24.0864 C8.32308917,23.86176 8.15203822,23.57472 8.15203822,23.31264 C8.15203822,23.17952 8.21461783,23.14208 8.25633758,23.14208 C8.35229299,23.14208 8.35646497,23.2752 8.48996815,23.2752 C8.59009554,23.2752 8.64850318,23.15456 8.64850318,23.08384 C8.64850318,23.06304 8.61929936,23.07136 8.59426752,23.07136 C8.38149682,23.07136 8.41904459,22.90912 8.16872611,22.90912 C8.08528662,22.90912 7.79742038,22.95488 7.79742038,23.3584 C7.79742038,23.97408 8.55671975,24.15712 8.38149682,24.6272 C8.70273885,24.58144 8.69856688,24.89344 8.70691083,25.45504 C8.70273885,25.45504 9.32853503,25.24288 10.4424522,25.24288 Z M8.40235669,26.07072 C8.09780255,26.13728 7.88085987,26.19968 7.78490446,26.2288 C7.78907643,26.09568 7.83914013,25.97088 7.96012739,25.94592 C7.97681529,25.94176 7.98098726,25.92096 7.96429936,25.91264 C7.69312102,25.73376 7.55127389,26.07488 7.54710191,26.08736 C7.4511465,26.07904 7.30512739,26.10816 7.30512739,26.23712 C7.30512739,26.624 6.42066879,26.83616 6.21624204,26.86944 C6.57920382,27.00672 6.7293949,27.46432 6.7293949,27.46432 C6.9922293,27.20224 7.29678344,26.97344 7.36770701,26.97344 C7.43863057,26.97344 7.46366242,27.0608 7.46783439,27.11072 C7.46783439,27.12736 7.48452229,27.13152 7.49703822,27.11904 C7.63471338,26.9152 7.56796178,26.86944 7.55544586,26.80704 C7.54710191,26.76128 7.55961783,26.5824 7.75987261,26.6032 L7.75987261,29.17824 L7.65557325,29.19904 C7.60968153,29.20736 7.23003185,28.88704 6.80031847,28.58752 C6.36643312,28.288 6.13697452,28.46688 5.64468153,28.73312 C4.99802548,29.08256 4.34719745,28.7664 4.34719745,28.7664 C3.79232484,29.1616 3.60041401,30.30976 3.60041401,30.30976 C3.4877707,30.35552 3.30420382,30.40544 3.13315287,30.40544 C2.70761146,30.40544 2.63251592,30.14752 2.63251592,29.99776 C2.63251592,29.34464 3.4543949,29.06592 3.4543949,28.42112 C3.4543949,28.26304 3.38347134,27.63072 2.59496815,27.63072 C2.49484076,27.63072 1.89407643,27.63072 1.88990446,27.63072 C1.59369427,27.63072 1.5227707,27.41856 1.48105096,27.33952 C1.46436306,27.30624 1.43515924,27.32704 1.44767516,27.352 C1.46853503,27.40608 1.41429936,27.48928 1.41429936,27.65152 C1.41429936,27.9136 1.56866242,28.07168 1.85652866,28.07168 C1.98585987,28.07168 2.11101911,28.03424 2.14856688,28.00928 C2.17359873,27.99264 2.19028662,28.0176 2.1777707,28.03424 C2.05261146,28.17984 2.04426752,28.4544 2.09433121,28.5168 C2.10684713,28.53344 2.12353503,28.52928 2.12353503,28.5168 C2.1944586,28.24224 2.45312102,27.98016 2.80356688,27.98016 C3.23328025,27.98016 3.22910828,28.34208 3.22910828,28.42944 C3.22910828,28.9536 2.30710191,29.33632 2.30710191,30.06016 C2.30710191,30.79232 3.08308917,30.94624 3.52949045,30.83392 C3.5044586,31.56608 2.66171975,31.81568 2.6366879,31.29152 C2.6366879,31.26656 2.61582803,31.2624 2.6033121,31.29568 C2.49901274,31.5536 2.54073248,31.7824 2.8661465,31.85312 C2.88700637,31.85728 2.87866242,31.86976 2.85780255,31.8864 C2.53238854,32.09024 2.70761146,32.89728 2.72429936,33.1344 C2.74933121,33.47552 2.4072293,33.43392 2.37802548,33.4256 C2.36550955,33.42144 2.34882166,33.4256 2.3738535,33.45472 C2.61582803,33.75008 2.91621019,33.47968 2.91621019,33.47968 C3.14149682,33.5504 3.00382166,33.74176 2.8494586,33.8416 C2.82442675,33.85824 2.82859873,33.87488 2.85363057,33.87488 C2.88700637,33.87904 3.23745223,33.90816 3.30003185,33.62944 C3.4543949,33.81248 3.6838535,33.74592 3.72974522,33.72096 C3.79649682,33.68768 4.1260828,33.56704 4.15528662,33.93312 C4.15528662,33.95808 4.17197452,33.94144 4.18449045,33.92896 C4.43063694,33.61696 4.16780255,33.4256 4.01761146,33.4048 C4.03012739,33.38816 4.22621019,33.22176 4.4056051,33.45056 C4.41812102,33.4672 4.43063694,33.47136 4.43063694,33.43808 C4.45149682,33.04288 4.13025478,33.0096 3.92165605,33.18016 C3.9133121,33.13856 3.84238854,32.91808 4.15528662,32.9264 C4.16363057,32.9264 4.1761465,32.91392 4.16363057,32.90144 C3.92165605,32.64352 3.72140127,32.87648 3.67133758,32.93472 C3.56286624,33.06368 3.2916879,33.0096 3.26665605,33.0096 C3.35009554,31.64096 4.55996815,32.12768 4.72684713,31.46208 C4.73519108,31.4288 4.75187898,31.44128 4.75187898,31.45376 C4.7977707,31.616 5.2066242,31.6368 5.28171975,31.32064 C5.28589172,31.29984 5.28171975,31.28736 5.26920382,31.29984 C4.91875796,31.64928 4.13025478,30.55936 5.2066242,29.67328 C6.1244586,28.92032 6.94633758,29.34048 7.25923567,29.58592 C7.27592357,29.69408 7.20917197,29.73152 7.16745223,29.744 C7.15076433,29.74816 7.14659236,29.76064 7.1716242,29.77312 C7.25923567,29.8064 7.38022293,29.79392 7.43863057,29.71488 C7.63471338,29.85216 7.46783439,30.02688 7.38856688,30.07264 C7.36770701,30.08512 7.37605096,30.0976 7.39273885,30.10176 C7.57213376,30.13504 7.72232484,29.952 7.73066879,29.84384 L7.75987261,29.86048 L7.75987261,30.6384 C7.75987261,31.74496 9.04066879,31.89888 10.4466242,32.83488 C11.8525796,31.89472 13.1292038,31.74496 13.1292038,30.6384 L13.1292038,29.86048 L13.1584076,29.84384 C13.1667516,29.94784 13.3127707,30.13504 13.4963376,30.10176 C13.5130255,30.0976 13.5213694,30.08512 13.5005096,30.07264 C13.421242,30.02272 13.2501911,29.85216 13.4504459,29.71488 C13.5088535,29.79808 13.6298408,29.8064 13.7174522,29.77312 C13.7424841,29.7648 13.7383121,29.74816 13.7216242,29.744 C13.6799045,29.73152 13.6131529,29.69408 13.6298408,29.58592 C13.9427389,29.33632 14.7646178,28.91616 15.6824522,29.67328 C16.7588217,30.55936 15.9703185,31.64512 15.6198726,31.29984 C15.6031847,31.2832 15.6031847,31.29984 15.6073567,31.32064 C15.6824522,31.64096 16.0913057,31.616 16.1371975,31.45376 C16.1413694,31.44128 16.1580573,31.4288 16.1622293,31.46208 C16.3291083,32.12768 17.5348089,31.64096 17.6224204,33.0096 C17.5973885,33.01376 17.3262102,33.06368 17.2177389,32.93472 C17.1718471,32.88064 16.9715924,32.64352 16.7254459,32.90144 C16.708758,32.91808 16.7254459,32.9264 16.7337898,32.9264 C17.0466879,32.91808 16.9799363,33.13856 16.9674204,33.18016 C16.7588217,33.0096 16.4375796,33.04288 16.4584395,33.43808 C16.4584395,33.4672 16.4709554,33.4672 16.4834713,33.45056 C16.6628662,33.22176 16.858949,33.38816 16.871465,33.4048 C16.7254459,33.4256 16.4584395,33.61696 16.704586,33.92896 C16.7171019,33.94144 16.7296178,33.95808 16.7337898,33.93312 C16.7671656,33.56704 17.0925796,33.68352 17.1593312,33.72096 C17.2052229,33.74592 17.4346815,33.81248 17.5890446,33.62944 C17.6516242,33.90816 18.0020701,33.87904 18.0354459,33.87488 C18.0604777,33.87488 18.0604777,33.85824 18.0396178,33.8416 C17.8894268,33.74176 17.7475796,33.5504 17.9728662,33.47968 C17.9728662,33.47968 18.2732484,33.75008 18.5152229,33.45472 C18.5360828,33.42976 18.5235669,33.42144 18.511051,33.4256 C18.4818471,33.43392 18.1397452,33.47552 18.1647771,33.1344 C18.181465,32.89728 18.3566879,32.09024 18.0312739,31.8864 C18.010414,31.87392 18.0020701,31.86144 18.0229299,31.85312 C18.3483439,31.7824 18.3900637,31.5536 18.2857643,31.29568 C18.2732484,31.2624 18.2523885,31.27072 18.2523885,31.29152 C18.2273567,31.81568 17.3887898,31.56608 17.359586,30.83392 C17.8101592,30.9504 18.5819745,30.79232 18.5819745,30.06016 C18.5819745,29.34048 17.6599682,28.9536 17.6599682,28.42944 C17.6599682,28.34208 17.6557962,27.98016 18.0855096,27.98016 C18.4359554,27.98016 18.6946178,28.24224 18.7655414,28.5168 C18.7697134,28.52928 18.7822293,28.53344 18.7947452,28.5168 C18.8448089,28.45024 18.836465,28.17984 18.7113057,28.03424 C18.6987898,28.02176 18.7113057,27.99264 18.7405096,28.00928 C18.7780573,28.03424 18.9032166,28.07168 19.0325478,28.07168 C19.320414,28.07168 19.4747771,27.9136 19.4747771,27.65152 C19.4747771,27.48928 19.4163694,27.40608 19.4414013,27.352 C19.4539172,27.32704 19.4205414,27.3104 19.4080255,27.33952 C19.3663057,27.42272 19.2912102,27.63072 18.999172,27.63072 C18.995,27.63072 18.3942357,27.63072 18.2941083,27.63072 C17.5056051,27.63072 17.4346815,28.2672 17.4346815,28.42112 C17.4346815,29.06592 18.2565605,29.34464 18.2565605,29.99776 C18.2565605,30.15168 18.177293,30.40544 17.7559236,30.40544 C17.5807006,30.40544 17.3971338,30.35552 17.2886624,30.30976 C17.2886624,30.30976 17.1009236,29.16576 16.541879,28.7664 C16.541879,28.7664 15.891051,29.08256 15.2443949,28.73312 C14.7521019,28.46688 14.5184713,28.288 14.084586,28.58752 C13.6507006,28.88704 13.2752229,29.20736 13.2293312,29.19904 L13.1250318,29.17824 L13.1250318,26.6032 C13.3252866,26.5824 13.3378025,26.76128 13.3294586,26.80704 C13.3169427,26.86528 13.2543631,26.9152 13.3878662,27.11904 C13.4003822,27.13568 13.4128981,27.12736 13.4170701,27.11072 C13.421242,27.0608 13.4504459,26.97344 13.5171975,26.97344 C13.583949,26.97344 13.8926752,27.20224 14.1555096,27.46432 C14.1555096,27.46432 14.3057006,27.01088 14.6686624,26.86944 C14.4642357,26.83616 13.5797771,26.624 13.5797771,26.23712 C13.5797771,26.10816 13.433758,26.07904 13.3378025,26.08736 C13.3336306,26.07488 13.1876115,25.73376 12.9206051,25.91264 C12.9080892,25.92096 12.9080892,25.94176 12.9247771,25.94592 C13.0457643,25.97504 13.095828,26.09568 13.1,26.2288 C12.8413376,26.14976 11.7441083,25.84192 10.4424522,25.84192 C9.8083121,25.84192 9.22840764,25.9168 8.76531847,26 L8.76531847,26.89024 L8.40235669,26.89024 L8.40235669,26.07072 L8.40235669,26.07072 M5.99929936,35.2144 C5.90334395,35.17696 5.84076433,35.11456 5.84076433,34.9856 L5.84076433,34.43232 C5.6822293,34.37824 5.24834395,34.21184 4.37640127,34.21184 C3.65464968,34.21184 3.42936306,34.37408 3.41684713,34.43232 L3.22493631,35.4848 C3.22493631,35.4848 3.51697452,35.21856 4.56414013,35.28512 C5.82407643,35.36416 7.12990446,36.1088 7.12990446,35.31424 L7.12990446,34.84832 C6.14531847,34.85248 5.99929936,35.16864 5.99929936,35.2144 Z M13.755,34.85248 L13.755,35.3184 C13.755,36.1088 15.060828,35.36832 16.3207643,35.28928 C17.3679299,35.22272 17.6599682,35.48896 17.6599682,35.48896 L17.4680573,34.43232 C17.4597134,34.37408 17.2302548,34.21184 16.5085032,34.21184 C15.6407325,34.21184 15.2068471,34.37824 15.0441401,34.43232 L15.0441401,34.9856 C15.0441401,35.1104 14.9815605,35.1728 14.8856051,35.2144 C14.8897771,35.16864 14.743758,34.85248 13.755,34.85248 Z M10.4424522,34.37408 C12.4742038,34.37408 14.5351592,34.47808 14.8021656,34.78592 C14.8230255,34.81088 14.8313694,34.78592 14.8313694,34.76512 L14.8313694,33.69184 C14.8313694,33.37984 12.7036624,33.1968 10.4382803,33.1968 C8.17289809,33.1968 6.04519108,33.37984 6.04519108,33.69184 L6.04519108,34.76512 C6.04519108,34.78176 6.05353503,34.80672 6.0743949,34.78592 C6.3539172,34.48224 8.41487261,34.37408 10.4424522,34.37408 Z M8.63181529,29.31552 L8.42738854,29.26144 L8.41070064,29.2864 L8.17289809,29.1824 C8.17289809,29.1824 8.34812102,29.1824 8.38566879,29.1824 C8.40652866,29.1824 8.40652866,29.16992 8.39818471,29.1616 C8.3022293,29.06592 8.21461783,28.98272 8.21461783,28.98272 C8.21461783,28.98272 8.31057325,29.02016 8.44824841,29.07008 C8.46493631,29.07424 8.46910828,29.06592 8.46076433,29.05344 C8.39401274,28.95776 8.3022293,28.82464 8.3022293,28.82464 C8.3022293,28.82464 8.49414013,28.9536 8.5316879,28.97856 C8.54420382,28.98688 8.55254777,28.97856 8.5483758,28.96608 C8.4983121,28.84128 8.43990446,28.69568 8.43990446,28.69568 L8.64850318,28.89536 C8.65684713,28.90368 8.66936306,28.89952 8.66519108,28.88704 C8.64433121,28.79136 8.60678344,28.61664 8.60678344,28.61664 L8.7611465,28.84128 C8.76949045,28.85376 8.78200637,28.8496 8.78200637,28.83712 C8.78200637,28.79136 8.78617834,28.59168 8.78617834,28.59168 C8.78617834,28.59168 8.85292994,28.74144 8.88213376,28.81632 C8.89047771,28.83296 8.89882166,28.83296 8.90716561,28.81216 C8.91550955,28.7872 8.98643312,28.6208 8.98643312,28.6208 L8.99477707,28.87872 L8.96140127,28.88704 L8.91968153,29.19488 C9.22423567,29.12416 9.60805732,28.6 9.90009554,28.6 C10.2505414,28.6 10.3757006,29.00768 11.0181847,28.79968 C11.1808917,29.04096 11.2392994,29.24896 11.301879,29.536 C11.5521975,29.76896 11.8984713,29.68992 11.8984713,29.44448 C11.8984713,29.11168 11.5355096,29.04928 11.5355096,28.69984 C11.5355096,28.54592 11.6439809,28.32128 11.9401911,28.32128 C12.0987261,28.32128 12.3281847,28.38784 12.4616879,28.38784 C12.6202229,28.38784 12.6535987,28.27552 12.6702866,28.2256 C12.6828025,28.19232 12.7286943,28.20064 12.7245223,28.22976 C12.7203503,28.26304 12.7412102,28.3088 12.7412102,28.38368 C12.7412102,28.60416 12.4199682,28.63328 12.3824204,28.60416 C12.3657325,28.59168 12.3532166,28.60832 12.3657325,28.6208 C12.4157962,28.65824 12.4032803,28.79136 12.3448726,28.87456 C12.3365287,28.88288 12.3281847,28.88288 12.3281847,28.87456 C12.2948089,28.71648 12.1070701,28.52096 11.9443631,28.52096 C11.8859554,28.52096 11.7649682,28.55424 11.7649682,28.69568 C11.7649682,28.8912 12.1613057,29.07424 12.1613057,29.48192 C12.1613057,29.90624 11.7399363,30.01024 11.3143949,29.90208 C11.3269108,30.3056 11.9318471,30.54272 11.9443631,30.25568 C11.9443631,30.23488 11.956879,30.24736 11.961051,30.25568 C12.0486624,30.38048 12.0111146,30.472 11.8942994,30.52192 C11.9985987,30.56768 12.0194586,30.77984 12.0486624,30.9088 C12.0945541,31.10016 12.2948089,30.992 12.3073248,30.98784 C12.3198408,30.97952 12.3240127,30.98784 12.3156688,31.00032 C12.2405732,31.19584 12.0361465,31.12096 12.0361465,31.12096 C11.9318471,31.19584 12.0570064,31.2624 12.1529618,31.29152 C12.1654777,31.29568 12.1654777,31.304 12.1571338,31.31232 C12.0862102,31.33728 11.9360191,31.3872 11.8609236,31.25824 C11.8066879,31.39136 11.6940446,31.3872 11.6523248,31.3872 C11.5730573,31.3872 11.5229936,31.46624 11.5396815,31.5744 C11.5396815,31.58272 11.5355096,31.58688 11.5271656,31.58272 C11.3435987,31.46208 11.4478981,31.31648 11.5229936,31.27904 C11.5104777,31.27072 11.3811465,31.21664 11.3269108,31.3664 C11.3227389,31.37888 11.3143949,31.37888 11.3102229,31.3664 C11.2309554,31.15008 11.4061783,31.08768 11.5313376,31.14176 C11.5229936,31.11264 11.456242,31.00448 11.2893631,31.04192 C11.2810191,31.04608 11.2768471,31.04192 11.2810191,31.02944 C11.3102229,30.96288 11.3894904,30.8672 11.5438535,30.96288 C11.623121,31.0128 11.7566242,30.94208 11.7691401,30.93376 C11.4979618,30.39712 10.976465,30.8464 10.8554777,30.42624 C10.8513057,30.41792 10.8429618,30.4096 10.8346178,30.43456 C10.805414,30.52192 10.5759554,30.53024 10.5342357,30.35552 C10.5300637,30.34304 10.5342357,30.33888 10.5467516,30.3472 C10.5801274,30.38048 10.651051,30.4096 10.7470064,30.27648 C10.809586,30.18496 10.8179299,30.06432 10.8179299,29.98528 C10.8179299,29.6608 10.4925159,29.11168 9.98353503,29.11168 C9.66229299,29.11168 9.31601911,29.23648 9.05735669,29.42368 L9.29515924,29.47776 C9.27429936,29.71904 9.04066879,29.86048 8.82789809,29.79808 L8.86544586,29.52352 C8.82789809,29.536 8.73611465,29.56928 8.68605096,29.64 C8.68187898,29.64416 8.67353503,29.64416 8.67353503,29.63584 C8.63181529,29.47776 8.7611465,29.39872 8.79869427,29.38208 C8.80286624,29.37792 8.80286624,29.37792 8.79452229,29.37792 C8.67770701,29.37376 8.61512739,29.45696 8.59426752,29.48608 C8.59009554,29.49024 8.58592357,29.49024 8.58592357,29.48608 C8.59843949,29.4528 8.57757962,29.37376 8.63181529,29.31552 Z M9.34522293,31.1792 C9.25343949,31.29152 9.17417197,31.18336 9.05318471,31.18336 C8.9405414,31.18336 8.91968153,31.27904 8.91968153,31.31648 C8.91968153,31.3248 8.91550955,31.3248 8.91133758,31.32064 C8.78200637,31.14592 8.92802548,31.05024 9.01146497,31.03776 C8.99894904,31.02528 8.87378981,30.94208 8.79452229,31.05856 C8.79035032,31.06688 8.78200637,31.06272 8.78200637,31.0544 C8.77783439,30.83808 8.94888535,30.82144 9.06570064,30.91712 C9.08656051,30.83392 9.03232484,30.77984 8.9405414,30.77568 C8.92802548,30.77568 8.92802548,30.76736 8.93219745,30.7632 C8.96974522,30.7216 9.00729299,30.70496 9.04484076,30.70496 C9.16582803,30.70496 9.18251592,30.85888 9.26178344,30.85888 C9.37859873,30.85888 9.54964968,30.7008 9.56216561,30.68416 C9.55799363,30.67584 9.44535032,30.368 9.46621019,30.18496 C9.46621019,30.17664 9.46203822,30.17664 9.45786624,30.1808 C9.3994586,30.21408 9.25761146,30.20992 9.25761146,30.0352 C9.25761146,30.02272 9.26178344,30.01856 9.27012739,30.03104 C9.33270701,30.1184 9.43700637,30.01856 9.48707006,29.96032 C9.54130573,29.89792 9.8416879,29.46528 10.2380255,29.46528 C10.3256369,29.46528 10.4382803,29.5152 10.5300637,29.5776 C10.3923885,29.744 10.5300637,29.90208 10.6301911,29.88128 C10.642707,29.87712 10.642707,29.8896 10.6343631,29.89376 C10.1086943,30.08928 9.87506369,30.16832 9.87506369,30.60928 C9.87506369,30.83808 9.95433121,30.96704 10.0878344,30.93376 C10.0961783,30.9296 10.1003503,30.93376 10.0920064,30.94208 C10.0419427,31.00032 9.98770701,31.02112 9.94181529,31.02112 C9.83334395,31.02112 9.81248408,30.96288 9.75407643,30.96288 C9.69566879,30.96288 9.49958599,31.07936 9.49958599,31.17504 C9.49958599,31.21248 9.52461783,31.2624 9.59136943,31.304 C9.5955414,31.30816 9.59136943,31.31232 9.59136943,31.31232 C9.53296178,31.31232 9.37859873,31.3248 9.34522293,31.1792 Z M10.7261465,26.9152 C10.5634395,26.90688 10.4549682,26.94016 10.4633121,26.99424 C10.5425796,27.07744 10.646879,27.06912 10.7261465,26.9152 Z M10.1212102,27.31872 C10.2380255,27.2896 10.3631847,27.30208 10.3798726,27.30624 C10.3965605,27.3104 10.3965605,27.33952 10.3757006,27.34368 C10.1337261,27.3728 10.1212102,27.48512 9.96684713,27.48512 C9.86671975,27.48512 9.75407643,27.38112 9.79579618,27.23136 C9.79996815,27.21056 9.81665605,27.21056 9.82082803,27.23136 C9.83751592,27.29792 9.93347134,27.36864 10.1212102,27.31872 Z M6.97971338,32.66848 C7.13824841,32.87232 7.29261146,32.68096 7.50538217,32.68096 C7.60968153,32.68096 7.73484076,32.71424 7.75570064,32.92224 C7.75570064,32.93472 7.76404459,32.93472 7.77656051,32.92224 C8.00601911,32.61024 7.74318471,32.43552 7.59299363,32.41056 C7.62636943,32.38144 7.84748408,32.24416 7.99350318,32.448 C8.00184713,32.46048 8.01853503,32.45632 8.01853503,32.43968 C8.01853503,32.04448 7.72232484,32.01536 7.50538217,32.18592 C7.46366242,32.032 7.58047771,31.93216 7.73066879,31.93216 C7.74735669,31.93216 7.75570064,31.91968 7.74735669,31.91136 C7.48035032,31.62848 7.28426752,31.98624 7.2383758,32.04032 C7.13407643,32.18176 6.75442675,31.91552 6.60006369,31.75744 C6.60006369,31.75744 6.93382166,31.408 6.93382166,31.08768 C6.93382166,31.06688 6.92964968,31.04192 6.92964968,31.02944 C6.92964968,31.02112 6.93382166,31.01696 6.94216561,31.02112 C6.9755414,31.04192 7.02143312,31.0544 7.06732484,31.0544 C7.14242038,31.0544 7.28843949,31.02944 7.28843949,30.75904 C7.28843949,30.73824 7.28009554,30.73824 7.27175159,30.75072 C7.23003185,30.80896 7.1883121,30.82144 7.15493631,30.82144 C6.88375796,30.82144 6.3205414,29.92288 5.65302548,29.92288 C5.47780255,29.92288 5.14821656,30.04768 4.98550955,30.22656 C5.06477707,30.27232 5.08146497,30.37216 5.07312102,30.44288 C5.0606051,30.5552 4.96882166,30.61344 4.87703822,30.6384 C4.86035032,30.64256 4.86035032,30.65504 4.87703822,30.66336 C5.21496815,30.79232 5.82407643,31.02112 5.96592357,31.14176 C6.12863057,31.2832 6.09942675,31.54944 6.00347134,31.91968 C5.9116879,32.27328 5.7156051,32.22752 5.64050955,32.21504 C5.62799363,32.21504 5.62799363,32.2192 5.63216561,32.22752 C5.71977707,32.33568 5.82407643,32.37312 5.91585987,32.37312 C6.0910828,32.37312 6.15783439,32.26496 6.24544586,32.26496 C6.39563694,32.26496 6.71687898,32.48128 6.71687898,32.64768 C6.71687898,32.7392 6.64595541,32.82656 6.55,32.8848 C6.54582803,32.88896 6.54582803,32.89728 6.55417197,32.89728 C6.62509554,32.90976 6.92130573,32.93472 6.97971338,32.66848 Z M14.3349045,32.89728 C14.3432484,32.89728 14.3474204,32.88896 14.3390764,32.8848 C14.247293,32.8224 14.1721975,32.7392 14.1721975,32.64768 C14.1721975,32.48128 14.4892675,32.26496 14.6436306,32.26496 C14.735414,32.26496 14.7979936,32.37312 14.9732166,32.37312 C15.065,32.37312 15.1692994,32.33568 15.2569108,32.22752 C15.2652548,32.2192 15.2610828,32.21088 15.2485669,32.21504 C15.1776433,32.22752 14.9773885,32.27328 14.8856051,31.91968 C14.7896497,31.54944 14.7562739,31.2832 14.9231529,31.14176 C15.060828,31.02112 15.6741083,30.79232 16.0120382,30.66336 C16.0287261,30.65504 16.0287261,30.64256 16.0120382,30.6384 C15.9202548,30.61344 15.8284713,30.5552 15.8159554,30.44288 C15.8076115,30.37216 15.8242994,30.27648 15.9035669,30.22656 C15.7366879,30.04768 15.4071019,29.92288 15.231879,29.92288 C14.5643631,29.92288 14.0011465,30.82144 13.7299682,30.82144 C13.6965924,30.82144 13.6507006,30.80896 13.6131529,30.75072 C13.6048089,30.73824 13.596465,30.73824 13.596465,30.75904 C13.596465,31.02944 13.7424841,31.0544 13.8175796,31.0544 C13.8592994,31.0544 13.9093631,31.04192 13.9427389,31.02112 C13.9510828,31.01696 13.9552548,31.02112 13.9552548,31.02944 C13.9552548,31.04192 13.9510828,31.06688 13.9510828,31.08768 C13.9510828,31.408 14.2848408,31.75744 14.2848408,31.75744 C14.1346497,31.91552 13.755,32.1776 13.6465287,32.04032 C13.6006369,31.98208 13.4045541,31.62848 13.1375478,31.91136 C13.1292038,31.92384 13.1333758,31.93216 13.1542357,31.93216 C13.3044268,31.93216 13.421242,32.032 13.3795223,32.18592 C13.1625796,32.01536 12.8663694,32.04448 12.8663694,32.43968 C12.8663694,32.45632 12.8830573,32.46048 12.8914013,32.448 C13.0332484,32.24416 13.258535,32.38144 13.2877389,32.41056 C13.1375478,32.43136 12.8788854,32.61024 13.104172,32.92224 C13.1125159,32.93472 13.1208599,32.93472 13.1250318,32.92224 C13.1500637,32.7184 13.2752229,32.68096 13.3753503,32.68096 C13.583949,32.68096 13.7383121,32.87232 13.9010191,32.66848 C13.9677707,32.93472 14.2639809,32.90976 14.3349045,32.89728 Z M8.94888535,27.70976 C8.92802548,27.73888 8.85710191,27.70976 8.83207006,27.69728 C8.82789809,27.69312 8.82372611,27.69728 8.82789809,27.70144 C8.84458599,27.73888 8.91133758,27.8512 9.01146497,27.8512 C9.05735669,27.8512 9.12410828,27.82624 9.14079618,27.79296 C9.14079618,27.79296 9.53296178,27.92192 9.72487261,27.97184 C9.64977707,28.07168 9.60388535,28.19232 9.59136943,28.32128 C9.43700637,28.2256 8.81121019,27.8928 8.81121019,27.8928 L8.61929936,28.15904 C8.58592357,28.20064 8.43156051,28.08832 8.46493631,28.04672 L8.61095541,27.84288 C8.56089172,27.79296 8.44407643,27.82208 8.41070064,27.83456 C8.40652866,27.83456 8.40235669,27.83456 8.40652866,27.82624 C8.42738854,27.78464 8.4983121,27.664 8.68187898,27.71808 C8.68187898,27.60576 8.515,27.6432 8.46910828,27.65568 C8.46493631,27.65568 8.46076433,27.65568 8.46493631,27.65152 C8.51082803,27.6016 8.64850318,27.49344 8.79869427,27.58496 L8.86544586,27.49344 L8.73194268,27.352 L8.81538217,27.23552 L8.91133758,27.36032 L9.63308917,26.3744 C9.64977707,26.34944 9.79579618,26.30784 9.84585987,26.29536 C9.85003185,26.34944 9.8583758,26.4992 9.8416879,26.52416 L9.13245223,27.5184 L9.28264331,27.56832 L9.19920382,27.6848 L9.02398089,27.6016 L8.94888535,27.70976 Z M11.4812739,27.54752 C11.4812739,27.63904 11.5355096,27.77216 11.6564968,27.73056 C11.6606688,27.7264 11.6690127,27.73056 11.6648408,27.73472 C11.6481529,27.83456 11.464586,27.92608 11.3853185,27.8096 C11.3102229,27.96352 11.3310828,28.10912 11.4854459,28.19232 C11.4937898,28.19648 11.4937898,28.20896 11.4854459,28.21728 C11.3894904,28.28384 11.2434713,28.27136 11.1767197,28.13824 C11.0473885,28.23392 11.0640764,28.44192 11.1433439,28.51264 C11.1433439,28.51264 10.7845541,28.7248 10.4591401,28.57504 C10.2421975,28.47104 10.0669745,28.33792 9.78745223,28.36288 C9.825,27.97184 10.0210828,27.872 10.3798726,27.81376 C10.6677389,27.768 10.7011146,27.63488 10.6635669,27.53504 C10.5676115,27.51008 10.3882166,27.59744 10.3882166,27.59744 C10.3548408,27.54336 10.4007325,27.48928 10.4007325,27.48928 C10.3840446,27.46848 10.3757006,27.39776 10.3757006,27.39776 C10.5759554,27.39776 10.6135032,27.352 10.6135032,27.352 C10.651051,27.144 10.4382803,27.1232 10.2755732,27.23552 C10.2004777,27.16896 10.2129936,27.0816 10.2129936,27.0816 C10.1921338,27.06912 10.1754459,27.03584 10.1754459,27.0192 C10.1754459,26.96928 10.4132484,26.83616 10.475828,26.81952 C10.4925159,26.7488 10.5759554,26.65312 10.8304459,26.67808 C10.8596497,26.61152 10.809586,26.36608 10.7803822,26.30368 C10.7720382,26.28288 10.7845541,26.27456 10.805414,26.28704 C10.8930255,26.34112 10.9806369,26.54912 11.0432166,26.55328 C11.0432166,26.55328 11.3269108,26.40352 11.3394268,26.41184 C11.3519427,26.42016 11.3936624,26.73632 11.3936624,26.73632 C11.4312102,26.78208 11.6523248,26.73632 11.7482803,26.77792 C11.7733121,26.7904 11.7733121,26.80704 11.7482803,26.8112 C11.6773567,26.82368 11.4478981,26.92352 11.4103503,26.98592 C11.5438535,27.18144 11.4812739,27.46848 11.4812739,27.54752 Z" id="Shape" fill="#FFFFFF" fill-rule="nonzero"></path>
                </g>
                <g id="Isolatiemodus">
                    <g id="Group" transform="translate(25.449045, 22.464000)" fill-rule="nonzero">
                        <path d="M2.27789809,0.30368 C2.71595541,0.30368 3.00799363,0.36192 3.23328025,0.4784 L3.18321656,1.3728 L3.00799363,1.3728 L2.98296178,1.25632 C2.87866242,0.85696 2.69092357,0.69472 2.22783439,0.69472 C1.58952229,0.69472 0.967898089,1.33952 0.967898089,2.46272 C0.967898089,3.65664 1.56866242,4.18496 2.16942675,4.18496 C2.64920382,4.18496 2.88700637,4.03104 3.02468153,3.68992 L3.09143312,3.536 L3.26665605,3.536 L3.19990446,4.3888 C2.96210191,4.50944 2.56576433,4.58848 2.07347134,4.58848 C1.13477707,4.58848 0.333757962,3.89376 0.333757962,2.55008 C0.333757962,1.19392 1.25993631,0.30368 2.27789809,0.30368 Z" id="Path" fill="#000000"></path>
                        <path d="M3.82987261,4.35136 C4.05098726,4.2848 4.20535032,4.17248 4.20535032,3.85632 L4.20535032,0.68224 L3.79649682,0.5824 L3.79649682,0.44096 C4.06350318,0.37024 4.29296178,0.33696 4.53910828,0.33696 C4.77691083,0.33696 4.96047771,0.35776 5.13987261,0.39936 L5.13987261,0.52 C4.86035032,0.59904 4.7643949,0.728 4.7643949,0.98592 L4.7643949,4.18496 L5.17324841,4.28896 L5.17324841,4.4304 C4.96047771,4.49696 4.70598726,4.53856 4.43063694,4.53856 C4.17197452,4.53856 4.00509554,4.51776 3.82987261,4.472 L3.82987261,4.35136 L3.82987261,4.35136 Z" id="Path" fill="#000000"></path>
                        <path d="M5.72812102,4.35136 C5.94923567,4.30144 6.10359873,4.16416 6.10359873,3.87296 L6.10359873,0.69888 L5.69474522,0.5616 L5.69474522,0.42016 C6.10359873,0.34112 6.37477707,0.32864 6.98805732,0.32864 C7.92675159,0.32864 8.37732484,0.66976 8.37732484,1.28128 C8.37732484,1.77216 7.93926752,2.22144 7.4344586,2.32128 L7.4344586,2.3296 C8.11449045,2.3296 8.56089172,2.704 8.56089172,3.30304 C8.56089172,4.00608 7.90171975,4.5552 6.90044586,4.5552 C6.44152866,4.5552 6.07856688,4.54272 5.72812102,4.472 L5.72812102,4.35136 L5.72812102,4.35136 Z M7.79324841,1.34784 C7.79324841,0.936 7.50955414,0.68224 6.94633758,0.68224 C6.85455414,0.68224 6.76694268,0.69056 6.65429936,0.70304 L6.65429936,2.23808 C7.35936306,2.23808 7.79324841,1.90944 7.79324841,1.34784 Z M6.99640127,4.20576 C7.51789809,4.20576 7.94761146,3.85632 7.94761146,3.36544 C7.94761146,2.82464 7.57213376,2.54592 6.86289809,2.54592 L6.65429936,2.54592 L6.65429936,4.17664 C6.78363057,4.19744 6.87541401,4.20576 6.99640127,4.20576 Z" id="Shape" fill="#000000"></path>
                        <path d="M11.130828,0.30368 C11.5814013,0.30368 11.9193312,0.36192 12.1779936,0.48256 L12.111242,1.3728 L11.9318471,1.3728 L11.9068153,1.25216 C11.8150318,0.8528 11.5647134,0.69888 11.0599045,0.69888 C10.3631847,0.69888 9.74156051,1.33536 9.74156051,2.44608 C9.74156051,3.5984 10.2714013,4.18912 10.972293,4.18912 C11.2100955,4.18912 11.468758,4.1392 11.6523248,4.06016 L11.6523248,2.808 L11.2434713,2.704 L11.2434713,2.56256 C11.5104777,2.48352 11.7149045,2.45856 11.9819108,2.45856 C12.2280573,2.45856 12.3824204,2.47104 12.5785032,2.52512 L12.5785032,2.64576 C12.3240127,2.71232 12.2030255,2.87872 12.2030255,3.09088 L12.2030255,4.5552 C11.9360191,4.5552 11.8150318,4.50528 11.7065605,4.3472 C11.5396815,4.47616 11.1850637,4.58432 10.7928981,4.58432 C9.85003185,4.58432 9.11157856,3.83136 9.11157856,2.58336 C9.10742038,1.14816 10.0502866,0.30368 11.130828,0.30368 Z" id="Path" fill="#000000"></path>
                        <path d="M0.0625796178,11.67296 C0.171050955,11.62304 0.254490446,11.55232 0.287866242,11.42752 L1.0972293,7.97888 L0.746783439,7.904 L0.746783439,7.75008 C0.91366242,7.70432 1.21821656,7.67104 1.41429936,7.67104 L1.62707006,7.67104 L2.1944586,10.74528 L2.20280255,10.74528 L3.27082803,7.67104 L3.43353503,7.67104 C3.59624204,7.67104 3.86742038,7.68352 4.05515924,7.72096 L4.05515924,7.87488 L3.7506051,7.95392 L3.90079618,11.52736 L4.25541401,11.62304 L4.25541401,11.752 C4.05933121,11.81856 3.9133121,11.84768 3.72557325,11.84768 C3.45856688,11.84768 3.30420382,11.82688 3.15818471,11.78112 L3.15818471,11.67296 C3.27917197,11.61472 3.35843949,11.53568 3.35843949,11.336 L3.32089172,8.47808 L3.31254777,8.47808 L2.13605096,11.86432 L1.93996815,11.85184 L1.30582803,8.47808 L1.29748408,8.47808 L0.675859873,11.51488 L1.04299363,11.61888 L1.04299363,11.74784 C0.863598726,11.81856 0.705063694,11.84352 0.504808917,11.84352 C0.35044586,11.84352 0.187738854,11.81856 0.0584076433,11.77696 L0.0584076433,11.67296 L0.0625796178,11.67296 Z" id="Path" fill="#1D1D1B"></path>
                        <path d="M4.78942675,10.70784 L4.99802548,9.39744 L5.03140127,9.01472 L4.64340764,8.89408 L4.64340764,8.77344 C4.85200637,8.6944 5.05643312,8.66528 5.29006369,8.66528 C5.40687898,8.66528 5.49866242,8.6736 5.58210191,8.70272 L5.29006369,10.59968 C5.26503185,10.79104 5.24,11.12384 5.24,11.29024 C5.24,11.5024 5.31926752,11.59808 5.49866242,11.65632 L5.49866242,11.76448 C5.36098726,11.82272 5.2066242,11.856 5.01471338,11.856 C4.80611465,11.856 4.70598726,11.74784 4.70598726,11.56064 C4.70181529,11.3776 4.76022293,10.96576 4.78942675,10.70784 Z M5.10232484,7.72928 C5.10232484,7.51712 5.26920382,7.32992 5.46528662,7.32992 C5.63216561,7.32992 5.76149682,7.45888 5.76149682,7.63776 C5.76149682,7.85824 5.58627389,8.03712 5.39853503,8.03712 C5.2233121,8.03712 5.10232484,7.92064 5.10232484,7.72928 Z" id="Shape" fill="#1D1D1B"></path>
                        <path d="M6.42066879,9.01888 L6.02433121,8.89824 L6.02433121,8.7776 C6.23292994,8.69856 6.42484076,8.66944 6.66681529,8.66944 C6.75025478,8.66944 6.84203822,8.68192 6.93382166,8.7152 L6.72522293,9.70112 L6.7293949,9.70112 C7.0256051,9.04384 7.45531847,8.65696 7.8933758,8.65696 C8.17707006,8.65696 8.40235669,8.85664 8.40235669,9.25184 C8.40235669,9.45984 8.34394904,9.78848 8.30640127,10.06304 L8.18958599,10.75776 C8.16872611,10.90752 8.13952229,11.15712 8.13952229,11.2944 C8.13952229,11.50656 8.24382166,11.58976 8.44407643,11.63136 L8.44407643,11.73952 C8.29388535,11.81856 8.12700637,11.86016 7.92675159,11.86016 C7.72649682,11.86016 7.60968153,11.752 7.60968153,11.5648 C7.60968153,11.40256 7.65557325,11.0864 7.68894904,10.88256 L7.80993631,10.14208 C7.8433121,9.9424 7.8766879,9.66368 7.8766879,9.48896 C7.8766879,9.19776 7.74735669,9.10208 7.59299363,9.10208 C7.23003185,9.10208 6.71270701,9.7968 6.68767516,10.71616 L6.65012739,11.80608 L6.09942675,11.80608 L6.42066879,9.01888 Z" id="Path" fill="#1D1D1B"></path>
                        <path d="M9.09073248,10.70784 L9.29933121,9.39744 L9.33270701,9.01472 L8.94471338,8.89408 L8.94471338,8.77344 C9.1533121,8.6944 9.35773885,8.66528 9.59136943,8.66528 C9.70818471,8.66528 9.79996815,8.6736 9.88340764,8.70272 L9.59136943,10.59968 C9.56633758,10.79104 9.54130573,11.12384 9.54130573,11.29024 C9.54130573,11.5024 9.62057325,11.59808 9.79996815,11.65632 L9.79996815,11.76448 C9.66229299,11.82272 9.50792994,11.856 9.31601911,11.856 C9.10742038,11.856 9.00729299,11.74784 9.00729299,11.56064 C8.99894904,11.3776 9.05735669,10.96576 9.09073248,10.70784 Z M9.3994586,7.72928 C9.3994586,7.51712 9.56633758,7.32992 9.76242038,7.32992 C9.92929936,7.32992 10.0586306,7.45888 10.0586306,7.63776 C10.0586306,7.85824 9.88340764,8.03712 9.69566879,8.03712 C9.52461783,8.03712 9.3994586,7.92064 9.3994586,7.72928 Z" id="Shape" fill="#1D1D1B"></path>
                        <path d="M10.2547134,11.24448 C10.4341083,11.4192 10.651051,11.51488 10.8888535,11.51488 C11.1934076,11.51488 11.4395541,11.34016 11.4395541,11.06976 C11.4395541,10.8576 11.3561146,10.71616 11.0390446,10.43328 L10.813758,10.22528 C10.5133758,9.95488 10.4299363,9.78016 10.4299363,9.49728 C10.4299363,9.07296 10.8387898,8.64448 11.4312102,8.64448 C11.9026433,8.64448 12.1362739,8.78592 12.1362739,8.99392 C12.1362739,9.1104 12.0903822,9.24352 12.0194586,9.33088 C11.8317197,9.13952 11.5605414,9.01472 11.3143949,9.01472 C11.0307006,9.01472 10.8805096,9.16864 10.8805096,9.37664 C10.8805096,9.56384 10.9597771,9.672 11.2810191,9.9632 L11.5271656,10.18368 C11.8358917,10.4624 11.9401911,10.6496 11.9401911,10.93248 C11.9401911,11.44 11.4228662,11.88512 10.7428344,11.88512 C10.3339809,11.88512 10.154586,11.75616 10.154586,11.51904 C10.158758,11.3984 10.1963057,11.31936 10.2547134,11.24448 Z" id="Path" fill="#1D1D1B"></path>
                        <path d="M12.7912739,9.51392 L12.8747134,9.10208 C12.7328662,9.10208 12.6494268,9.09376 12.5117516,9.08128 L12.5117516,8.99808 C12.7203503,8.70688 13.0415924,8.424 13.3836943,8.22432 L13.4796497,8.22432 L13.3711783,8.75264 L13.5589172,8.75264 C13.7383121,8.75264 13.8843312,8.74016 14.0553822,8.70688 C14.0553822,8.9856 13.9010191,9.10624 13.4921656,9.10624 L13.3127707,9.10624 L13.2042994,9.776 C13.1542357,10.08384 13.0749682,10.62048 13.0749682,10.8784 C13.0749682,11.30272 13.2877389,11.48992 13.5714331,11.48992 C13.6757325,11.48992 13.7383121,11.47744 13.8384395,11.44416 L13.8384395,11.56064 C13.7800318,11.71456 13.5464013,11.86848 13.2418471,11.86848 C12.8163057,11.86848 12.5868471,11.5856 12.5868471,11.07392 C12.5910191,10.68288 12.6911465,10.01312 12.7912739,9.51392 Z" id="Path" fill="#1D1D1B"></path>
                        <path d="M15.5197452,8.63616 C15.9661465,8.63616 16.212293,8.8608 16.212293,9.30176 C16.212293,10.06304 15.4363057,10.52896 14.6644904,10.52896 C14.6644904,11.31104 14.8730892,11.49824 15.2443949,11.49824 C15.4780255,11.49824 15.8117834,11.36096 15.9494586,11.17376 C15.9744904,11.19872 16.0120382,11.25696 16.0120382,11.32768 C16.0120382,11.63552 15.5990127,11.89344 15.0733439,11.89344 C14.5309873,11.89344 14.1555096,11.53984 14.1555096,10.77024 C14.1596815,9.32256 14.898121,8.63616 15.5197452,8.63616 Z M15.6949682,9.41824 C15.6949682,9.11456 15.5739809,8.99808 15.386242,8.99808 C15.1025478,8.99808 14.6936943,9.48896 14.6936943,10.22944 C15.2819427,10.22944 15.6949682,9.91328 15.6949682,9.41824 Z" id="Shape" fill="#1D1D1B"></path>
                        <path d="M16.9257006,9.01888 L16.5293631,8.89824 L16.5293631,8.7776 C16.7379618,8.69856 16.9298726,8.66944 17.1551592,8.66944 C17.2385987,8.66944 17.3428981,8.68192 17.4263376,8.7152 L17.2302548,9.6512 L17.2385987,9.6512 L17.5807006,9.08544 C17.7475796,8.80672 17.9228025,8.67776 18.1230573,8.67776 C18.2649045,8.67776 18.335828,8.76928 18.335828,8.91488 C18.335828,9.01888 18.3107962,9.14784 18.2649045,9.25184 C18.2023248,9.23104 18.1355732,9.22688 18.0646497,9.22688 C17.6557962,9.22688 17.2511146,9.672 17.192707,10.86592 L17.1426433,11.80608 L16.6044586,11.80608 L16.9257006,9.01888 Z" id="Path" fill="#1D1D1B"></path>
                        <path d="M18.7363376,10.70784 L18.9449363,9.39744 L18.9783121,9.01472 L18.5903185,8.89408 L18.5903185,8.77344 C18.7989172,8.6944 19.0033439,8.66528 19.2369745,8.66528 C19.3537898,8.66528 19.4455732,8.6736 19.5290127,8.70272 L19.2369745,10.59968 C19.2119427,10.79104 19.1869108,11.12384 19.1869108,11.29024 C19.1869108,11.5024 19.2661783,11.59808 19.4455732,11.65632 L19.4455732,11.76448 C19.3078981,11.82272 19.153535,11.856 18.9616242,11.856 C18.7530255,11.856 18.6528981,11.74784 18.6528981,11.56064 C18.6487261,11.3776 18.7071338,10.96576 18.7363376,10.70784 Z M19.0492357,7.72928 C19.0492357,7.51712 19.2161146,7.32992 19.4121975,7.32992 C19.5790764,7.32992 19.7084076,7.45888 19.7084076,7.63776 C19.7084076,7.85824 19.5331847,8.03712 19.3454459,8.03712 C19.1702229,8.03712 19.0492357,7.92064 19.0492357,7.72928 Z" id="Shape" fill="#1D1D1B"></path>
                        <path d="M21.3146178,8.63616 C21.7610191,8.63616 22.0071656,8.8608 22.0071656,9.30176 C22.0071656,10.06304 21.2311783,10.52896 20.4593631,10.52896 C20.4593631,11.31104 20.6679618,11.49824 21.0392675,11.49824 C21.2728981,11.49824 21.6066561,11.36096 21.7443312,11.17376 C21.7693631,11.19872 21.8069108,11.25696 21.8069108,11.32768 C21.8069108,11.63552 21.3938854,11.89344 20.8682166,11.89344 C20.3258599,11.89344 19.9503822,11.53984 19.9503822,10.77024 C19.9545541,9.32256 20.6929936,8.63616 21.3146178,8.63616 Z M21.4898408,9.41824 C21.4898408,9.11456 21.3688535,8.99808 21.1811146,8.99808 C20.8974204,8.99808 20.4885669,9.48896 20.4885669,10.22944 C21.0768153,10.22944 21.4898408,9.91328 21.4898408,9.41824 Z" id="Shape" fill="#1D1D1B"></path>
                        <path d="M23.4590127,9.0064 L23.1794904,8.89824 L23.1794904,8.76096 C23.3797452,8.69024 23.5299363,8.66528 23.7093312,8.66528 C23.8011146,8.66528 23.8887261,8.67776 23.9763376,8.70272 L24.1181847,11.34016 L24.1223567,11.34016 C24.5937898,10.75776 24.9358917,9.87584 24.9358917,9.21024 C24.9358917,9.03552 24.8524522,8.93152 24.6980892,8.85664 L24.6980892,8.75264 C24.8065605,8.6944 24.9358917,8.65696 25.0985987,8.65696 C25.3071975,8.65696 25.4490446,8.76512 25.4490446,9.04384 C25.4490446,9.70944 24.8232484,11.06976 24.1932803,11.6688 C24.072293,11.77696 23.9679936,11.84768 23.8511783,11.90592 L23.7218471,11.90592 L23.4590127,9.0064 Z" id="Path" fill="#1D1D1B"></path>
                        <path d="M25.6659873,10.7536 C25.6659873,9.42656 26.4294586,8.65696 27.3097452,8.65696 C27.5183439,8.65696 27.8145541,8.70272 28.0273248,8.76096 L27.8020382,9.88832 C27.7227707,10.22528 27.6601911,10.82432 27.6518471,11.09888 C27.6518471,11.51072 27.7352866,11.58976 27.9605732,11.62304 L27.9605732,11.76032 C27.7936943,11.81856 27.5850955,11.856 27.3848408,11.856 C27.2805414,11.856 27.1971019,11.8352 27.1136624,11.81024 L27.2638535,10.84928 L27.2555096,10.84928 C27.0010191,11.48992 26.5963376,11.88928 26.2542357,11.88928 C25.9496815,11.88928 25.6659873,11.49408 25.6659873,10.7536 Z M27.2888854,10.12544 L27.4682803,9.05632 C27.3764968,9.03136 27.2304777,9.01888 27.1303503,9.01888 C26.6046815,9.01888 26.1582803,9.568 26.1582803,10.66208 C26.1582803,11.2112 26.3251592,11.44416 26.4795223,11.44416 C26.7673885,11.44416 27.1386943,11.01152 27.2888854,10.12544 Z" id="Shape" fill="#1D1D1B"></path>
                        <path d="M28.8450318,9.01888 L28.4486943,8.89824 L28.4486943,8.7776 C28.657293,8.69856 28.8492038,8.66944 29.0911783,8.66944 C29.1746178,8.66944 29.2664013,8.68192 29.3540127,8.7152 L29.145414,9.70112 L29.153758,9.70112 C29.4499682,9.04384 29.8796815,8.65696 30.3177389,8.65696 C30.6014331,8.65696 30.8267197,8.85664 30.8267197,9.25184 C30.8267197,9.45984 30.7683121,9.78848 30.7307643,10.06304 L30.613949,10.75776 C30.5930892,10.90752 30.5638854,11.15712 30.5638854,11.2944 C30.5638854,11.50656 30.6681847,11.58976 30.8684395,11.63136 L30.8684395,11.73952 C30.7182484,11.81856 30.5513694,11.86016 30.3511146,11.86016 C30.1508599,11.86016 30.0340446,11.752 30.0340446,11.5648 C30.0340446,11.40256 30.0799363,11.0864 30.1133121,10.88256 L30.2342994,10.14208 C30.2676752,9.9424 30.296879,9.66368 30.296879,9.48896 C30.296879,9.19776 30.1675478,9.10208 30.0131847,9.10208 C29.6502229,9.10208 29.1328981,9.7968 29.1078662,10.71616 L29.0703185,11.80608 L28.5196178,11.80608 L28.8450318,9.01888 Z" id="Path" fill="#1D1D1B"></path>
                        <path d="M32.6540446,7.99136 L32.3494904,7.8832 L32.3494904,7.75424 C32.5455732,7.68352 32.7041083,7.65856 32.8918471,7.65856 C33.079586,7.65856 33.2214331,7.67936 33.3841401,7.72512 L33.3841401,7.83328 C33.2756688,7.86656 33.2172611,7.94144 33.2214331,8.02048 L33.5969108,11.16128 L33.6052548,11.16128 L34.7483758,7.9872 L34.3979299,7.8832 L34.3979299,7.75424 C34.5981847,7.69184 34.7984395,7.65856 35.0237261,7.65856 C35.1447134,7.65856 35.2865605,7.67936 35.3992038,7.72512 L35.3992038,7.83328 C35.2907325,7.86656 35.211465,7.9248 35.1739172,8.02048 L33.6678344,11.84352 L33.2297771,11.86432 L32.6540446,7.99136 Z" id="Path" fill="#1D1D1B"></path>
                        <path d="M36.5798726,8.632 C37.1055414,8.632 37.4768471,8.97312 37.4768471,9.70944 C37.4768471,11.07808 36.7258917,11.88096 36.0875796,11.88096 C35.5827707,11.88096 35.1614013,11.49408 35.1614013,10.7328 C35.1655732,9.37248 35.8706369,8.632 36.5798726,8.632 Z M36.9511783,9.8384 C36.9511783,9.26432 36.7384076,9.0064 36.4547134,9.0064 C36.1042675,9.0064 35.6787261,9.60128 35.6787261,10.50816 C35.6787261,11.24448 35.9248726,11.51904 36.2085669,11.51904 C36.517293,11.51904 36.9511783,10.98656 36.9511783,9.8384 Z" id="Shape" fill="#1D1D1B"></path>
                        <path d="M38.0400637,10.70784 L38.4906369,7.5088 L38.0817834,7.38816 L38.0817834,7.26752 C38.2903822,7.1968 38.482293,7.16352 38.7284395,7.16352 C38.8369108,7.16352 38.9495541,7.176 39.0246497,7.20096 L38.5407006,10.57888 C38.5073248,10.78688 38.4906369,11.09472 38.4906369,11.29024 C38.4906369,11.5024 38.5949363,11.59808 38.7826752,11.65632 L38.7826752,11.76448 C38.645,11.82272 38.478121,11.856 38.2862102,11.856 C38.0734395,11.856 37.9607962,11.74784 37.9607962,11.55232 C37.9607962,11.37344 38.0066879,10.95328 38.0400637,10.70784 Z" id="Path" fill="#1D1D1B"></path>
                        <path d="M39.5795223,10.11296 L39.8465287,7.5088 L39.4460191,7.38816 L39.4460191,7.26752 C39.6462739,7.1968 39.8423567,7.16352 40.1051911,7.16352 C40.2094904,7.16352 40.3137898,7.176 40.3972293,7.20096 L40.0217516,10.03392 L40.0300955,10.03392 L40.3930573,9.75104 C40.6642357,9.53888 41.0021656,9.02304 41.098121,8.62368 C41.4151911,8.62368 41.5320064,8.70688 41.5320064,8.83584 C41.5320064,9.08128 41.1231529,9.55968 40.6475478,9.88 L40.3680255,10.07136 L41.1815605,11.3152 C41.2900318,11.47744 41.4151911,11.58144 41.6029299,11.66464 L41.6029299,11.7728 C41.4819427,11.84352 41.3776433,11.86848 41.2024204,11.86848 C41.0105096,11.86848 40.8352866,11.7728 40.6642357,11.4608 L39.9967197,10.2336 L39.9883758,10.2336 L39.8799045,11.7936 L39.3250318,11.7936 L39.5795223,10.11296 Z" id="Path" fill="#1D1D1B"></path>
                        <path d="M41.8615924,11.24448 C42.0409873,11.4192 42.2579299,11.51488 42.4957325,11.51488 C42.8002866,11.51488 43.0464331,11.34016 43.0464331,11.06976 C43.0464331,10.8576 42.9629936,10.71616 42.6459236,10.43328 L42.4206369,10.22528 C42.1244268,9.95488 42.0409873,9.78016 42.0409873,9.49728 C42.0409873,9.07296 42.4498408,8.64448 43.0422611,8.64448 C43.5136943,8.64448 43.7473248,8.78592 43.7473248,8.99392 C43.7473248,9.1104 43.7014331,9.24352 43.6305096,9.33088 C43.4427707,9.13952 43.1715924,9.01472 42.9254459,9.01472 C42.6417516,9.01472 42.4915605,9.16864 42.4915605,9.37664 C42.4915605,9.56384 42.570828,9.672 42.8920701,9.9632 L43.1382166,10.18368 C43.4469427,10.4624 43.551242,10.6496 43.551242,10.93248 C43.551242,11.44 43.0339172,11.88512 42.3538854,11.88512 C41.9450318,11.88512 41.7656369,11.75616 41.7656369,11.51904 C41.7656369,11.3984 41.8031847,11.31936 41.8615924,11.24448 Z" id="Path" fill="#1D1D1B"></path>
                        <path d="M43.9726115,12.6672 C43.9726115,12.9168 44.1728662,13.09152 44.535828,13.09152 C45.0072611,13.09152 45.3827389,12.74208 45.4745223,11.99328 L45.5955096,10.8576 L45.5871656,10.8576 C45.3410191,11.46912 44.9279936,11.8768 44.5858917,11.8768 C44.3021975,11.8768 43.9976433,11.51072 43.9976433,10.72864 C43.9976433,9.48896 44.7277389,8.6528 45.6080255,8.6528 C45.8583439,8.6528 46.1378662,8.69856 46.3589809,8.7568 L46.1044904,9.99648 C46.0460828,10.30432 46.008535,10.96576 46.008535,11.29856 C46.008535,12.76704 45.2826115,13.3952 44.4315287,13.3952 C43.8474522,13.3952 43.5053503,13.1456 43.5053503,12.80032 C43.5053503,12.49248 43.8224204,12.24704 44.1436624,12.24704 C44.0185032,12.38432 43.9726115,12.51328 43.9726115,12.6672 Z M45.6288854,10.08384 L45.7790764,9.05216 C45.6747771,9.0272 45.5663057,9.01888 45.4536624,9.01888 C44.9571975,9.01888 44.4982803,9.55552 44.4982803,10.66208 C44.4982803,11.21536 44.6651592,11.44416 44.8278662,11.44416 C45.0990446,11.44416 45.4995541,11.01152 45.6288854,10.08384 Z" id="Shape" fill="#1D1D1B"></path>
                        <path d="M48.0820064,8.63616 C48.5284076,8.63616 48.7745541,8.8608 48.7745541,9.30176 C48.7745541,10.06304 47.9985669,10.52896 47.2267516,10.52896 C47.2267516,11.31104 47.4353503,11.49824 47.8066561,11.49824 C48.0402866,11.49824 48.3740446,11.36096 48.5117197,11.17376 C48.5367516,11.19872 48.5742994,11.25696 48.5742994,11.32768 C48.5742994,11.63552 48.1612739,11.89344 47.6356051,11.89344 C47.0932484,11.89344 46.7177707,11.53984 46.7177707,10.77024 C46.7219427,9.32256 47.4603822,8.63616 48.0820064,8.63616 Z M48.2572293,9.41824 C48.2572293,9.11456 48.136242,8.99808 47.9485032,8.99808 C47.6648089,8.99808 47.2559554,9.48896 47.2559554,10.22944 C47.8400318,10.22944 48.2572293,9.91328 48.2572293,9.41824 Z" id="Shape" fill="#1D1D1B"></path>
                        <path d="M50.4975796,9.14784 L49.8050318,9.14784 C49.5213376,9.14784 49.3794904,9.21856 49.3210828,9.34752 L49.2710191,9.45568 L49.120828,9.43072 C49.120828,8.98144 49.3294268,8.68192 49.6757006,8.68192 C50.1346178,8.68192 50.4850637,8.72768 50.6519427,8.72768 C50.8146497,8.72768 50.9898726,8.7152 51.1609236,8.69024 C50.6352548,9.68448 50.101242,10.50816 49.4712739,11.3984 L50.2931529,11.3984 C50.6435987,11.3984 50.764586,11.34016 50.8313376,11.20288 L50.8980892,11.0656 L51.0274204,11.07808 C51.0274204,11.6272 50.8146497,11.87264 50.3348726,11.87264 C50.0511783,11.87264 49.5004777,11.80608 49.2501592,11.80608 C49.0999682,11.80608 48.8997134,11.81856 48.7703822,11.84352 L50.4975796,9.14784 Z" id="Path" fill="#1D1D1B"></path>
                        <path d="M52.7879936,8.632 C53.3136624,8.632 53.6849682,8.97312 53.6849682,9.70944 C53.6849682,11.07808 52.9340127,11.88096 52.2957006,11.88096 C51.7908917,11.88096 51.3695223,11.49408 51.3695223,10.7328 C51.3695223,9.37248 52.074586,8.632 52.7879936,8.632 Z M53.1551274,9.8384 C53.1551274,9.26432 52.9423567,9.0064 52.6586624,9.0064 C52.3082166,9.0064 51.8826752,9.60128 51.8826752,10.50816 C51.8826752,11.24448 52.1288217,11.51904 52.4125159,11.51904 C52.721242,11.51904 53.1551274,10.98656 53.1551274,9.8384 Z" id="Shape" fill="#1D1D1B"></path>
                        <path d="M54.4859873,9.01888 L54.0896497,8.89824 L54.0896497,8.7776 C54.2982484,8.69856 54.4901592,8.66944 54.7321338,8.66944 C54.8155732,8.66944 54.9073567,8.68192 54.9991401,8.7152 L54.7905414,9.70112 L54.7947134,9.70112 C55.0909236,9.04384 55.5206369,8.65696 55.9586943,8.65696 C56.2423885,8.65696 56.4676752,8.85664 56.4676752,9.25184 C56.4676752,9.45984 56.4092675,9.78848 56.3717197,10.06304 L56.2549045,10.75776 C56.2340446,10.90752 56.2048408,11.15712 56.2048408,11.2944 C56.2048408,11.50656 56.3091401,11.58976 56.5093949,11.63136 L56.5093949,11.73952 C56.3592038,11.81856 56.1923248,11.86016 55.9920701,11.86016 C55.7918153,11.86016 55.675,11.752 55.675,11.5648 C55.675,11.40256 55.7208917,11.0864 55.7542675,10.88256 L55.8752548,10.14208 C55.9086306,9.9424 55.9420064,9.66368 55.9420064,9.48896 C55.9420064,9.19776 55.8126752,9.10208 55.6583121,9.10208 C55.2953503,9.10208 54.7780255,9.7968 54.7529936,10.71616 L54.7154459,11.80608 L54.1647452,11.80608 L54.4859873,9.01888 Z" id="Path" fill="#1D1D1B"></path>
                        <path d="M56.9724841,10.7536 C56.9724841,9.45568 57.7150955,8.65696 58.5828662,8.65696 C58.6621338,8.65696 58.7580892,8.66528 58.8290127,8.66944 L59.0167516,7.5088 L58.5912102,7.38816 L58.5912102,7.26752 C58.791465,7.1968 59.0000637,7.16352 59.275414,7.16352 C59.3838854,7.16352 59.4881847,7.176 59.5716242,7.20096 L59.1001911,9.87168 C59.0542994,10.14208 58.9583439,10.8576 58.9583439,11.10304 C58.9583439,11.5232 59.0501274,11.59392 59.2670701,11.6272 L59.2670701,11.76448 C59.0668153,11.82688 58.9041083,11.86016 58.6913376,11.86016 C58.5828662,11.86016 58.4994268,11.83936 58.4201592,11.8144 L58.5828662,10.84096 L58.5745223,10.84096 C58.3367197,11.44 57.9278662,11.89344 57.5607325,11.89344 C57.2686943,11.88928 56.9724841,11.50656 56.9724841,10.7536 Z M58.5953822,10.12128 L58.7747771,9.05216 C58.6913376,9.03136 58.5661783,9.01888 58.466051,9.01888 C57.9278662,9.01888 57.468949,9.52224 57.468949,10.66208 C57.468949,11.19872 57.6233121,11.44416 57.7901911,11.44416 C58.0530255,11.44416 58.457707,11.024 58.5953822,10.12128 Z" id="Shape" fill="#1D1D1B"></path>
                        <path d="M60.1348408,9.70112 L60.3476115,7.5088 L59.9471019,7.38816 L59.9471019,7.26752 C60.1557006,7.1968 60.3851592,7.16352 60.6062739,7.16352 C60.7147452,7.16352 60.8190446,7.176 60.9024841,7.20096 L60.5603822,9.55968 L60.5645541,9.55968 C60.8315605,9.0064 61.2320701,8.64864 61.6534395,8.64864 C61.9705096,8.64864 62.1624204,8.88576 62.1624204,9.24352 C62.1624204,9.45568 62.1123567,9.78432 62.066465,10.05472 L61.9496497,10.7328 C61.9246178,10.88672 61.899586,11.15296 61.899586,11.28608 C61.899586,11.49824 61.9955414,11.58144 62.2041401,11.62304 L62.2041401,11.7312 C62.053949,11.81024 61.8870701,11.85184 61.6868153,11.85184 C61.4865605,11.85184 61.3697452,11.74368 61.3697452,11.55648 C61.3697452,11.39424 61.4198089,11.06144 61.4531847,10.84512 L61.57,10.1296 C61.6033758,9.93824 61.6367516,9.62624 61.6367516,9.47648 C61.6367516,9.1936 61.5157643,9.0896 61.3447134,9.0896 C61.0192994,9.0896 60.5478662,9.63872 60.4852866,10.56224 L60.4060191,11.7936 L59.8636624,11.7936 L60.1348408,9.70112 Z" id="Path" fill="#1D1D1B"></path>
                        <path d="M64.0439809,8.63616 C64.4903822,8.63616 64.7365287,8.8608 64.7365287,9.30176 C64.7365287,10.06304 63.9605414,10.52896 63.1887261,10.52896 C63.1887261,11.31104 63.3973248,11.49824 63.7728025,11.49824 C64.0064331,11.49824 64.3401911,11.36096 64.4778662,11.17376 C64.5028981,11.19872 64.5404459,11.25696 64.5404459,11.32768 C64.5404459,11.63552 64.1274204,11.89344 63.6017516,11.89344 C63.0593949,11.89344 62.6839172,11.53984 62.6839172,10.77024 C62.6839172,9.32256 63.4223567,8.63616 64.0439809,8.63616 Z M64.2150318,9.41824 C64.2150318,9.11456 64.0940446,8.99808 63.9063057,8.99808 C63.6226115,8.99808 63.213758,9.48896 63.213758,10.22944 C63.8020064,10.22944 64.2150318,9.91328 64.2150318,9.41824 Z" id="Shape" fill="#1D1D1B"></path>
                        <path d="M65.2163057,10.70784 L65.4249045,9.39744 L65.4582803,9.01472 L65.0702866,8.89408 L65.0702866,8.77344 C65.2788854,8.6944 65.4833121,8.66528 65.7169427,8.66528 C65.833758,8.66528 65.9255414,8.6736 66.0089809,8.70272 L65.7169427,10.59968 C65.6919108,10.79104 65.666879,11.12384 65.666879,11.29024 C65.666879,11.5024 65.7461465,11.59808 65.9255414,11.65632 L65.9255414,11.76448 C65.7878662,11.82272 65.6335032,11.856 65.4415924,11.856 C65.2329936,11.856 65.1328662,11.74784 65.1328662,11.56064 C65.1245223,11.3776 65.1829299,10.96576 65.2163057,10.70784 Z M65.5250318,7.72928 C65.5250318,7.51712 65.6919108,7.32992 65.8879936,7.32992 C66.0548726,7.32992 66.1842038,7.45888 66.1842038,7.63776 C66.1842038,7.85824 66.0089809,8.03712 65.821242,8.03712 C65.6501911,8.03712 65.5250318,7.92064 65.5250318,7.72928 Z" id="Shape" fill="#1D1D1B"></path>
                        <path d="M66.4136624,10.7536 C66.4136624,9.45568 67.1562739,8.65696 68.0240446,8.65696 C68.1033121,8.65696 68.1992675,8.66528 68.2701911,8.66944 L68.4579299,7.5088 L68.0323885,7.38816 L68.0323885,7.26752 C68.2326433,7.1968 68.441242,7.16352 68.7165924,7.16352 C68.8250637,7.16352 68.9293631,7.176 69.0128025,7.20096 L68.5413694,9.87168 C68.4954777,10.14208 68.3995223,10.8576 68.3995223,11.10304 C68.3995223,11.5232 68.4913057,11.59392 68.7082484,11.6272 L68.7082484,11.76448 C68.5079936,11.82688 68.3452866,11.86016 68.1325159,11.86016 C68.0240446,11.86016 67.9406051,11.83936 67.8613376,11.8144 L68.0240446,10.84096 L68.0157006,10.84096 C67.7778981,11.44 67.3690446,11.89344 67.0019108,11.89344 C66.7098726,11.88928 66.4136624,11.50656 66.4136624,10.7536 Z M68.0365605,10.12128 L68.2159554,9.05216 C68.1325159,9.03136 68.0073567,9.01888 67.9072293,9.01888 C67.3690446,9.01888 66.9101274,9.52224 66.9101274,10.66208 C66.9101274,11.19872 67.0644904,11.44416 67.2313694,11.44416 C67.4942038,11.44416 67.8988854,11.024 68.0365605,10.12128 Z" id="Shape" fill="#1D1D1B"></path>
                        <path d="M69.6761465,11.09888 C69.8513694,11.09888 70.0057325,11.24032 70.0057325,11.49408 C70.0057325,11.98912 69.5259554,12.55072 69.1838535,12.63392 L69.0044586,12.59648 C69.2881529,12.31776 69.4884076,11.9184 69.4884076,11.64384 L69.2506051,11.37344 C69.3632484,11.2112 69.5342994,11.09888 69.6761465,11.09888 Z" id="Path" fill="#1D1D1B"></path>
                        <path d="M0.538184713,15.31296 L0.208598726,15.2048 L0.208598726,15.07584 C0.400509554,15.00512 0.575732484,14.98016 0.759299363,14.98016 C0.947038217,14.98016 1.10140127,14.99264 1.26828025,15.04672 L1.26828025,15.15488 C1.15980892,15.18816 1.10140127,15.27136 1.10557325,15.34208 L1.41012739,18.33312 L1.41847134,18.33312 L2.46563694,15.02592 L3.0622293,14.99264 L3.32089172,18.4496 L3.32923567,18.4496 L4.32633758,15.3088 L3.98423567,15.2048 L3.98423567,15.07584 C4.18031847,15.01344 4.38474522,14.98016 4.60585987,14.98016 C4.73519108,14.98016 4.86452229,15.00096 4.98133758,15.04672 L4.98133758,15.15488 C4.87286624,15.18816 4.78525478,15.25056 4.75605096,15.34208 L3.38347134,19.16512 L2.92455414,19.18592 L2.62834395,15.55424 L2.62,15.55424 L1.4893949,19.16512 L1.05550955,19.18592 L0.538184713,15.31296 Z" id="Path" fill="#1D1D1B"></path>
                        <path d="M6.1077707,15.95776 C6.55417197,15.95776 6.80031847,16.1824 6.80031847,16.62336 C6.80031847,17.38464 6.02433121,17.85056 5.25251592,17.85056 C5.25251592,18.63264 5.46111465,18.81984 5.83659236,18.81984 C6.07022293,18.81984 6.40398089,18.68256 6.54165605,18.49536 C6.5666879,18.52032 6.60423567,18.57856 6.60423567,18.64928 C6.60423567,18.95712 6.19121019,19.21504 5.6655414,19.21504 C5.12318471,19.21504 4.74770701,18.86144 4.74770701,18.09184 C4.74770701,16.64416 5.4861465,15.95776 6.1077707,15.95776 Z M6.27882166,16.73984 C6.27882166,16.43616 6.15783439,16.31968 5.97009554,16.31968 C5.68640127,16.31968 5.27754777,16.81056 5.27754777,17.55104 C5.86579618,17.55104 6.27882166,17.23488 6.27882166,16.73984 Z" id="Shape" fill="#1D1D1B"></path>
                        <path d="M7.22585987,18.02944 L7.67643312,14.8304 L7.26757962,14.70976 L7.26757962,14.58912 C7.47617834,14.5184 7.66808917,14.48512 7.91423567,14.48512 C8.02270701,14.48512 8.13535032,14.4976 8.21044586,14.52256 L7.72649682,17.90048 C7.69312102,18.10848 7.67643312,18.41632 7.67643312,18.61184 C7.67643312,18.824 7.78073248,18.91968 7.96847134,18.97792 L7.96847134,19.08608 C7.83079618,19.14432 7.6639172,19.1776 7.47200637,19.1776 C7.25923567,19.1776 7.14659236,19.06944 7.14659236,18.87392 C7.14659236,18.69504 7.19248408,18.27488 7.22585987,18.02944 Z" id="Path" fill="#1D1D1B"></path>
                        <path d="M9.98770701,16.46944 L9.29515924,16.46944 C9.01146497,16.46944 8.86961783,16.54016 8.81121019,16.66912 L8.7611465,16.77728 L8.61095541,16.75232 C8.61095541,16.30304 8.81955414,16.00352 9.16582803,16.00352 C9.62474522,16.00352 9.97519108,16.04928 10.1420701,16.04928 C10.3047771,16.04928 10.48,16.0368 10.651051,16.01184 C10.1295541,17.00192 9.5955414,17.82976 8.96557325,18.72 L9.78745223,18.72 C10.1378981,18.72 10.2588854,18.66176 10.3256369,18.52448 L10.3923885,18.3872 L10.5217197,18.39968 C10.5217197,18.9488 10.308949,19.19424 9.82917197,19.19424 C9.54547771,19.19424 8.99477707,19.12768 8.7444586,19.12768 C8.59426752,19.12768 8.39401274,19.14016 8.26468153,19.16512 L9.98770701,16.46944 Z" id="Path" fill="#1D1D1B"></path>
                        <path d="M11.0974522,18.02944 L11.306051,16.71904 L11.3394268,16.33632 L10.9514331,16.21568 L10.9514331,16.09504 C11.1600318,16.016 11.3644586,15.98688 11.5980892,15.98688 C11.7149045,15.98688 11.8066879,15.9952 11.8901274,16.02432 L11.5980892,17.92128 C11.5730573,18.11264 11.5480255,18.44544 11.5480255,18.61184 C11.5480255,18.824 11.627293,18.91968 11.8066879,18.97792 L11.8066879,19.08608 C11.6690127,19.14432 11.5146497,19.1776 11.3227389,19.1776 C11.1141401,19.1776 11.0140127,19.06944 11.0140127,18.88224 C11.0056688,18.6992 11.0640764,18.28736 11.0974522,18.02944 Z M11.4103503,15.05088 C11.4103503,14.83872 11.5772293,14.65152 11.7733121,14.65152 C11.9401911,14.65152 12.0695223,14.78048 12.0695223,14.95936 C12.0695223,15.17984 11.8942994,15.35872 11.7065605,15.35872 C11.5313376,15.35872 11.4103503,15.24224 11.4103503,15.05088 Z" id="Shape" fill="#1D1D1B"></path>
                        <path d="M12.6911465,16.72736 L12.7120064,16.34048 L12.3156688,16.21984 L12.3156688,16.0992 C12.5242675,16.02016 12.7370382,15.99104 12.9539809,15.99104 C13.0582803,15.99104 13.1625796,16.00352 13.2460191,16.02848 L12.8329936,19.5104 C12.7245223,20.38816 12.3615605,20.7168 11.9318471,20.7168 C11.7649682,20.7168 11.5688854,20.64608 11.4854459,20.54208 L11.4854459,20.4256 C11.9109873,20.4256 12.2530892,20.18016 12.3323567,19.53536 L12.6911465,16.72736 Z M12.770414,15.05088 C12.770414,14.83872 12.937293,14.65152 13.1333758,14.65152 C13.2960828,14.65152 13.429586,14.78048 13.429586,14.95936 C13.429586,15.17984 13.2543631,15.35872 13.0666242,15.35872 C12.8914013,15.35872 12.770414,15.24224 12.770414,15.05088 Z" id="Shape" fill="#1D1D1B"></path>
                        <path d="M14.0971019,16.34048 L13.7007643,16.21984 L13.7007643,16.0992 C13.9093631,16.02016 14.1012739,15.99104 14.3432484,15.99104 C14.4266879,15.99104 14.5184713,16.00352 14.6102548,16.0368 L14.4016561,17.02272 L14.405828,17.02272 C14.7020382,16.36544 15.1317516,15.97856 15.5698089,15.97856 C15.8535032,15.97856 16.0787898,16.17824 16.0787898,16.57344 C16.0787898,16.78144 16.0203822,17.11008 15.9828344,17.38464 L15.8660191,18.07936 C15.8451592,18.22912 15.8159554,18.47872 15.8159554,18.616 C15.8159554,18.82816 15.9202548,18.91136 16.1205096,18.95296 L16.1205096,19.06112 C15.9703185,19.14016 15.8034395,19.18176 15.6031847,19.18176 C15.4029299,19.18176 15.2861146,19.0736 15.2861146,18.8864 C15.2861146,18.72416 15.3320064,18.408 15.3653822,18.20416 L15.4863694,17.46368 C15.5197452,17.264 15.553121,16.98528 15.553121,16.81056 C15.553121,16.51936 15.4237898,16.42368 15.2694268,16.42368 C14.906465,16.42368 14.3891401,17.1184 14.3641083,18.03776 L14.3265605,19.12768 L13.7758599,19.12768 L14.0971019,16.34048 Z" id="Path" fill="#1D1D1B"></path>
                        <path d="M19.0200318,15.95776 C19.4664331,15.95776 19.7125796,16.1824 19.7125796,16.62336 C19.7125796,17.38464 18.9365924,17.85056 18.1647771,17.85056 C18.1647771,18.63264 18.3733758,18.81984 18.7488535,18.81984 C18.9824841,18.81984 19.316242,18.68256 19.4539172,18.49536 C19.478949,18.52032 19.5164968,18.57856 19.5164968,18.64928 C19.5164968,18.95712 19.1034713,19.21504 18.5778025,19.21504 C18.0354459,19.21504 17.6599682,18.86144 17.6599682,18.09184 C17.6599682,16.64416 18.3984076,15.95776 19.0200318,15.95776 Z M19.1952548,16.73984 C19.1952548,16.43616 19.0742675,16.31968 18.8865287,16.31968 C18.6028344,16.31968 18.1939809,16.81056 18.1939809,17.55104 C18.7822293,17.55104 19.1952548,17.23488 19.1952548,16.73984 Z" id="Shape" fill="#1D1D1B"></path>
                        <path d="M20.4301592,16.34048 L20.0338217,16.21984 L20.0338217,16.0992 C20.2424204,16.02016 20.4343312,15.99104 20.6763057,15.99104 C20.7597452,15.99104 20.8515287,16.00352 20.9433121,16.0368 L20.7347134,17.02272 L20.7388854,17.02272 C21.0350955,16.36544 21.4648089,15.97856 21.9028662,15.97856 C22.1865605,15.97856 22.4118471,16.17824 22.4118471,16.57344 C22.4118471,16.78144 22.3534395,17.11008 22.3158917,17.38464 L22.1990764,18.07936 C22.1782166,18.22912 22.1490127,18.47872 22.1490127,18.616 C22.1490127,18.82816 22.2533121,18.91136 22.4535669,18.95296 L22.4535669,19.06112 C22.3033758,19.14016 22.1364968,19.18176 21.936242,19.18176 C21.7359873,19.18176 21.619172,19.0736 21.619172,18.8864 C21.619172,18.72416 21.6650637,18.408 21.6984395,18.20416 L21.8194268,17.46368 C21.8528025,17.264 21.8861783,16.98528 21.8861783,16.81056 C21.8861783,16.51936 21.7568471,16.42368 21.6024841,16.42368 C21.2395223,16.42368 20.7221975,17.1184 20.6971656,18.03776 L20.6596178,19.12768 L20.1089172,19.12768 L20.4301592,16.34048 Z" id="Path" fill="#1D1D1B"></path>
                        <path d="M23.901242,18.22912 L24.1140127,18.22912 L24.1348726,18.37056 C24.1932803,18.73664 24.3601592,18.84896 24.7898726,18.84896 C25.2279299,18.84896 25.5783758,18.59104 25.5783758,18.18336 C25.5783758,17.91296 25.4699045,17.71328 25.0276752,17.29312 L24.6021338,16.88544 C24.3059236,16.60256 24.2057962,16.3904 24.2057962,16.07424 C24.2057962,15.4752 24.7439809,14.95936 25.4740764,14.95936 C25.8412102,14.95936 26.0998726,15.00928 26.3084713,15.11328 L26.2292038,15.92032 L26.041465,15.92032 L26.028949,15.80384 C25.9914013,15.46688 25.8036624,15.31296 25.4156688,15.31296 C24.9650955,15.31296 24.7022611,15.58336 24.7022611,15.94528 C24.7022611,16.17824 24.7815287,16.31136 25.0902548,16.59008 L25.5157962,16.9728 C25.9747134,17.38048 26.1165605,17.6384 26.1165605,17.98368 C26.1165605,18.69504 25.4365287,19.20256 24.7147771,19.20256 C24.3768471,19.20256 24.0556051,19.15264 23.8219745,19.06112 L23.901242,18.22912 Z" id="Path" fill="#1D1D1B"></path>
                        <path d="M27.013535,19.98464 C26.9759873,20.34656 27.0594268,20.46304 27.2388217,20.51296 L27.2388217,20.62112 C27.0719427,20.67936 26.9300955,20.70016 26.7340127,20.70016 C26.6255414,20.70016 26.5003822,20.68768 26.4085987,20.66272 L26.525414,20.12192 L27.0302229,16.33632 L26.6338854,16.21568 L26.6338854,16.09504 C26.8424841,16.02432 27.0594268,15.99104 27.2763694,15.99104 C27.3598089,15.99104 27.4557643,16.00352 27.5350318,16.02848 L27.3681529,17.02272 L27.3764968,17.02272 C27.5976115,16.3904 28.0231529,15.95776 28.3527389,15.95776 C28.661465,15.95776 28.9493312,16.3072 28.9493312,17.02688 C28.9493312,18.45792 28.1942038,19.17344 27.5392038,19.17344 C27.3639809,19.17344 27.2555096,19.14848 27.1053185,19.06528 L27.013535,19.98464 Z M27.5308599,18.84896 C27.9814331,18.84896 28.4486943,18.31232 28.4486943,17.23488 C28.4486943,16.60256 28.2943312,16.39456 28.1232803,16.39456 C27.8562739,16.39456 27.4307325,16.90208 27.3097452,17.8256 L27.1595541,18.80736 C27.2930573,18.84064 27.4140446,18.84896 27.5308599,18.84896 Z" id="Shape" fill="#1D1D1B"></path>
                        <path d="M30.7975159,15.9536 C31.3231847,15.9536 31.6944904,16.29472 31.6944904,17.03104 C31.6944904,18.39968 30.943535,19.20256 30.3052229,19.20256 C29.800414,19.20256 29.3790446,18.81568 29.3790446,18.0544 C29.3832166,16.69408 30.0882803,15.9536 30.7975159,15.9536 Z M31.1688217,17.16 C31.1688217,16.58592 30.956051,16.328 30.6723567,16.328 C30.3219108,16.328 29.8963694,16.92288 29.8963694,17.82976 C29.8963694,18.56608 30.1425159,18.84064 30.4262102,18.84064 C30.7349363,18.84064 31.1688217,18.30816 31.1688217,17.16 Z" id="Shape" fill="#1D1D1B"></path>
                        <path d="M32.4955096,16.34048 L32.099172,16.21984 L32.099172,16.0992 C32.3077707,16.02016 32.4996815,15.99104 32.7249682,15.99104 C32.8084076,15.99104 32.912707,16.00352 32.9961465,16.0368 L32.8042357,16.9728 L32.8084076,16.9728 L33.1505096,16.40704 C33.3173885,16.12832 33.4926115,15.99936 33.6928662,15.99936 C33.8347134,15.99936 33.9056369,16.09088 33.9056369,16.23648 C33.9056369,16.34048 33.8806051,16.46944 33.8347134,16.57344 C33.7679618,16.55264 33.7053822,16.54848 33.6344586,16.54848 C33.2256051,16.54848 32.8209236,16.9936 32.7625159,18.18752 L32.7124522,19.12768 L32.1742675,19.12768 L32.4955096,16.34048 Z" id="Path" fill="#1D1D1B"></path>
                        <path d="M34.4438217,16.83552 L34.5272611,16.42368 C34.385414,16.42368 34.3019745,16.41536 34.1642994,16.40288 L34.1642994,16.31968 C34.3728981,16.02848 34.6941401,15.7456 35.036242,15.54592 L35.1321975,15.54592 L35.0237261,16.07424 L35.211465,16.07424 C35.3908599,16.07424 35.536879,16.06176 35.7079299,16.02848 C35.7079299,16.3072 35.5535669,16.42784 35.1447134,16.42784 L34.9653185,16.42784 L34.8568471,17.0976 C34.8067834,17.40544 34.7275159,17.94208 34.7275159,18.2 C34.7275159,18.62432 34.9402866,18.81152 35.2239809,18.81152 C35.3282803,18.81152 35.3908599,18.79904 35.4909873,18.76576 L35.4909873,18.88224 C35.4325796,19.03616 35.198949,19.19008 34.8943949,19.19008 C34.4688535,19.19008 34.2393949,18.9072 34.2393949,18.39552 C34.2435669,18.00448 34.3395223,17.33472 34.4438217,16.83552 Z" id="Path" fill="#1D1D1B"></path>
                    </g>
                    <rect id="Rectangle" x="0" y="0" width="131" height="52"></rect>
                </g>
            </g>
        </g>
    </g>
</svg>