<svg width="337" height="64" viewBox="0 0 337 64" fill="none" xmlns="http://www.w3.org/2000/svg">
<ellipse cx="26.482" cy="3.75" rx="3.92442" ry="3.75" fill="#37C3FF"/>
<ellipse cx="48.4591" cy="24.75" rx="3.92442" ry="3.75" fill="#344767"/>
<ellipse cx="4.50547" cy="24.75" rx="3.92442" ry="3.75" fill="#045AFF"/>
<ellipse cx="26.482" cy="14.25" rx="3.92442" ry="3.75" fill="#37C3FF"/>
<ellipse cx="48.4591" cy="35.25" rx="3.92442" ry="3.75" fill="#344767"/>
<ellipse cx="4.50547" cy="35.25" rx="3.92442" ry="3.75" fill="#045AFF"/>
<ellipse cx="26.482" cy="24.75" rx="3.92442" ry="3.75" fill="#37C3FF"/>
<ellipse cx="37.4708" cy="3.75" rx="3.92442" ry="3.75" fill="#37C3FF"/>
<ellipse cx="59.4474" cy="24.75" rx="3.92442" ry="3.75" fill="#344767"/>
<ellipse cx="15.4938" cy="24.75" rx="3.92442" ry="3.75" fill="#045AFF"/>
<ellipse cx="37.4708" cy="14.25" rx="3.92442" ry="3.75" fill="#37C3FF"/>
<ellipse cx="59.4474" cy="35.25" rx="3.92442" ry="3.75" fill="#344767"/>
<ellipse cx="15.4938" cy="35.25" rx="3.92442" ry="3.75" fill="#045AFF"/>
<ellipse cx="26.482" cy="35.25" rx="3.92442" ry="3.75" fill="#344767"/>
<ellipse cx="26.482" cy="45.75" rx="3.92442" ry="3.75" fill="#FF3773"/>
<ellipse cx="26.482" cy="56.25" rx="3.92442" ry="3.75" fill="#FF3773"/>
<ellipse cx="37.4708" cy="35.25" rx="3.92442" ry="3.75" fill="#344767"/>
<ellipse cx="37.4708" cy="45.75" rx="3.92442" ry="3.75" fill="#FF3773"/>
<ellipse cx="37.4708" cy="56.25" rx="3.92442" ry="3.75" fill="#FF3773"/>
<ellipse cx="37.4708" cy="24.75" rx="3.92442" ry="3.75" fill="#37C3FF"/>
<path d="M74.0044 43.0002V40.0002H77.5521V25.0002H74.0044V22.0002H84.4904V25.0002H80.9428V40.0002H84.4904V43.0002H74.0044Z" fill="#344767"/>
<path d="M89.8132 43.0002V22.0002H92.8585L106.296 39.1902L105.793 39.4602C105.647 38.6402 105.521 37.6902 105.417 36.6102C105.333 35.5302 105.27 34.3402 105.228 33.0402C105.186 31.7402 105.166 30.3602 105.166 28.9002V22.0002H108.556V43.0002H105.448L92.2306 26.4402L92.576 26.0202C92.7225 27.5402 92.8376 28.7902 92.9213 29.7702C93.005 30.7302 93.0678 31.5002 93.1097 32.0802C93.1516 32.6602 93.1725 33.1202 93.1725 33.4602C93.1934 33.7802 93.2039 34.0502 93.2039 34.2702V43.0002H89.8132Z" fill="#344767"/>
<path d="M114.709 43.0002V22.0002H123.656C124.849 22.0002 125.927 22.2902 126.89 22.8702C127.874 23.4302 128.659 24.2002 129.245 25.1802C129.831 26.1602 130.124 27.2502 130.124 28.4502C130.124 29.6502 129.831 30.7402 129.245 31.7202C128.659 32.7002 127.874 33.4902 126.89 34.0902C125.927 34.6702 124.849 34.9602 123.656 34.9602H118.099V43.0002H114.709ZM118.099 31.8402H123.594C124.159 31.8402 124.672 31.6902 125.132 31.3902C125.592 31.0702 125.959 30.6602 126.231 30.1602C126.524 29.6402 126.67 29.0702 126.67 28.4502C126.67 27.8302 126.524 27.2702 126.231 26.7702C125.959 26.2702 125.592 25.8702 125.132 25.5702C124.672 25.2702 124.159 25.1202 123.594 25.1202H118.099V31.8402Z" fill="#344767"/>
<path d="M148.954 43.0002V22.0002H152.345V43.0002H148.954ZM134.607 43.0002V22.0002H137.997V43.0002H134.607ZM136.082 34.0902V30.9702H150.461V34.0902H136.082Z" fill="#344767"/>
<path d="M156.199 43.0002L164.707 22.0002H168.16L176.606 43.0002H172.995L167.972 30.3402C167.909 30.2002 167.784 29.8602 167.595 29.3202C167.428 28.7802 167.229 28.1802 166.999 27.5202C166.768 26.8602 166.559 26.2602 166.371 25.7202C166.182 25.1602 166.057 24.8002 165.994 24.6402L166.716 24.6102C166.591 24.9502 166.434 25.3802 166.245 25.9002C166.078 26.4202 165.889 26.9702 165.68 27.5502C165.492 28.1302 165.303 28.6802 165.115 29.2002C164.927 29.7002 164.77 30.1202 164.644 30.4602L159.652 43.0002H156.199ZM159.966 37.7802L161.222 34.6602H171.206L172.65 37.7802H159.966Z" fill="#344767"/>
<path d="M187.255 43.3002C185.455 43.3002 183.864 42.9602 182.483 42.2802C181.122 41.6002 179.95 40.5802 178.966 39.2202L181.29 36.6702C182.315 38.0702 183.299 39.0402 184.241 39.5802C185.183 40.1202 186.302 40.3902 187.6 40.3902C188.395 40.3902 189.118 40.2702 189.766 40.0302C190.415 39.7902 190.928 39.4602 191.305 39.0402C191.682 38.6202 191.87 38.1402 191.87 37.6002C191.87 37.2402 191.807 36.9002 191.682 36.5802C191.556 36.2602 191.357 35.9702 191.085 35.7102C190.834 35.4502 190.499 35.2102 190.08 34.9902C189.683 34.7702 189.212 34.5802 188.668 34.4202C188.123 34.2402 187.495 34.0902 186.784 33.9702C185.654 33.7502 184.67 33.4602 183.833 33.1002C182.995 32.7402 182.294 32.2902 181.729 31.7502C181.164 31.2102 180.745 30.6002 180.473 29.9202C180.201 29.2202 180.065 28.4402 180.065 27.5802C180.065 26.4402 180.4 25.4302 181.07 24.5502C181.74 23.6702 182.64 22.9802 183.77 22.4802C184.921 21.9602 186.208 21.7002 187.632 21.7002C189.327 21.7002 190.802 22.0202 192.058 22.6602C193.335 23.2802 194.34 24.1902 195.072 25.3902L192.686 27.6402C192.058 26.6602 191.305 25.9102 190.426 25.3902C189.568 24.8702 188.605 24.6102 187.537 24.6102C186.721 24.6102 186.009 24.7302 185.402 24.9702C184.795 25.2102 184.314 25.5502 183.958 25.9902C183.623 26.4102 183.456 26.9102 183.456 27.4902C183.456 27.9102 183.54 28.3002 183.707 28.6602C183.875 29.0002 184.126 29.3102 184.461 29.5902C184.816 29.8502 185.287 30.0902 185.873 30.3102C186.459 30.5102 187.161 30.6902 187.977 30.8502C189.128 31.0902 190.154 31.4002 191.054 31.7802C191.954 32.1402 192.718 32.5702 193.345 33.0702C193.973 33.5702 194.444 34.1302 194.758 34.7502C195.093 35.3702 195.261 36.0402 195.261 36.7602C195.261 38.1002 194.936 39.2602 194.287 40.2402C193.638 41.2202 192.718 41.9802 191.525 42.5202C190.332 43.0402 188.908 43.3002 187.255 43.3002Z" fill="#344767"/>
<path d="M209.264 43.3002C207.715 43.3002 206.281 43.0302 204.962 42.4902C203.665 41.9502 202.524 41.2002 201.54 40.2402C200.578 39.2602 199.824 38.1202 199.28 36.8202C198.757 35.5002 198.495 34.0602 198.495 32.5002C198.495 30.9402 198.757 29.5102 199.28 28.2102C199.824 26.8902 200.578 25.7502 201.54 24.7902C202.524 23.8102 203.665 23.0502 204.962 22.5102C206.281 21.9702 207.715 21.7002 209.264 21.7002C210.812 21.7002 212.236 21.9702 213.533 22.5102C214.852 23.0502 215.993 23.8102 216.956 24.7902C217.939 25.7702 218.693 26.9202 219.216 28.2402C219.76 29.5402 220.032 30.9602 220.032 32.5002C220.032 34.0402 219.76 35.4702 219.216 36.7902C218.693 38.0902 217.939 39.2302 216.956 40.2102C215.993 41.1902 214.852 41.9502 213.533 42.4902C212.236 43.0302 210.812 43.3002 209.264 43.3002ZM209.264 40.1502C210.331 40.1502 211.304 39.9602 212.183 39.5802C213.083 39.2002 213.858 38.6702 214.507 37.9902C215.156 37.2902 215.658 36.4802 216.014 35.5602C216.39 34.6202 216.579 33.6002 216.579 32.5002C216.579 31.4002 216.39 30.3902 216.014 29.4702C215.658 28.5302 215.156 27.7202 214.507 27.0402C213.858 26.3402 213.083 25.8002 212.183 25.4202C211.304 25.0402 210.331 24.8502 209.264 24.8502C208.196 24.8502 207.212 25.0402 206.312 25.4202C205.433 25.8002 204.659 26.3302 203.989 27.0102C203.34 27.6902 202.838 28.5002 202.482 29.4402C202.126 30.3602 201.949 31.3802 201.949 32.5002C201.949 33.9802 202.262 35.3002 202.89 36.4602C203.518 37.6002 204.376 38.5002 205.465 39.1602C206.574 39.8202 207.84 40.1502 209.264 40.1502Z" fill="#344767"/>
<path d="M73.1191 62.9999V60.9299H75.2666V52.4699H73.1191V50.3999H79.8629V52.4699H77.6966V60.9299H79.8629V62.9999H73.1191Z" fill="#344767"/>
<path d="M82.5925 62.9999V53.5139H84.8341L84.8718 55.4579L84.4385 55.6739C84.5767 55.2539 84.8216 54.8699 85.1732 54.5219C85.5374 54.1619 85.9706 53.8739 86.473 53.6579C86.9753 53.4299 87.4964 53.3159 88.0364 53.3159C88.7899 53.3159 89.4178 53.4599 89.9202 53.7479C90.4351 54.0359 90.8181 54.4679 91.0692 55.0439C91.3204 55.6199 91.446 56.3399 91.446 57.2039V62.9999H89.1478V57.3659C89.1478 56.8739 89.0788 56.4719 88.9406 56.1599C88.8025 55.8359 88.589 55.6019 88.3002 55.4579C88.0113 55.3019 87.6597 55.2359 87.2453 55.2599C86.9062 55.2599 86.5923 55.3139 86.3034 55.4219C86.0146 55.5179 85.7634 55.6619 85.5499 55.8539C85.349 56.0339 85.1857 56.2499 85.0602 56.5019C84.9471 56.7419 84.8906 57.0059 84.8906 57.2939V62.9999H83.7416C83.5281 62.9999 83.3209 62.9999 83.1199 62.9999C82.9316 62.9999 82.7557 62.9999 82.5925 62.9999Z" fill="#344767"/>
<path d="M94.0714 62.9999V53.5139H96.313L96.3507 55.4579L95.9175 55.6739C96.0556 55.2539 96.3005 54.8699 96.6521 54.5219C97.0163 54.1619 97.4496 53.8739 97.9519 53.6579C98.4542 53.4299 98.9754 53.3159 99.5154 53.3159C100.269 53.3159 100.897 53.4599 101.399 53.7479C101.914 54.0359 102.297 54.4679 102.548 55.0439C102.799 55.6199 102.925 56.3399 102.925 57.2039V62.9999H100.627V57.3659C100.627 56.8739 100.558 56.4719 100.42 56.1599C100.281 55.8359 100.068 55.6019 99.7791 55.4579C99.4903 55.3019 99.1386 55.2359 98.7242 55.2599C98.3851 55.2599 98.0712 55.3139 97.7823 55.4219C97.4935 55.5179 97.2423 55.6619 97.0289 55.8539C96.8279 56.0339 96.6647 56.2499 96.5391 56.5019C96.4261 56.7419 96.3696 57.0059 96.3696 57.2939V62.9999H95.2205C95.007 62.9999 94.7998 62.9999 94.5989 62.9999C94.4105 62.9999 94.2347 62.9999 94.0714 62.9999Z" fill="#344767"/>
<path d="M110.071 63.1799C109.079 63.1799 108.194 62.9699 107.415 62.5499C106.637 62.1179 106.021 61.5299 105.569 60.7859C105.13 60.0419 104.91 59.1959 104.91 58.2479C104.91 57.2999 105.13 56.4539 105.569 55.7099C106.021 54.9659 106.637 54.3839 107.415 53.9639C108.194 53.5319 109.079 53.3159 110.071 53.3159C111.051 53.3159 111.93 53.5319 112.708 53.9639C113.487 54.3839 114.096 54.9659 114.536 55.7099C114.988 56.4539 115.214 57.2999 115.214 58.2479C115.214 59.1959 114.988 60.0419 114.536 60.7859C114.096 61.5299 113.487 62.1179 112.708 62.5499C111.93 62.9699 111.051 63.1799 110.071 63.1799ZM110.071 61.2179C110.611 61.2179 111.095 61.0919 111.522 60.8399C111.949 60.5759 112.282 60.2219 112.52 59.7779C112.771 59.3219 112.891 58.8119 112.878 58.2479C112.891 57.6719 112.771 57.1619 112.52 56.7179C112.282 56.2619 111.949 55.9079 111.522 55.6559C111.095 55.4039 110.611 55.2779 110.071 55.2779C109.531 55.2779 109.042 55.4099 108.602 55.6739C108.175 55.9259 107.842 56.2799 107.604 56.7359C107.365 57.1799 107.246 57.6839 107.246 58.2479C107.246 58.8119 107.365 59.3219 107.604 59.7779C107.842 60.2219 108.175 60.5759 108.602 60.8399C109.042 61.0919 109.531 61.2179 110.071 61.2179Z" fill="#344767"/>
<path d="M120.194 62.9999L116.012 53.5139H118.518L121.362 60.5879L120.872 60.7319L123.868 53.5139H126.316L121.909 62.9999H120.194Z" fill="#344767"/>
<path d="M133.406 62.9999V56.9339C133.406 56.4179 133.223 56.0159 132.859 55.7279C132.508 55.4279 132.049 55.2779 131.484 55.2779C130.957 55.2779 130.48 55.3799 130.053 55.5839C129.626 55.7759 129.23 56.0879 128.866 56.5199L127.434 55.1519C128.024 54.5519 128.677 54.0959 129.393 53.7839C130.109 53.4719 130.881 53.3159 131.71 53.3159C132.501 53.3159 133.18 53.4359 133.745 53.6759C134.322 53.9159 134.768 54.2759 135.082 54.7559C135.396 55.2239 135.553 55.7999 135.553 56.4839V62.9999H133.406ZM130.58 63.1799C129.94 63.1799 129.368 63.0599 128.866 62.8199C128.363 62.5799 127.962 62.2499 127.66 61.8299C127.371 61.3979 127.227 60.8939 127.227 60.3179C127.227 59.8139 127.321 59.3759 127.51 59.0039C127.698 58.6199 127.974 58.3019 128.338 58.0499C128.715 57.7979 129.18 57.6119 129.732 57.4919C130.297 57.3599 130.944 57.2939 131.673 57.2939H134.517L134.347 58.8779H131.541C131.202 58.8779 130.9 58.9079 130.637 58.9679C130.373 59.0279 130.147 59.1179 129.958 59.2379C129.77 59.3579 129.632 59.5019 129.544 59.6699C129.456 59.8259 129.412 60.0179 129.412 60.2459C129.412 60.4859 129.475 60.6959 129.6 60.8759C129.726 61.0439 129.896 61.1759 130.109 61.2719C130.323 61.3679 130.574 61.4159 130.863 61.4159C131.277 61.4159 131.666 61.3499 132.03 61.2179C132.407 61.0859 132.74 60.8999 133.029 60.6599C133.318 60.4199 133.544 60.1499 133.707 59.8499L134.178 61.0739C133.914 61.4939 133.588 61.8599 133.198 62.1719C132.822 62.4839 132.407 62.7299 131.955 62.9099C131.516 63.0899 131.057 63.1799 130.58 63.1799Z" fill="#344767"/>
<path d="M139.093 62.9999V51.1019H141.391V62.9999H139.093ZM137.134 55.5659V53.5139H143.557V55.5659H137.134Z" fill="#344767"/>
<path d="M145.586 62.9999V53.5139H147.884V62.9999H145.586ZM146.716 51.4979C146.251 51.4979 145.887 51.3899 145.623 51.1739C145.372 50.9459 145.247 50.6279 145.247 50.2199C145.247 49.8359 145.378 49.5299 145.642 49.3019C145.906 49.0619 146.264 48.9419 146.716 48.9419C147.18 48.9419 147.538 49.0559 147.79 49.2839C148.053 49.4999 148.185 49.8119 148.185 50.2199C148.185 50.5919 148.053 50.8979 147.79 51.1379C147.526 51.3779 147.168 51.4979 146.716 51.4979Z" fill="#344767"/>
<path d="M154.006 62.9999L149.824 53.5139H152.329L155.174 60.5879L154.684 60.7319L157.679 53.5139H160.128L155.72 62.9999H154.006Z" fill="#344767"/>
<path d="M166.2 63.1799C165.157 63.1799 164.234 62.9759 163.431 62.5679C162.639 62.1479 162.018 61.5779 161.566 60.8579C161.126 60.1259 160.906 59.2859 160.906 58.3379C160.906 57.5939 161.032 56.9159 161.283 56.3039C161.534 55.6919 161.886 55.1639 162.338 54.7199C162.79 54.2639 163.324 53.9159 163.939 53.6759C164.567 53.4239 165.245 53.2979 165.974 53.2979C166.639 53.2979 167.248 53.4179 167.801 53.6579C168.366 53.8979 168.856 54.2279 169.27 54.6479C169.685 55.0559 169.999 55.5479 170.212 56.1239C170.438 56.6879 170.545 57.3059 170.532 57.9779L170.513 58.7699H162.489L162.037 57.2399H168.573L168.291 57.5459V57.1319C168.253 56.7719 168.127 56.4539 167.914 56.1779C167.7 55.8899 167.424 55.6679 167.085 55.5119C166.759 55.3439 166.394 55.2599 165.992 55.2599C165.377 55.2599 164.856 55.3739 164.429 55.6019C164.002 55.8179 163.675 56.1419 163.449 56.5739C163.236 57.0059 163.129 57.5399 163.129 58.1759C163.129 58.7879 163.261 59.3219 163.525 59.7779C163.801 60.2339 164.19 60.5879 164.693 60.8399C165.195 61.0919 165.779 61.2179 166.445 61.2179C166.909 61.2179 167.336 61.1459 167.725 61.0019C168.127 60.8579 168.554 60.5999 169.006 60.2279L170.137 61.7399C169.798 62.0399 169.408 62.2979 168.969 62.5139C168.542 62.7179 168.09 62.8799 167.612 62.9999C167.135 63.1199 166.664 63.1799 166.2 63.1799Z" fill="#344767"/>
<path d="M178.517 62.9999V50.3999H183.999C184.753 50.3999 185.431 50.5739 186.033 50.9219C186.649 51.2699 187.132 51.7439 187.484 52.3439C187.848 52.9439 188.03 53.6159 188.03 54.3599C188.03 55.1039 187.848 55.7819 187.484 56.3939C187.132 56.9939 186.649 57.4739 186.033 57.8339C185.431 58.1939 184.753 58.3739 183.999 58.3739H180.947V62.9999H178.517ZM180.947 56.2319H183.83C184.156 56.2319 184.445 56.1479 184.696 55.9799C184.96 55.8119 185.167 55.5899 185.318 55.3139C185.481 55.0259 185.563 54.7139 185.563 54.3779C185.563 54.0299 185.481 53.7179 185.318 53.4419C185.167 53.1659 184.96 52.9499 184.696 52.7939C184.445 52.6379 184.156 52.5599 183.83 52.5599H180.947V56.2319Z" fill="#344767"/>
<path d="M190.207 62.9999V49.6799H192.487V55.4579L192.053 55.6739C192.192 55.2539 192.436 54.8699 192.788 54.5219C193.152 54.1619 193.586 53.8739 194.088 53.6579C194.59 53.4299 195.111 53.3159 195.651 53.3159C196.405 53.3159 197.033 53.4599 197.535 53.7479C198.05 54.0359 198.433 54.4679 198.684 55.0439C198.935 55.6199 199.061 56.3399 199.061 57.2039V62.9999H196.763V57.3659C196.763 56.8739 196.694 56.4719 196.556 56.1599C196.417 55.8359 196.204 55.6019 195.915 55.4579C195.626 55.3019 195.275 55.2359 194.86 55.2599C194.521 55.2599 194.207 55.3139 193.918 55.4219C193.63 55.5179 193.378 55.6619 193.165 55.8539C192.964 56.0339 192.801 56.2499 192.675 56.5019C192.562 56.7419 192.506 57.0059 192.506 57.2939V62.9999H191.356C191.143 62.9999 190.936 62.9999 190.735 62.9999C190.546 62.9999 190.371 62.9999 190.207 62.9999Z" fill="#344767"/>
<path d="M207.356 62.9999V56.9339C207.356 56.4179 207.174 56.0159 206.81 55.7279C206.458 55.4279 206 55.2779 205.435 55.2779C204.907 55.2779 204.43 55.3799 204.003 55.5839C203.576 55.7759 203.181 56.0879 202.817 56.5199L201.385 55.1519C201.975 54.5519 202.628 54.0959 203.344 53.7839C204.06 53.4719 204.832 53.3159 205.661 53.3159C206.452 53.3159 207.13 53.4359 207.695 53.6759C208.273 53.9159 208.719 54.2759 209.033 54.7559C209.347 55.2239 209.504 55.7999 209.504 56.4839V62.9999H207.356ZM204.531 63.1799C203.89 63.1799 203.319 63.0599 202.817 62.8199C202.314 62.5799 201.912 62.2499 201.611 61.8299C201.322 61.3979 201.178 60.8939 201.178 60.3179C201.178 59.8139 201.272 59.3759 201.46 59.0039C201.649 58.6199 201.925 58.3019 202.289 58.0499C202.666 57.7979 203.131 57.6119 203.683 57.4919C204.248 57.3599 204.895 57.2939 205.623 57.2939H208.468L208.298 58.8779H205.491C205.152 58.8779 204.851 58.9079 204.587 58.9679C204.324 59.0279 204.097 59.1179 203.909 59.2379C203.721 59.3579 203.583 59.5019 203.495 59.6699C203.407 59.8259 203.363 60.0179 203.363 60.2459C203.363 60.4859 203.426 60.6959 203.551 60.8759C203.677 61.0439 203.846 61.1759 204.06 61.2719C204.273 61.3679 204.524 61.4159 204.813 61.4159C205.228 61.4159 205.617 61.3499 205.981 61.2179C206.358 61.0859 206.691 60.8999 206.98 60.6599C207.268 60.4199 207.494 60.1499 207.658 59.8499L208.129 61.0739C207.865 61.4939 207.538 61.8599 207.149 62.1719C206.772 62.4839 206.358 62.7299 205.906 62.9099C205.466 63.0899 205.008 63.1799 204.531 63.1799Z" fill="#344767"/>
<path d="M211.951 62.9999V53.5139H214.212L214.249 56.5379L213.948 55.8539C214.086 55.3739 214.325 54.9419 214.664 54.5579C215.003 54.1739 215.392 53.8739 215.832 53.6579C216.284 53.4299 216.748 53.3159 217.226 53.3159C217.439 53.3159 217.64 53.3339 217.828 53.3699C218.029 53.4059 218.193 53.4479 218.318 53.4959L217.715 55.9079C217.565 55.8359 217.389 55.7819 217.188 55.7459C217 55.6979 216.805 55.6739 216.604 55.6739C216.277 55.6739 215.97 55.7339 215.681 55.8539C215.405 55.9619 215.16 56.1179 214.946 56.3219C214.745 56.5259 214.582 56.7659 214.456 57.0419C214.331 57.3059 214.268 57.5999 214.268 57.9239V62.9999H211.951Z" fill="#344767"/>
<path d="M219.842 62.9999V53.5139H222.102L222.14 55.4399L221.763 55.5839C221.876 55.2719 222.046 54.9839 222.272 54.7199C222.498 54.4439 222.768 54.2039 223.082 53.9999C223.396 53.7959 223.729 53.6399 224.08 53.5319C224.432 53.4119 224.796 53.3519 225.173 53.3519C225.713 53.3519 226.19 53.4359 226.605 53.6039C227.019 53.7719 227.364 54.0299 227.641 54.3779C227.929 54.7259 228.149 55.1699 228.3 55.7099L227.942 55.6379L228.074 55.3499C228.225 55.0619 228.426 54.7979 228.677 54.5579C228.928 54.3179 229.21 54.1079 229.524 53.9279C229.838 53.7359 230.165 53.5919 230.504 53.4959C230.856 53.3999 231.195 53.3519 231.521 53.3519C232.275 53.3519 232.902 53.4959 233.405 53.7839C233.907 54.0719 234.284 54.5099 234.535 55.0979C234.786 55.6859 234.912 56.4119 234.912 57.2759V62.9999H232.595V57.4199C232.595 56.6999 232.444 56.1659 232.143 55.8179C231.854 55.4699 231.402 55.2959 230.786 55.2959C230.46 55.2959 230.159 55.3499 229.882 55.4579C229.606 55.5539 229.361 55.6979 229.148 55.8899C228.947 56.0699 228.79 56.2859 228.677 56.5379C228.564 56.7779 228.507 57.0479 228.507 57.3479V62.9999H226.19V57.4019C226.19 56.7179 226.033 56.1959 225.719 55.8359C225.418 55.4759 224.985 55.2959 224.419 55.2959C224.093 55.2959 223.792 55.3499 223.515 55.4579C223.252 55.5539 223.013 55.6979 222.799 55.8899C222.599 56.0699 222.442 56.2799 222.329 56.5199C222.216 56.7599 222.159 57.0239 222.159 57.3119V62.9999H219.842Z" fill="#344767"/>
<path d="M243.154 62.9999V56.9339C243.154 56.4179 242.972 56.0159 242.608 55.7279C242.256 55.4279 241.798 55.2779 241.233 55.2779C240.706 55.2779 240.228 55.3799 239.801 55.5839C239.374 55.7759 238.979 56.0879 238.615 56.5199L237.183 55.1519C237.773 54.5519 238.426 54.0959 239.142 53.7839C239.858 53.4719 240.63 53.3159 241.459 53.3159C242.25 53.3159 242.928 53.4359 243.493 53.6759C244.071 53.9159 244.517 54.2759 244.831 54.7559C245.145 55.2239 245.302 55.7999 245.302 56.4839V62.9999H243.154ZM240.329 63.1799C239.688 63.1799 239.117 63.0599 238.615 62.8199C238.112 62.5799 237.71 62.2499 237.409 61.8299C237.12 61.3979 236.976 60.8939 236.976 60.3179C236.976 59.8139 237.07 59.3759 237.258 59.0039C237.447 58.6199 237.723 58.3019 238.087 58.0499C238.464 57.7979 238.929 57.6119 239.481 57.4919C240.046 57.3599 240.693 57.2939 241.421 57.2939H244.266L244.096 58.8779H241.29C240.95 58.8779 240.649 58.9079 240.385 58.9679C240.122 59.0279 239.896 59.1179 239.707 59.2379C239.519 59.3579 239.381 59.5019 239.293 59.6699C239.205 59.8259 239.161 60.0179 239.161 60.2459C239.161 60.4859 239.224 60.6959 239.349 60.8759C239.475 61.0439 239.644 61.1759 239.858 61.2719C240.071 61.3679 240.323 61.4159 240.611 61.4159C241.026 61.4159 241.415 61.3499 241.779 61.2179C242.156 61.0859 242.489 60.8999 242.778 60.6599C243.066 60.4199 243.293 60.1499 243.456 59.8499L243.927 61.0739C243.663 61.4939 243.337 61.8599 242.947 62.1719C242.57 62.4839 242.156 62.7299 241.704 62.9099C241.264 63.0899 240.806 63.1799 240.329 63.1799Z" fill="#344767"/>
<path d="M257.864 63.1799C256.709 63.1799 255.704 62.9699 254.85 62.5499C254.009 62.1299 253.287 61.5179 252.684 60.7139L254.266 58.9859C254.882 59.8139 255.478 60.3839 256.056 60.6959C256.646 60.9959 257.312 61.1459 258.053 61.1459C258.48 61.1459 258.869 61.0859 259.22 60.9659C259.572 60.8459 259.848 60.6779 260.049 60.4619C260.25 60.2339 260.351 59.9699 260.351 59.6699C260.351 59.4659 260.307 59.2799 260.219 59.1119C260.144 58.9319 260.024 58.7759 259.861 58.6439C259.71 58.4999 259.516 58.3679 259.277 58.2479C259.051 58.1279 258.781 58.0259 258.467 57.9419C258.166 57.8459 257.833 57.7679 257.469 57.7079C256.765 57.5759 256.156 57.4019 255.641 57.1859C255.139 56.9579 254.712 56.6819 254.36 56.3579C254.021 56.0219 253.764 55.6499 253.588 55.2419C253.425 54.8219 253.343 54.3479 253.343 53.8199C253.343 53.1119 253.55 52.4879 253.965 51.9479C254.392 51.3959 254.957 50.9639 255.66 50.6519C256.376 50.3399 257.161 50.1839 258.015 50.1839C259.12 50.1839 260.056 50.3759 260.822 50.7599C261.6 51.1439 262.209 51.6899 262.649 52.3979L261.029 53.9099C260.652 53.3579 260.206 52.9379 259.691 52.6499C259.177 52.3619 258.618 52.2179 258.015 52.2179C257.563 52.2179 257.167 52.2839 256.828 52.4159C256.502 52.5359 256.244 52.7099 256.056 52.9379C255.867 53.1539 255.773 53.4179 255.773 53.7299C255.773 53.9579 255.824 54.1679 255.924 54.3599C256.037 54.5519 256.2 54.7199 256.414 54.8639C256.627 55.0079 256.897 55.1339 257.224 55.2419C257.55 55.3499 257.927 55.4459 258.354 55.5299C259.045 55.6739 259.66 55.8539 260.2 56.0699C260.753 56.2859 261.217 56.5499 261.594 56.8619C261.983 57.1619 262.278 57.5099 262.479 57.9059C262.68 58.2899 262.781 58.7219 262.781 59.2019C262.781 60.0179 262.58 60.7259 262.178 61.3259C261.776 61.9259 261.205 62.3879 260.464 62.7119C259.723 63.0239 258.856 63.1799 257.864 63.1799Z" fill="#344767"/>
<path d="M269.617 63.1799C268.625 63.1799 267.74 62.9699 266.961 62.5499C266.183 62.1179 265.567 61.5299 265.115 60.7859C264.676 60.0419 264.456 59.1959 264.456 58.2479C264.456 57.2999 264.676 56.4539 265.115 55.7099C265.567 54.9659 266.183 54.3839 266.961 53.9639C267.74 53.5319 268.625 53.3159 269.617 53.3159C270.597 53.3159 271.476 53.5319 272.255 53.9639C273.033 54.3839 273.642 54.9659 274.082 55.7099C274.534 56.4539 274.76 57.2999 274.76 58.2479C274.76 59.1959 274.534 60.0419 274.082 60.7859C273.642 61.5299 273.033 62.1179 272.255 62.5499C271.476 62.9699 270.597 63.1799 269.617 63.1799ZM269.617 61.2179C270.157 61.2179 270.641 61.0919 271.068 60.8399C271.495 60.5759 271.828 60.2219 272.066 59.7779C272.317 59.3219 272.437 58.8119 272.424 58.2479C272.437 57.6719 272.317 57.1619 272.066 56.7179C271.828 56.2619 271.495 55.9079 271.068 55.6559C270.641 55.4039 270.157 55.2779 269.617 55.2779C269.077 55.2779 268.588 55.4099 268.148 55.6739C267.721 55.9259 267.388 56.2799 267.15 56.7359C266.911 57.1799 266.792 57.6839 266.792 58.2479C266.792 58.8119 266.911 59.3219 267.15 59.7779C267.388 60.2219 267.721 60.5759 268.148 60.8399C268.588 61.0919 269.077 61.2179 269.617 61.2179Z" fill="#344767"/>
<path d="M276.852 62.9999V49.6799H279.15V62.9999H276.852Z" fill="#344767"/>
<path d="M285.247 63.1799C284.531 63.1799 283.909 63.0239 283.382 62.7119C282.867 62.3999 282.465 61.9619 282.176 61.3979C281.9 60.8339 281.762 60.1559 281.762 59.3639V53.5139H284.06V58.8959C284.06 59.6399 284.242 60.2279 284.606 60.6599C284.983 61.0919 285.504 61.3079 286.17 61.3079C286.496 61.3079 286.792 61.2599 287.055 61.1639C287.332 61.0559 287.57 60.9119 287.771 60.7319C287.972 60.5399 288.129 60.3119 288.242 60.0479C288.355 59.7839 288.412 59.5019 288.412 59.2019V53.5139H290.71V62.9999H288.468L288.43 61.0199L288.845 60.8039C288.694 61.2479 288.437 61.6499 288.072 62.0099C287.721 62.3699 287.3 62.6579 286.81 62.8739C286.321 63.0779 285.799 63.1799 285.247 63.1799Z" fill="#344767"/>
<path d="M294.537 62.9999V51.1019H296.835V62.9999H294.537ZM292.578 55.5659V53.5139H299.001V55.5659H292.578Z" fill="#344767"/>
<path d="M301.029 62.9999V53.5139H303.328V62.9999H301.029ZM302.16 51.4979C301.695 51.4979 301.331 51.3899 301.067 51.1739C300.816 50.9459 300.69 50.6279 300.69 50.2199C300.69 49.8359 300.822 49.5299 301.086 49.3019C301.35 49.0619 301.708 48.9419 302.16 48.9419C302.624 48.9419 302.982 49.0559 303.233 49.2839C303.497 49.4999 303.629 49.8119 303.629 50.2199C303.629 50.5919 303.497 50.8979 303.233 51.1379C302.97 51.3779 302.612 51.4979 302.16 51.4979Z" fill="#344767"/>
<path d="M310.787 63.1799C309.795 63.1799 308.909 62.9699 308.131 62.5499C307.352 62.1179 306.737 61.5299 306.285 60.7859C305.845 60.0419 305.626 59.1959 305.626 58.2479C305.626 57.2999 305.845 56.4539 306.285 55.7099C306.737 54.9659 307.352 54.3839 308.131 53.9639C308.909 53.5319 309.795 53.3159 310.787 53.3159C311.766 53.3159 312.646 53.5319 313.424 53.9639C314.203 54.3839 314.812 54.9659 315.251 55.7099C315.703 56.4539 315.929 57.2999 315.929 58.2479C315.929 59.1959 315.703 60.0419 315.251 60.7859C314.812 61.5299 314.203 62.1179 313.424 62.5499C312.646 62.9699 311.766 63.1799 310.787 63.1799ZM310.787 61.2179C311.327 61.2179 311.81 61.0919 312.237 60.8399C312.664 60.5759 312.997 60.2219 313.236 59.7779C313.487 59.3219 313.606 58.8119 313.594 58.2479C313.606 57.6719 313.487 57.1619 313.236 56.7179C312.997 56.2619 312.664 55.9079 312.237 55.6559C311.81 55.4039 311.327 55.2779 310.787 55.2779C310.247 55.2779 309.757 55.4099 309.318 55.6739C308.891 55.9259 308.558 56.2799 308.319 56.7359C308.081 57.1799 307.961 57.6839 307.961 58.2479C307.961 58.8119 308.081 59.3219 308.319 59.7779C308.558 60.2219 308.891 60.5759 309.318 60.8399C309.757 61.0919 310.247 61.2179 310.787 61.2179Z" fill="#344767"/>
<path d="M318.002 62.9999V53.5139H320.244L320.282 55.4579L319.848 55.6739C319.987 55.2539 320.231 54.8699 320.583 54.5219C320.947 54.1619 321.381 53.8739 321.883 53.6579C322.385 53.4299 322.906 53.3159 323.446 53.3159C324.2 53.3159 324.828 53.4599 325.33 53.7479C325.845 54.0359 326.228 54.4679 326.479 55.0439C326.73 55.6199 326.856 56.3399 326.856 57.2039V62.9999H324.558V57.3659C324.558 56.8739 324.489 56.4719 324.351 56.1599C324.212 55.8359 323.999 55.6019 323.71 55.4579C323.421 55.3019 323.07 55.2359 322.655 55.2599C322.316 55.2599 322.002 55.3139 321.713 55.4219C321.425 55.5179 321.173 55.6619 320.96 55.8539C320.759 56.0339 320.596 56.2499 320.47 56.5019C320.357 56.7419 320.301 57.0059 320.301 57.2939V62.9999H319.152C318.938 62.9999 318.731 62.9999 318.53 62.9999C318.342 62.9999 318.166 62.9999 318.002 62.9999Z" fill="#344767"/>
<path d="M332.797 63.1799C331.93 63.1799 331.145 63.0419 330.442 62.7659C329.751 62.4779 329.186 62.0699 328.747 61.5419L330.235 60.3179C330.612 60.7139 331.032 61.0079 331.497 61.1999C331.962 61.3799 332.451 61.4699 332.966 61.4699C333.18 61.4699 333.368 61.4459 333.531 61.3979C333.707 61.3499 333.858 61.2779 333.983 61.1819C334.109 61.0859 334.203 60.9719 334.266 60.8399C334.341 60.7079 334.379 60.5639 334.379 60.4079C334.379 60.1199 334.266 59.8919 334.04 59.7239C333.914 59.6519 333.72 59.5679 333.456 59.4719C333.192 59.3639 332.847 59.2619 332.42 59.1659C331.742 58.9979 331.17 58.8059 330.706 58.5899C330.254 58.3619 329.902 58.1099 329.651 57.8339C329.437 57.5939 329.28 57.3359 329.18 57.0599C329.079 56.7719 329.029 56.4539 329.029 56.1059C329.029 55.5659 329.193 55.0859 329.519 54.6659C329.858 54.2459 330.304 53.9159 330.856 53.6759C331.409 53.4359 332.024 53.3159 332.703 53.3159C333.205 53.3159 333.688 53.3759 334.153 53.4959C334.63 53.6159 335.07 53.7899 335.472 54.0179C335.873 54.2339 336.219 54.4979 336.508 54.8099L335.227 56.1599C335.001 55.9439 334.743 55.7519 334.454 55.5839C334.178 55.4039 333.896 55.2659 333.607 55.1699C333.318 55.0739 333.048 55.0259 332.797 55.0259C332.558 55.0259 332.345 55.0499 332.156 55.0979C331.968 55.1339 331.811 55.1939 331.685 55.2779C331.56 55.3619 331.459 55.4699 331.384 55.6019C331.321 55.7219 331.29 55.8599 331.29 56.0159C331.302 56.1719 331.34 56.3159 331.403 56.4479C331.478 56.5679 331.579 56.6699 331.704 56.7539C331.83 56.8379 332.031 56.9339 332.307 57.0419C332.583 57.1499 332.941 57.2519 333.381 57.3479C333.996 57.5039 334.511 57.6779 334.925 57.8699C335.34 58.0619 335.666 58.2839 335.905 58.5359C336.143 58.7519 336.313 59.0039 336.413 59.2919C336.514 59.5799 336.564 59.9039 336.564 60.2639C336.564 60.8279 336.395 61.3319 336.056 61.7759C335.729 62.2079 335.283 62.5499 334.718 62.8019C334.153 63.0539 333.513 63.1799 332.797 63.1799Z" fill="#344767"/>
</svg>
