<?xml version="1.0" encoding="utf-8"?>
<!-- Generator: Adobe Illustrator 14.0.0, SVG Export Plug-In . SVG Version: 6.00 Build 43363)  -->
<!DOCTYPE svg PUBLIC "-//W3C//DTD SVG 1.1//EN" "http://www.w3.org/Graphics/SVG/1.1/DTD/svg11.dtd">
<svg version="1.1" id="Ebene_1" xmlns="http://www.w3.org/2000/svg" xmlns:xlink="http://www.w3.org/1999/xlink" x="0px" y="0px"
	 width="300px" height="330px" viewBox="0 0 300 330" enable-background="new 0 0 300 330" xml:space="preserve">
<g>
	<path fill="#0060A9" d="M240.051,69.443c1.164,8.448,13.967,19.839,17.437,19.572c2.316-0.198,3.204-11.034,3.204-19.572
		c0-4.895,0.271-8.723-2.311-9.614C254.277,68.109,243.525,69.799,240.051,69.443 M240.76,65.702
		c9.249,0,17.711-7.381,17.711-13.877c0-3.028-1.428-5.519-5.077-5.963c0.624,0.803,0.884,1.425,0.884,2.847
		c0,4.896-7.457,10.324-15.564,10.324c-2.935,0-3.823,2.044-3.823,3.111C234.89,64.638,237.291,65.702,240.76,65.702
		 M238.803,55.648c-1.242,0-3.024,0-4.003-1.953c-0.804-1.602-0.534-4.186-2.047-5.341c1.513,0.443,3.109,0.443,4.357,0.443
		c4.015,0,7.843-2.758,10.783-2.758c1.936,0,2.56,1.248,2.56,2.491C250.453,52.448,242.547,55.648,238.803,55.648"/>
	<path fill="#0060A9" d="M39.775,125.408c3.022,0,2.398-18.509,7.291-18.509c1.161,0,1.515,1.158,1.515,2.583
		c0,4.181-2.047,10.322-2.047,13.697c0,1.692,0.444,2.229,1.246,2.229c2.139,0,5.873-20.38,9.519-20.38
		c1.158,0,1.692,1.158,1.692,2.317c0,4.271-5.426,16.549-5.426,20.018c0,0.533,0.177,0.977,0.624,0.977
		c2.224,0,6.671-9.606,8.091-14.414c0.801-2.491,1.872-3.828,2.853-3.828c0.886,0,1.692,0.98,1.692,3.026
		c0,4.807-4.456,16.106-8.369,23.671c-3.022,5.873-7.737,14.321-7.737,19.038c0,2.404,0.442,4.892,3.911,7.919
		c-5.693-0.354-8.009-0.891-10.141-5.337c-9.522,18.952,17.528,17.083,8.271,33.895c-1.689-3.018-15.035-6.138-15.035-23.753
		c0-15.213,13.345-24.112,13.345-30.43c0-1.243-0.442-2.312-1.6-3.291c-2.938-2.494-3.03-4.535-5.338-4.535
		c-1.692,0-3.742,3.912-1.605,7.381c0.714,1.155,1.338,1.868,1.338,2.938c0,2.488-3.919,9.157-6.671,9.157
		c-2.76,0-4.892-6.842-4.892-17.881c0-9.785,2.218-19.66,4.979-19.66c0.801,0,1.065,0.533,1.065,1.246
		c0,1.156-0.354,3.468-0.354,7.381C37.994,125.051,38.975,125.408,39.775,125.408"/>
	<path fill="#0060A9" d="M62.46,151.475c3.741,0,6.851-2.762,6.851-8.893v-9.078c0-3.469,0.267-7.384,2.581-10.146
		c-0.265,1.158-0.265,2.404-0.265,3.558c0,7.653,4.271,12.905,4.271,20.288c0,2.754-0.801,4.271-2.932,4.271
		c-2.049,0-1.872-1.868-2.319-1.868c-0.354,0-0.891,1.153-0.891,2.402c0,1.871,1.338,4.803,5.072,4.803
		c3.208,0,5.786-2.932,5.786-6.228c0-8.001-6.23-16.903-6.23-25.444c0-3.739,0.981-6.227,1.782-8.188
		c0,17.708,15.038,30.608,15.038,37.992c0,1.692-1.246,3.026-3.112,3.026c-2.049,0-3.03-1.602-3.03-2.85c0-0.623-0.09-0.8-0.354-0.8
		c-0.532,0-2.134,1.78-2.134,4.098c0,2.932,2.398,6.495,6.851,6.495c5.069,0,7.824-4.275,7.824-8.101
		c0-9.339-18.237-23.49-18.237-38.612c0-2.583,0.441-6.764,2.313-9.963c-11.745,7.557-15.389,17.616-15.389,26.424
		c0,7.655-0.27,11.474-4.183,11.474c-2.046,0-2.581-1.865-3.294-1.865c-0.532,0-0.804,1.601-0.804,2.041
		C57.653,149.606,60.059,151.475,62.46,151.475"/>
	<path fill="#0060A9" d="M216.66,62.59c3.914,0,6.854-1.778,6.854-2.848c0-0.352-0.534-0.62-1.692-0.62s-3.475-0.09-7.838-0.802
		c-3.744-0.622-6.589-2.047-7.657-2.047c-0.359,0-0.539,0.179-0.539,0.444C205.788,59.032,210.066,62.59,216.66,62.59
		 M197.263,51.291c1.127-0.759,6.14,0.444,12.629-2.762c0.799-0.439,1.603-0.62,2.311-0.62c3.12,0,2.316,3.558,5.167,3.558
		c2.227,0,5.077-1.868,6.77-1.868c2.654,0,6.478,8.364,6.478,12.28c0,4.538-6.832,7.296-14.939,7.296
		c-11.824,0-18.948-10.319-18.948-16.995C196.729,51.646,196.993,51.467,197.263,51.291"/>
	<path fill="#0060A9" d="M64.33,185.016c-2.935,0.717-7.655,5.337-7.655,12.64c0,8.718,9.347,22.156,24.736,22.156
		c12.994,0,16.193-8.982,16.193-15.043c0-13.433-8.269-22.867-19.036-22.867c-5.873,0-11.122,4.275-11.122,10.587
		c0,5.878,4.447,14.687,15.035,14.687c4.982,0,7.917-3.564,7.917-7.65c0-4.006-3.646-9.519-8.988-9.519
		c-1.6,0-2.752,1.058-2.752,2.752c0,2.135,2.935,4.273,6.579,4.273c0.891,0,1.605-0.175,1.962-0.356
		c0.175,0.271,0.265,0.714,0.265,1.07c0,2.047-1.957,3.295-4.982,3.295c-4.535,0-8.9-3.385-8.9-8.729
		c0-3.197,2.761-5.514,6.764-5.514c7.919,0,12.634,7.028,12.634,14.063c0,6.314-3.466,9.969-10.584,9.969
		C68.156,210.829,61.217,198.013,64.33,185.016"/>
	<path fill="#0060A9" d="M158.996,219.364c0,1.965,1.603,3.562,3.559,3.562c1.957,0,3.56-1.597,3.56-3.562
		c0-1.959-1.603-3.56-3.56-3.56C160.599,215.805,158.996,217.405,158.996,219.364 M165.892,237.149c4.273,0,4.052-0.354,5.39-0.354
		c1.332,0,1.422,0.799,1.422,1.335c0,1.96-4.368,4.366-12.104,4.366c-4.538,0-7.294-2.406-8.096-5.077
		c-4.447,2.848-11.211,5.431-17.885,5.431c-18.237,0-22.864-7.927-28.557-10.497c-4.366-1.962-11.034,1.867-20.379-8.543
		c1.248,0.267,2.94,0.356,4.275,0.356c8.181,0,12.539-3.998,12.539-10.41c0-0.807-0.087-1.685-0.175-2.482
		c2.491,0.978,8.184,5.243,9.522,12.803c0.18,0.891,3.824,1.689,6.137,1.689c3.205,0,7.295-1.335,7.919-6.578
		c10.677-0.889,17.888-7.206,19.403-15.221c3.821,1.248,8.179,4.72,9.246,6.502c1.512-0.534,3.289-0.798,5.336-0.798
		c2.845,0,6.055,0.528,9.878,1.692c0.181-1.164,0.354-2.587,2.137-2.587c2.671,0,1.957,2.94,2.846,4.622
		c0.449,0.889,2.676,1.423,2.676,3.205c0,1.695-1.434,2.316-2.316,2.316c-0.359,0-0.804-0.087-1.073-0.177
		c-1.772,0.621-1.862,13.433-9.34,13.433c-5.516,0-10.586-4.538-12.813-10.23c-0.627-1.688-1.957-2.758-3.202-2.758
		c-1.422,0-2.224,0.267-3.911,2.142c-4.805,5.238-12.814,9.775-22.69,9.775c-3.027,0-5.428-0.268-6.052-0.268
		c-0.357,0-0.357,0.091-0.357,0.178c0,0.624,3.025,3.03,9.609,3.03c15.659,0,19.49-8.811,21.979-8.811c0.357,0,1.422,0,2.044,1.423
		C152.944,235.192,160.91,237.149,165.892,237.149"/>
	<path fill="#0060A9" d="M219.865,180.476c-1.872,0-12.205,13.793-18.863,13.793c-1.603,0-2.936-3.022-2.936-5.331
		c0-1.245,0.799-2.137,3.649-2.764c15.299-3.469,11.914-14.95,24.987-14.95c7.203,0,15.22,4.897,15.22,15.932
		c0,11.748-16.722,26.334-19.212,26.334c-2.047,0-4.273-2.936-4.273-4.893c0-0.618,0.27-1.422,2.052-2.131
		c8.525-3.39,13.417-11.217,13.417-15.22c0-0.895-0.439-1.771-1.603-1.771c-1.507,0-7.991,14.76-15.199,14.76
		c-4.992,0-10.068-4.527-10.068-6.669c0-3.562,14.427-10.144,14.427-15.13C221.463,180.563,220.574,180.476,219.865,180.476
		 M229.459,174.963c-1.243,0-2.581,0.98-2.581,3.387c0,2.663,2.047,4.355,3.205,4.89c0.624,0.354,1.607,0.711,2.575,0.711
		c2.586,0,4.633-0.711,4.633-2.853C237.291,178.35,233.282,174.963,229.459,174.963"/>
	<path fill="#0060A9" d="M63.261,71.93c0,1.961,1.603,3.563,3.562,3.563c1.954,0,3.556-1.602,3.556-3.563
		c0-1.953-1.602-3.558-3.556-3.558C64.864,68.373,63.261,69.978,63.261,71.93 M58.634,63.924c0,1.955,1.602,3.56,3.559,3.56
		c1.959,0,3.559-1.605,3.559-3.56c0-1.958-1.6-3.561-3.559-3.561C60.236,60.363,58.634,61.966,58.634,63.924 M55.435,88.303
		c-2.049,0.534-6.317,3.025-6.317,7.474c0,3.201,2.488,5.248,5.605,5.248c1.603,0,2.755-0.354,3.467-0.889
		c-2.488-2.401-3.379-5.074-3.379-7.738C54.811,90.527,55.078,89.37,55.435,88.303 M33.639,89.55
		c-0.087,0.446-0.087,0.887-0.087,1.332c0,4.18,2.221,6.498,5.156,6.498c2.218,0,4.804-1.336,7.115-4.276
		c-0.976,0.177-2.134,0.266-3.205,0.266C39.329,93.37,35.772,92.485,33.639,89.55 M30.521,97.467c0,6.761,2.046,9.966,5.693,9.966
		c2.848,0,6.674-2.049,11.211-5.961c-3.472,0.801-6.143,1.334-8.543,1.334C35.683,102.805,33.194,101.56,30.521,97.467
		 M53.565,61.877c0.444-1.424,0.799-3.201,0.799-5.16c0-4.268-1.957-10.766-8.009-10.766c-3.467,0-5.96,2.756-5.96,6.051
		C40.395,59.033,47.425,61.877,53.565,61.877 M45.998,84.301c-2.933,0-6.135-3.646-6.135-6.942c0-1.775,1.333-4.005,2.311-4.005
		c0.354,0,0.534,0.271,0.624,0.894c0.534,4.36,3.379,6.851,6.05,8.094c0.27,0.179,0.444,0.267,0.444,0.444
		C49.292,83.409,47.6,84.301,45.998,84.301 M54.189,73.444c0.614,0.839,2.311,1.871,2.311,2.493c0,1.243-0.711,2.849-2.136,2.849
		c-3.115,0-5.603-4.717-5.603-7.389c0-1.687,0.978-1.865,2.308-1.865c0.627,0,0.891,0.088,1.338,0.357
		C53.208,70.333,53.208,72.109,54.189,73.444 M33.284,84.479c-0.169,0.272-0.27,0.623-0.27,0.979c0,0.801,0.891,1.692,1.687,1.692
		c0.714,0,1.158-0.179,1.512-0.179c2.134,0,4.538,1.511,8.012,1.511c2.042,0,4.445-0.625,7.47-2.134
		c6.407-3.206,8.9-11.123,8.9-12.458c0-1.692-1.359-1.473-2.494-3.028c-1.137-1.551-0.703-2.924-1.425-3.649
		c-0.413-0.415-1.687-0.441-3.292-0.622c-0.537-0.058-1.245-0.088-1.959-0.088c-2.932,0-6.412,0.36-10.32,2.849
		C33.387,74.278,34.521,82.431,33.284,84.479 M62.817,80.919c-1.957,2.313-4.003,6.231-4.003,10.23c0,4.803,2.938,8.808,7.475,8.808
		c4.36,0,6.407-3.736,6.407-7.56C72.696,86.438,67.27,82.252,62.817,80.919 M43.779,63.838c0,0-2.583,1.954-5.785,1.954
		c-3.821,0-6.849-2.845-6.849-6.847c0-2.759,1.422-5.607,4.714-7.032c-0.087,0.537-0.087,0.981-0.087,1.514
		C35.772,58.498,38.618,62.324,43.779,63.838"/>
	<path fill="#0060A9" d="M200.642,93.37c0,2.053,1.698,3.743,3.724,3.743c2.047,0,3.744-1.689,3.744-3.743
		c0-2.042-1.697-3.731-3.744-3.731C202.34,89.639,200.642,91.328,200.642,93.37 M200.912,104.582c0,2.315,1.872,4.186,4.167,4.186
		c2.316,0,4.188-1.871,4.188-4.186c0-2.31-1.872-4.178-4.188-4.178C202.784,100.404,200.912,102.272,200.912,104.582
		 M188.093,112.147c0,3.379,2.755,6.141,6.145,6.141c3.38,0,6.146-2.762,6.146-6.141c0-3.379-2.766-6.139-6.146-6.139
		C190.848,106.009,188.093,108.768,188.093,112.147 M191.382,99.601c0,1.959,1.603,3.563,3.564,3.563c1.957,0,3.56-1.604,3.56-3.563
		c0-1.956-1.603-3.558-3.56-3.558C192.984,96.043,191.382,97.645,191.382,99.601 M179.737,106.721c0,1.958,1.603,3.555,3.543,3.555
		c1.957,0,3.564-1.597,3.564-3.555c0-1.96-1.607-3.558-3.564-3.558C181.34,103.164,179.737,104.761,179.737,106.721 M188.892,85.905
		c0,3.111,2.58,5.689,5.695,5.689c3.12,0,5.701-2.578,5.701-5.689c0-3.119-2.581-5.694-5.701-5.694
		C191.472,80.21,188.892,82.786,188.892,85.905 M195.57,74.96c0,1.863,1.513,3.377,3.385,3.377c1.867,0,3.385-1.514,3.385-3.377
		c0-1.871-1.518-3.384-3.385-3.384C197.083,71.576,195.57,73.09,195.57,74.96 M179.473,83.498c0,1.872,1.513,3.387,3.363,3.387
		c1.872,0,3.385-1.515,3.385-3.387c0-1.866-1.513-3.377-3.385-3.377C180.985,80.121,179.473,81.632,179.473,83.498 M179.023,95.064
		c0,3.027,2.406,5.427,5.409,5.427c3.03,0,5.442-2.4,5.442-5.427c0-3.024-2.412-5.426-5.442-5.426
		C181.43,89.639,179.023,92.041,179.023,95.064 M167.812,100.756c0,2.765,2.306,5.072,5.066,5.072c2.755,0,5.077-2.307,5.077-5.072
		c0-2.752-2.322-5.069-5.077-5.069C170.117,95.687,167.812,98.003,167.812,100.756 M170.831,88.215c0,1.955,1.603,3.56,3.56,3.56
		c1.962,0,3.564-1.605,3.564-3.56c0-1.956-1.603-3.558-3.564-3.558C172.434,84.657,170.831,86.259,170.831,88.215 M202.07,115.616
		c0-1.777,1.602-3.291,3.363-3.291c1.962,0,3.475,1.514,3.475,3.291c0,2.047-1.513,3.473-3.475,3.473
		C203.672,119.089,202.07,117.663,202.07,115.616"/>
	<path fill="#0060A9" d="M204.365,217.941c0.449,0,0.979,0.265,0.979,1.867c0,1.962-0.889,4.537-4.072,6.581
		c-2.231,1.513-5.257,2.761-9.71,2.843c0.714-2.129,1.248-4.353,1.248-6.483c0-0.712-0.09-1.248-0.18-2.047h1.158
		C200.822,220.702,203.853,217.941,204.365,217.941 M205.079,209.134c0.725-0.61,0.889-1.6,0.889-2.583v-2.047
		c0-2.581-3.897-4.088-9.244-4.088c-6.5,0-9.969,2.93-9.969,4.178v4.093c0,1.695,3.919,3.385,8.726,3.385
		C199.31,212.071,202.784,211.093,205.079,209.134 M209.712,210.115c-2.316,1.782-7.731,5.777-16.728,5.777
		c-4.807,0-6.943-1.516-7.657-1.516c-0.895,0-1.872,0.892-2.851,2.052c-2.115,2.491-4.876,7.124-4.876,12.185
		c0,3.563,2.761,7.113,7.906,7.113c16.653,0,29.102-10.407,29.102-18.854C214.608,212.071,211.764,210.115,209.712,210.115"/>
	<path fill="#0060A9" d="M212.826,135.284c0,2.221,0.714,4.8,2.94,4.8c1.872,0,3.475-2.84,3.475-5.958
		c0-3.559-0.629-6.317-0.629-7.745c0-0.617,0.27-0.886,0.629-0.886c1.338,0.09,2.581,3.738,4.003,3.738
		c1.608,0,3.993-2.94,4.972-2.94c0.265,0,0.354,0.357,0.354,0.447c0,1.334-2.047,4.274-2.047,5.429c0,0.977,5.161,1.155,5.161,2.046
		c0,1.335-5.41,1.335-7.996,2.494c-2.49,1.064-4.008,2.399-4.008,4.182c0,1.778,1.787,2.133,4.278,2.133
		c5.949,0,10.127-3.201,11.46-3.201c0.27,0,0.443,0.177,0.443,0.444c0,0.891-3.024,3.826-3.024,5.162
		c0,1.511,5.521,3.284,5.437,4.178c-0.09,0.266-0.449,0.354-1.073,0.354c-0.984,0-2.491-0.265-3.649-0.265
		c-0.714,0-1.338,0.086-1.603,0.44c-0.618,0.715,0.175,5.43-1.063,5.43c-1.158,0-4.188-10.495-11.026-10.495
		c-0.979,0-1.688,0.798-1.688,2.132c0,3.558,3.47,7.65,6.764,9.608c1.497,0.979,3.993,1.959,3.993,2.496
		c0,1.064-5.686,0.09-5.686,1.865c0,1.603,0.715,4.008,0.715,5.425c0,0.449-0.09,0.983-0.624,0.983
		c-1.063,0-3.654-4.894-4.897-4.894c-1.068,0-3.379,2.932-4.368,2.932c-0.259,0-0.439-0.265-0.439-0.528
		c0-2.047,3.295-6.674,3.295-11.212c0-2.136-0.27-6.764-2.855-6.764c-2.131,0-4.537,3.382-5.605,6.764
		c-0.624,1.954-0.18,9.519-1.603,9.519c-1.338,0-0.983-5.071-2.761-5.071c-1.316,0-4.167,2.399-5.146,2.399
		c-0.18,0-0.359-0.088-0.359-0.266c0-1.063,2.586-4.538,2.586-5.25c0-1.332-5.876-1.507-5.876-2.577c0-0.623,2.312-1.07,4.448-1.428
		c4.526-0.801,11.2-4.09,11.2-8.712c0-5.162-4.986-7.389-8.26-9.526c-1.692-1.067-3.56-1.953-3.56-2.664
		c0-0.715,2.137-0.715,3.025-0.715c1.332,0,2.654-0.088,2.654-1.155c0-0.803-0.185-2.4-0.185-3.648c0-0.891,0.09-1.602,0.449-1.602
		c1.333,0,3.205,4.359,4.099,4.359c1.422,0,3.379-3.558,4.723-3.558c0.438,0,0.618,0.267,0.618,1.069
		C214.519,128.342,212.826,132.075,212.826,135.284 M170.387,109.215c0.979,7.56,11.133,3.733,11.133,12.896
		c0,1.338-0.36,3.296-0.36,4.983c0,1.963,0.181,3.653,1.677,3.653c1.513,0,1.872-1.067,1.872-2.495c0-1.424-0.359-3.2-0.359-4.181
		c0-3.116,2.227-3.825,3.564-3.825c3.385,0,5.965,3.468,11.042,3.468c-1.158,5.697-12.914,4.183-12.914,10.412
		c0,3.119,3.114,3.825,5.167,3.825c1.872,0,2.496-0.267,2.496-1.866c0-0.894-0.186-1.871-0.186-2.493
		c0-0.357,0.27-0.711,0.719-0.711c1.963,0,11.556,7.297,11.556,9.522c0,2.044-10.133,4.092-13.073,4.092
		c-0.888,0-1.068-0.625-1.068-0.981c0-0.62,1.513-2.491,1.513-3.558c0-0.798-1.332-1.334-4.896-1.334
		c-1.692,0-2.94,0.179-2.94,1.517c0,2.396,3.918,5.333,3.918,7.557c0,1.778-1.067,2.848-3.918,2.848
		c-2.401,0-6.034-1.873-6.034-4.981c0-2.491,2.564-4.979,2.564-6.493c0-0.447-0.338-1.16-1.406-1.16
		c-3.295,0-4.188,8.717-15.85,9.696c1.872-1.687,3.469-3.558,3.469-7.378c0-1.871-0.438-3.388-0.438-5.429
		c0-2.672,1.237-4.007,3.02-4.007c3.29,0,4.897,4.625,7.039,4.625c1.158,0,2.401-1.064,2.401-2.667
		c0-6.761-12.994-5.784-12.994-15.305C167.098,116.864,167.98,113.661,170.387,109.215"/>
	<path fill="#0060A9" d="M187.289,167.046c0,1.243,0.889,2.227,2.137,2.227c1.422,0,2.315-1.248,2.315-2.671
		c0-1.867-1.691-4.45-3.294-4.45c-0.714,0-0.444,1.067-0.63,2.226C187.733,165.264,187.289,166.332,187.289,167.046
		 M182.656,155.209c9.35,1.782,14.427,8.812,14.427,15.396c0,4.537-2.846,8.715-7.832,8.715c-4.543,0-7.821-3.109-7.821-8.097
		c0-3.733,2.919-7.649,2.919-11.478C184.349,158.237,183.904,156.723,182.656,155.209 M170.831,170.341
		c0.889,0.883,1.158,1.776,1.158,2.665c0,1.336-0.624,2.761-0.624,4.273c0,2.129,1.603,4.001,3.914,4.001
		c2.496,0,4.193-1.96,4.193-4.266C179.473,173.63,175.987,170.341,170.831,170.341 M200.288,164.646
		c0.624,0.972,0.894,1.955,0.894,2.844c0,2.491-1.692,4.802-1.692,7.386c0,2.938,2.227,5.333,5.59,5.333
		c3.648,0,6.15-2.93,6.15-6.404C211.229,169.093,206.951,165.09,200.288,164.646 M172.968,159.924
		c4.099,0.536,5.077,1.958,5.077,3.119c0,1.958-1.782,2.575-3.475,2.575c-1.243,0-2.671-0.265-4.184-0.265
		c-1.962,0-3.913,0.444-5.516,2.314c1.153,0.177,2.846,0.98,2.846,2.763c0,5.156-14.325,0.883-14.325,14.144
		c0,7.026,7.297,14.684,18.328,14.684c5.701,0,9.35-1.872,9.35-4.009c0-1.687-3.024-0.534-3.024-1.959
		c0-0.619,1.068-1.78,1.068-2.761c0-0.434-0.354-1.237-1.068-1.237c-1.603,0-4.633,2.572-10.772,2.572
		c-4.808,0-9.52-2.75-9.52-6.488c0-0.802,0.354-1.248,0.884-1.248c0.539,0,1.253,0.356,1.872,0.356c0.539,0,0.624-0.356,0.624-1.335
		c0-0.983,0-3.741,1.687-3.741c1.697,0,4.897,6.231,17.188,6.231c4.077,0,11.999-0.798,14.939-3.474
		c-0.09,9.794-7.747,22.692-23.761,22.692c-16.637,0-25.534-13.349-25.534-25.628c0-13.612,11.118-25.975,26.337-25.975
		c3.914,0,7.214,1.331,7.214,3.021C179.203,158.594,173.412,157.17,172.968,159.924"/>
	<path fill="#0060A9" d="M115.4,58.319c5.873,0,8.541,5.071,8.541,10.766c0,2.488-0.706,6.141-1.864,6.141s-0.978-2.046-1.158-3.917
		c-0.177-2.402-0.621-2.935-1.422-2.935c-1.518,0-2.491,3.558-2.491,6.852c0,2.042,0.357,4.359,1.954,4.359
		c0.891,0,1.692-0.447,2.226-0.98c-0.357,4.091-3.384,7.655-7.652,7.655c-7.832,0-10.767-9.169-11.658-14.506
		c-4.714,4.983-9.069,8.633-16.901,8.633c-7.295,0-10.59-5.34-10.59-10.409c0-1.517,0.534-5.429,2.406-5.429
		c2.221,0,0.265,7.292,4.625,7.292c1.071,0,3.025-0.891,4.09-3.824c0.624-1.781,0.981-3.646,0.981-5.25
		c0-2.403-0.534-3.912-2.308-3.912c-1.518,0-3.385,1.15-4.012,1.776c2.139-6.408,7.301-9.699,12.989-9.699
		c7.033,0,10.77,6.231,10.77,13.171c0,0.977-0.092,2.044-0.27,3.023C106.679,62.146,110.865,58.319,115.4,58.319 M108.549,68.819
		c0-1.515-0.357-1.871-0.714-1.871c-0.891,0-1.864,1.069-3.289,3.475c0.18,3.201,0.714,4.625,1.602,4.625
		C107.124,75.048,108.549,71.932,108.549,68.819 M96.359,72.467c0.979,0,2.224-1.07,4.542-3.648
		c0.175-1.158,0.175-2.228,0.175-3.563c0-1.775-0.711-3.733-1.777-3.733c-2.673,0-4.006,7.118-4.006,8.989
		C95.293,71.573,95.825,72.467,96.359,72.467 M110.865,80.388c2.221,0,4.715-8.546,4.715-13.882c0-1.16-0.18-2.402-0.711-2.402
		c-1.872,0-4.984,8.808-4.984,13.611C109.884,79.585,110.328,80.388,110.865,80.388 M89.069,75.495
		c3.022,0,6.486-16.374,6.486-19.132c0-0.715-0.262-1.248-0.883-1.248c-2.758,0-6.584,15.571-6.584,19.042
		C88.088,74.782,88.265,75.495,89.069,75.495"/>
	<path fill="#0060A9" d="M98.76,82.252c-3.821,0-4,4.633-4,13.969C91.914,90.085,87.199,83.5,81.681,83.5
		c-3.733,0-5.161,2.494-5.161,6.847c0,0.891,0.09,2.229,0.27,3.022c0.444-1.506,1.87-2.131,3.646-2.131
		c3.829,0,8.454,2.935,11.479,6.942c-3.469-0.623-6.854-1.248-9.696-1.248c-1.782,0-3.385,0.178-4.717,0.801
		c-2.583,1.154-6.053,4.983-6.053,10.769c0,0.888,0.09,1.865,0.27,2.932c3.109-6.939,11.388-10.053,16.727-10.053
		c1.071,0,1.867,0.088,2.488,0.179c-2.755,2.488-3.379,6.851-3.557,9.786c-0.087,1.424-0.624,1.515-1.605,1.515
		c0,2.932,2.316,7.298,2.316,9.518c0,0.801-0.444,1.514-0.889,1.692c0,3.916,3.914,6.764,3.914,9.252c0,0.623-0.18,1.16-0.447,1.427
		c0.267,1.601,4.572,4.295,5.129,5.646c0.683,1.641,1.452,1.92,1.899,1.92c1.512,0,3.913-1.785,3.913-3.389
		c0-0.533-0.444-1.156-0.796-1.424c-1.692-1.24-2.583-3.912-3.297-5.689c-0.624,0-1.428-0.262-1.71-1.311
		c-0.487-1.844-0.508-5.276-1.225-7.324c-1.155-0.265-1.692-0.711-1.692-3.111c0-1.158,0.716-5.697,0.716-7.299
		c-0.537,0-1.243-0.356-1.243-1.424c0-2.844,2.845-5.072,3.641-8.717c5.074,3.734,6.317,7.557,6.317,10.944
		c0,1.777-0.265,3.469-0.624,5.072c3.742-1.871,9.347-4.627,9.347-10.234c0-3.293-1.512-6.941-11.568-8.365
		c3.11-1.158,7.031-1.775,10.32-1.775c5.696,0,8.988,1.775,9.699,5.777c1.156-1.775,2.047-3.826,2.047-5.691
		c0-4.362-3.649-7.204-8.274-7.204c-5.428,0-10.235,2.842-15.392,6.317c2.313-4.807,3.911-7.652,6.764-7.652
		c0.442,0,0.886,0.093,1.333,0.179C104.902,86.083,100.899,82.252,98.76,82.252"/>
	<path fill="#0060A9" d="M248.671,146.401c4.453,0,8.018,5.783,8.018,12.547c0,7.204-3.385,15.036-9.419,20.369
		c-0.09-12.004-14.786-8.184-14.786-16.9c0-3.735,2.671-6.229,5.881-6.229c2.845,0,5.071,0.801,6.674,2.405
		c-1.603-1.514-2.401-3.65-2.401-5.694C242.637,149.515,244.773,146.401,248.671,146.401"/>
	<path fill="#0060A9" d="M182.661,55.383c-0.714-1.159-3.374-1.777-4.616-1.777c-3.924,0-6.59,2.757-7.124,5.25
		c-0.354-0.894-0.624-1.959-0.624-3.029c0-3.914,2.671-8.717,9.176-8.717c5.68,0,7.9,3.022,8.705,3.022
		c0.888,0,1.781-0.891,2.496-0.891c0.978,0,0.978,1.514,0.978,2.583c0,3.558-1.602,9.699-5.61,11.924
		c-0.714-1.516-2.137-3.206-4.438-4.273c-0.618-0.264-0.888-0.798-0.888-1.332C180.716,57.161,181.604,55.916,182.661,55.383
		 M169.229,61.878c2.316,2.225,4.358,3.201,6.854,3.201c0.983,0,2.142-0.263,2.766-0.263c0.799,0,1.333,0.352,1.333,0.975
		c0,0.981-0.895,2.583-1.957,3.475c1.063,0.444,2.227,0.625,3.475,0.625c5.05,0,10.841-3.208,10.841-11.212
		c1.068,1.418,1.697,4.359,1.697,5.694c0,9.696-7.128,13.432-13.696,13.432c-4.278,0-6.42-1.424-6.954-1.424
		c-1.688,0-1.598,3.382-2.756,3.296c-2.046-0.358-3.913-4.896-3.913-9.699C166.918,67.128,167.632,64.104,169.229,61.878"/>
	<path fill="#0060A9" d="M93.069,5.29c0-0.533-2.67-1.07-6.317-1.07c-5.783,0-4.981,4.81-9.429,4.81
		c-4.627,0-3.475-4.988-9.347-4.988c-3.557,0-6.849,0.625-6.849,1.428c0,1.065,4.181,0.623,4.181,3.561
		c0,3.113-8.982,4.004-8.982,5.873c0,0.62,0.706,0.887,1.597,0.887c1.959,0,5.071-0.887,7.298-0.887
		c1.246,0,2.404,0.263,2.404,1.421c0,2.227-4.807,6.229-4.807,8.009c0,0.533,0.444,0.715,0.888,0.715
		c1.782,0,4.805-4.542,7.655-4.542c4.715,0,1.603,10.053,4.181,10.053c2.671,0,1.515-9.877,5.336-9.877
		c3.12,0,5.431,6.851,7.568,6.851c0.534,0,0.978-0.444,0.978-1.067c0-1.866-2.67-5.694-2.67-8.185c0-1.514,1.068-2.227,2.494-2.227
		c2.044,0,4.802,1.246,6.312,1.246c0.532,0,1.068-0.176,1.068-0.799c0-2.134-7.914-4.449-7.914-7.205
		C88.712,6.535,93.069,6.535,93.069,5.29 M113.977,14.369c0,1.599,5.608,5.072,8.187,5.072c1.51,0,1.957-2.049,1.957-4.186
		c0-2.667-1.15-2.756-3.469-2.756C117.716,12.498,113.977,13.299,113.977,14.369 M123.234,31.983
		c0-5.34-14.437-15.036-14.596-19.216c-0.016-0.382,0.19-0.765,0.516-1.103c2.472-2.607,12.742-4.507,12.742-6.73
		c0-1.153-2.137-1.153-3.205-1.153c-8.274,0-20.374,3.023-20.374,5.958c0,3.028,10.854,10.414,10.854,14.061
		c0,0.981-0.624,1.335-1.605,1.335c-3.022,0-9.606-3.649-12.718-3.649c-1.425,0-1.959,0.977-1.959,2.403
		c0,4.271,5.072,12.366,5.072,14.763c0,0.267-0.09,0.625-0.447,0.625c-1.602,0-9.157-8.893-11.83-8.893
		c-0.981,0-1.068,1.33-1.068,3.291v3.024c0,2.044-0.09,3.291-1.065,3.291c-2.313,0-3.385-6.494-5.605-6.494
		c-2.314,0-2.761,11.564-4.982,11.564c-2.583,0-0.357-12.723-2.851-12.723c-2.752,0-5.87,8.454-7.829,8.454
		c-0.711,0-0.886-0.713-0.886-1.335c0-2.578,1.507-6.761,1.507-9.25c0-1.248-0.357-1.96-1.42-1.96c-2.76,0-8.813,4.449-11.122,4.449
		c-0.357,0-0.801-0.176-0.801-0.533c0-2.131,9.696-8.895,9.696-11.919c0-2.941-13.348-0.981-13.348-4.365
		c0-2.843,9.524-5.78,9.524-8.715c0-2.583-11.301-3.738-15.659-3.738c-5.251,0-8.096,0.618-8.096,2.131
		c0,2.317,11.92,3.03,11.92,5.072c0,1.96-12.367,7.21-12.367,10.231c0,2.673,17.438,0.18,17.438,2.94
		c0,3.022-15.212,16.101-15.212,20.459c0,0.981,0.714,1.427,1.69,1.427c4.627,0,16.634-8.808,19.929-8.808
		c1.158,0,1.248,1.42,1.248,2.668c0,2.315-0.801,5.87-0.801,8.454c0,2.044,0.532,3.468,2.309,3.468c3.294,0,6.319-5.604,8.546-5.604
		c2.842,0,1.155,16.459,5.426,16.459c3.646,0,5.162-17.794,7.473-17.794c2.316,0,4.186,5.161,6.317,5.161
		c2.671,0,1.425-8.985,4.276-8.985c3.109,0,12.007,10.677,16.01,10.677c1.243,0,1.687-0.981,1.687-2.229
		c0-4.714-6.579-15.388-6.579-18.767c0-0.89,0.262-1.158,1.243-1.158c3.472,0,13.615,4.803,18.419,4.803
		C122.253,34.03,123.234,33.141,123.234,31.983 M41.997,26.822c0,1.782-6.761,7.741-9.159,7.741c-0.889,0-1.158-1.067-1.158-2.044
		c0-1.775,0.801-4.273,1.779-5.074c1.153-1.067,3.824-1.597,5.87-1.597C40.572,25.847,41.997,26.113,41.997,26.822 M107.391,35.986
		c0,3.112,11.121,18.33,13.26,18.33c1.782,0,3.112-3.115,3.112-5.787c0-0.708-0.18-1.419-0.529-1.956
		c-1.603-2.225-12.904-11.123-15.4-11.123C107.567,35.451,107.391,35.719,107.391,35.986"/>
	<path fill="#0060A9" d="M250.273,9.031c0,1.24,0.979,2.221,2.227,2.221s2.227-0.981,2.227-2.221c0-1.248-0.979-2.228-2.227-2.228
		S250.273,7.783,250.273,9.031 M235.778,28.692c0-6.317-15.114-7.921-15.114-9.342c0-1.156,8.44-3.116,12.798-3.206
		c-6.669-8.54-16.178-7.648-16.178-9.16c0-0.894,7.118-2.675,13.692-2.675c5.516,0,10.677,1.248,10.677,5.429
		c0,2.315-1.866,4.719-1.866,8.278c0,1.957,0.973,3.646,3.564,3.646c2.76,0,3.379-2.935,3.379-6.054
		c0-2.576-0.444-4.536-0.444-5.782c0-3.736,2.564-6.224,6.214-6.224c3.03,0,3.739,1.33,8.191,1.33c-2.4,1.426-3.294,4.01-3.294,5.25
		c0,3.741,2.406,6.319,2.406,13.973c0,14.054-13.163,19.036-29.277,19.036c-4.426,0-9.148-0.357-13.781-1.064
		c-0.714-0.09-0.889-0.268-0.889-0.712c0-1.158,6.325-1.781,6.325-7.473c0-2.227-0.714-4.359-0.714-5.162
		c0-0.444,0.354-0.711,0.714-0.711c1.333,0,4.003,5.16,8.975,5.16C232.479,33.23,235.778,32.783,235.778,28.692 M250.808,19.708
		c0,7.917-5.765,13.965-16.193,15.655c1.164,0.09,2.232,0.09,3.301,0.09c12.179,0,16.637-5.516,16.637-10.141
		C254.552,22.729,253.124,20.42,250.808,19.708"/>
	<path fill="#0060A9" d="M244.684,134.39c1.423-4.445,3.21-7.563,6.124-12.366c-2.914-1.511-10.667-4.716-10.667-9.967
		c0-6.14,7.658-10.944,9.244-10.944c0.714,0,0.889,0.624,0.889,1.782c0,3.201-1.513,8.361-1.513,11.12
		c0,2.491,1.603,4.896,3.03,4.896c1.513,0,5.696-5.337,5.696-10.59c0-9.434-8.282-12.278-10.847-12.278
		c-2.401,0-6.764,3.915-17.002,3.915c-19.123,0-23.491-18.948-23.491-27.226c0-0.354,0.09-0.443,0.18-0.443
		c0.444,0,2.316,2.313,8.371,2.313c3.115,0,5.966-0.801,10.509-0.801c10.655,0,15.378,7.389,21.973,16.814
		c3.982,2.488,13.518,6.497,13.518,17.795c0,9.963-10.599,15.481-13.163,26.159c4.077-0.444,6.479-7.742,10.661-7.742
		c2.143,0,3.12,1.692,3.12,4.363c0,3.912-2.226,9.787-6.499,13.435c0.085-0.357,0.085-0.804,0.085-1.338
		c0-2.488-0.974-6.043-3.829-6.043c-4.432,0-5.859,4.801-8.351,8.803c-2.581-9.071-6.05-17.262-12.279-22.243
		c-6.299-5.072-17.172-2.315-17.172-11.567c0-2.494,1.603-6.053,1.603-8.898c0-0.977-0.175-1.868-0.714-2.583
		c8.552,3.209,5.521,8.898,10.783,14.771c3.273,3.742,12.349,7.299,17.604,22.69c0.085-0.444,0.175-1.597,0.175-2.398
		c0-13.17-17.425-26.074-18.943-31.414c10.128,1.158,11.91,3.653,16.723,16.996C241.474,124.161,244.684,131.014,244.684,134.39
		 M242.367,91.238c0-1.868-4.723-2.044-5.166-7.294c-0.085-0.801-0.354-2.22-1.339-2.22c-1.602,0-0.354,4.89-2.131,4.89
		c-4.093,0-5.431-8.006-6.938-8.006c-0.359,0-0.788,0.264-0.788,1.334c0,0.977,0.186,1.604,0.186,2.754
		c0,1.158-0.275,1.96-1.338,1.96c-2.406,0-4.543-5.605-6.595-5.605c-0.444,0-0.889,0.268-0.889,0.712
		c0,1.067,1.782,3.022,1.782,4.002c0,2.139-5.791,0.98-5.791,2.762c0,0.798,0.799,1.064,1.872,1.064c1.872,0,4.808-0.796,6.32-0.796
		c0.894,0,2.226,0.176,2.226,1.329c0,1.246-3.204,2.847-3.204,4.005c0,0.534,0.539,0.796,0.979,0.796
		c2.406,0,6.663-4.175,9.688-4.175c0.534,0,1.867,0.266,1.867,1.067c0,1.154-3.024,3.198-3.024,4.891
		c0,0.444,0.27,0.979,0.804,0.979c1.592,0,3.728-4.18,6.758-4.18c1.164,0,2.856,0.444,3.744,0.444
		C242.104,91.951,242.367,91.507,242.367,91.238"/>
	<path fill="#0060A9" d="M176.083,37.939c1.428,0,1.692,3.477,1.962,5.519c0.18,1.07,0.359,1.158,0.804,1.158
		c1.068,0,2.755-4.093,3.897-4.093c1.692,0,6.235,4.716,13.803,4.716c10.762,0,20.91-7.565,20.91-20.905
		c0-12.902-9.085-20.465-21.624-20.465c-5.966,0-10.328,2.935-12.645,2.935c-1.401,0.09-3.543-3.468-4.611-3.468
		c-0.444,0-0.889,0.884-0.889,2.401c0,0.979,0,4.089-1.068,4.089c-2.147,0-10.413-6.133-10.413-3.914
		c0,2.051,5.511,8.278,5.511,9.877c0,1.601-5.426,3.118-5.426,4.183c0,1.956,5.785,2.313,5.785,4.807
		c0,2.485-6.055,4.445-6.055,6.317c0,1.507,6.055,0.444,6.055,2.313c0,1.865-4.447,8.092-4.447,9.87
		c0,0.447,0.085,0.447,0.438,0.447C169.763,43.726,174.835,37.939,176.083,37.939 M178.669,23.353c0-0.977-3.479-2.845-3.479-3.912
		c0-0.179,0.18-0.269,0.449-0.269c0.983,0,2.671,0.358,4.009,0.358c1.158,0,1.338-4.983,2.21-4.983c0.619,0,1.688,4.714,2.671,4.714
		c1.158,0,3.289-1.335,4.183-1.335c0.181,0,0.354,0.087,0.354,0.268c0,0.623-2.227,3.021-2.227,3.734
		c0,0.801,4.993,1.782,4.993,2.493c0,0.891-5.077,0.803-5.077,1.604c0,0.617,1.866,3.111,1.866,3.912
		c0,0.178-0.09,0.268-0.264,0.268c-0.709,0-3.475-1.248-4.273-1.248c-0.983,0-2.564,3.646-3.368,3.646
		c-0.265,0-0.444-0.354-0.444-0.801l-0.175-3.558c0-0.354-0.18-0.713-0.624-0.713c-1.068,0-3.12-0.088-3.744-0.088
		c-0.449,0-0.624-0.087-0.624-0.266C175.104,26.467,178.669,23.977,178.669,23.353 M196.015,40.257
		c-6.229,0-10.328-3.111-10.328-4.717c0-0.801,0.534-1.332,1.248-1.332c1.957,0,6.229,3.021,7.652,3.021
		c0.359,0,0.629-0.173,0.629-0.708c0-1.604-1.518-4.271-1.518-5.603c0-0.357,0.27-0.622,0.804-0.622c2.406,0,5.966,0.98,7.838,0.98
		c0.618,0,0.798-0.358,0.798-0.715c0-1.957-5.785-5.78-5.785-6.94c0-1.067,7.192-2.672,7.192-4.359c0-1.782-9.778-0.534-9.778-2.226
		c0-1.246,1.872-3.379,1.872-4.359c0-0.447-0.359-0.623-0.979-0.623c-0.804,0-5.076,1.692-6.858,1.692
		c-0.889,0-1.963-0.179-1.963-1.427c0-2.048,3.475-4.27,8.906-4.27c8.8,0,14.057,6.051,14.057,16.194
		C209.802,37.056,200.822,40.257,196.015,40.257"/>
	<path fill="#0060A9" d="M135.778,194.181c0,0.804-0.27,1.698-0.981,2.586c-0.976-1.782-3.736-2.676-4.984-2.67
		c-9.162,0-5.693,13.255-15.481,13.255c-4.091,0-4.448-0.531-5.96-0.531c-0.624,0-0.979,0.267-0.979,0.799
		c0,2.315,3.292,8.006,12.454,8.006c9.167,0,17.978-5.601,17.978-12.549c0-1.153-0.267-2.394-0.801-3.639
		c0.354-0.534,1.248-0.894,2.049-0.894c1.417,0,2.218,1.607,3.554,1.607c1.428,0,2.494-1.068,2.494-2.493
		c0-1.158-0.622-1.96-1.69-2.499c0.714-0.528,1.243-1.423,1.243-2.401c0-1.512-1.066-2.93-2.848-2.93
		c-0.801,0-1.335,0.268-1.954,0.878c-0.177-1.592-1.068-3.106-2.76-3.106c-1.333,0-2.314,0.98-2.314,2.496
		C134.797,191.51,135.778,192.668,135.778,194.181"/>
	<path fill="#0060A9" d="M111.843,197.565c-2.673,0-6.674-2.851-6.674-4.453c0-1.338,1.248-2.049,2.224-2.049
		c2.224,0,6.227,2.763,6.227,5.077C113.62,196.762,113.173,197.565,111.843,197.565 M87.02,177.639
		c7.118,1.771,10.677,5.598,11.386,10.141c0.711,4.354,1.603,7.917,3.292,9.696c2.227,2.496,6.587,4.712,10.413,4.712
		c3.202,0,5.78-1.058,5.78-3.998c0-3.205-4.358-10.41-10.767-10.41c-0.619,0-1.42,0.093-2.309,0.093
		c-0.801,0-1.962-0.183-2.673-0.804c-1.422-1.248-1.864-7.923-4.537-11.923c-2.933-4.45-6.137-5.698-10.495-5.698
		c-3.112,0-6.586,1.692-6.586,4.183C80.523,175.146,81.327,176.211,87.02,177.639"/>
	<path fill="#0060A9" d="M131.686,166.776c0-4-8.279-4.089-8.279-10.141c0-1.516,0.979-4.094,2.938-6.854
		c0.806,4.625,2.668,7.029,6.676,8.542c7.917,2.935,8.985,7.381,8.985,12.104c0,8.01-5.606,17.973-20.017,17.973
		c-11.571,0-19.848-10.32-19.848-19.043c0-2.404,0.622-5.068,2.137-5.068c1.338,0,1.782,1.064,2.845,2.132
		c4.008,4.006,8.366,5.071,14.683,5.071C127.502,171.493,131.686,169.18,131.686,166.776 M132.04,173.186
		c-3.051,1.396-4.268,1.153-4.268,4.273c0,1.158-0.27,2.663-0.27,3.464c0,1.068,0.177,1.692,1.423,1.692
		c3.205,0,8.276-5.424,8.276-10.054c0-1.248-0.714-1.776-1.515-1.776C134.972,170.785,134.179,172.205,132.04,173.186
		 M103.654,128.253c0-5.697,13.527-8.718,13.527-15.75c0-1.156-0.447-3.201-1.248-4.713c4.717,2.577,8.187,6.942,8.187,10.498
		c0,6.14-6.404,8.986-6.404,12.815c0,4.449,6.851,5.16,6.851,10.676c0,4.532-6.499,9.786-6.499,15.659
		c0,4.535,3.207,8.268,8.099,8.895c-1.6,0.357-3.025,0.621-4.535,0.621c-8.993,0-18.245-7.379-18.245-16.194
		c0-4.359,1.875-8.177,4.717-10.939c2.491,2.136,4.981,3.558,6.584,3.558c1.425,0,2.046-0.708,2.046-1.775
		C116.735,138.304,103.654,135.285,103.654,128.253"/>
	<path fill="#0060A9" d="M52.047,172.205c0.373,3.041,3.208,5.344,6.412,4.986c1.15-0.126,2.224-0.443,2.938-0.891
		c0.708,2.845,3.099,4.675,6.327,4.255c3.276-0.426,5.505-3.007,5.151-6.302c-0.095-0.886-0.27-1.428-0.534-2.049
		c0,0,0.434-0.045,0.761-0.105c3.21-0.606,5.375-3.187,5.109-6.302c-0.354-3.203-3.229-5.581-6.222-5.211
		c-1.158,0.143-2.231,0.584-2.943,1.207c-0.804-2.664-3.313-4.982-6.74-4.416c-3.091,0.512-5.14,3.138-4.828,6.462
		c0.05,0.542,0.177,1.16,0.444,1.778c0,0-0.526,0.079-0.886,0.132C54.44,166.137,51.625,168.749,52.047,172.205 M68.674,168.707
		c0.217,1.858-1.108,3.532-2.966,3.752c-1.856,0.217-3.541-1.116-3.755-2.97c-0.214-1.861,1.113-3.543,2.972-3.76
		S68.462,166.843,68.674,168.707"/>
	<path fill="#0060A9" d="M122.007,318.606c2.515,0,6.835-0.82,10.236-6.265c-1.943-4.32-3.332-13.049-3.527-16.228
		c-1-16.256,5.262-31.545,12.119-31.968c5.026-0.302,9.045,4.453,9.508,12.16c1.235,20.258-5.508,28.714-8.884,36.004
		c0.571,2.826,5.365,7.645,9.889,7.645c1.674,0,3.698-0.836,4.2-1.518c-0.333-1.167-0.677-2.677-0.677-4.866
		c0-11.737,7.547-21.635,14.088-21.635c5.199,0,8.219,6.881,8.219,11.413c0,5.359-4.532,9.73-11.232,13.921
		c1.174,1.167,3.347,2.016,5.198,2.016c9.566,0,14.569-11.576,18.276-22.146c0.666-2.015,1.846-4.86,4.188-4.86
		c4.03,0,5.712,26.492,12.401,26.492c2.855,0,5.204-5.872,5.204-10.392c0-3.355-1.175-3.693-1.175-8.554
		c0-5.359,2.851-9.884,6.717-9.884c2.348,0,3.188,2.337,3.188,5.183c0,10.729-7.721,30.688-19.112,30.688
		c-8.562,0-7.896-14.758-10.909-14.758c-3.369,0-8.065,14.927-24.649,14.927c-2.697,0-5.537-1.338-7.88-4.029
		c-4.021,2.691-7.387,3.86-11.245,3.86c-6.195,0-8.879-6.373-11.394-6.373c-3.022,0-6.367,6.542-16.437,6.542
		c-8.052,0-9.395-10.725-12.237-10.725c-2.517,0-6.373,10.725-10.563,10.725c-7.052,0-8.549-18.609-14.763-18.609
		c-4.863,0-20.226,18.9-24.398,18.47c-1.676-0.178-2.382-1.431-2.203-3.102c0.235-2.322,2.232-8.53,3.041-11.469
		c1.356-5.101,2.602-10.69,3.297-12.475c0.69-1.796,2.554-3.078,4.045-2.94c0.753,0.071,0.981,1.473,1.214,2.631
		c0.843,4.148,2.031,8.38,3.363,8.38c2.353,0,10.135-14.933,14.657-14.933c5.542,0,6.208,23.486,13.747,23.486
		c2.522,0,4.371-3.015,6.045-6.714c0.169-6.214,1.843-15.085,6.875-15.085c3.525,0,5.204,7.877,2.679,14.757
		C113.118,316.594,118.48,318.606,122.007,318.606 M256.149,298.484c-2.079,8.625-8.377,21.301-17.78,21.301
		c-2.179,0-6.034-0.841-6.034-3.024c0-2.349,14.766-2.674,14.766-13.917c0-4.183-3.855-10.061-9.562-10.061
		c-7.547,0-14.902,8.224-14.902,19.625c0,10.223,6.346,13.575,12.719,13.575c11.073,0,17.779-9.062,21.296-16.603
		c1.688,5.031,2.676,16.603,6.88,16.603c1.677,0,2.856-0.838,4.871-5.362c5.014-11.24,9.884-24.146,16.601-24.146
		c2.506,0,1.005,4.532,7.038,4.532c2.846,0,4.85-2.346,4.85-5.043c0-3.857-3.517-6.867-8.879-6.867
		c-15.76,0-19.107,23.645-21.624,23.645c-4.194,0-2.856-18.951-5.876-18.951C257.825,293.79,256.509,296.99,256.149,298.484
		 M144.914,280.831c-0.291-4.686-1.422-6.801-3.945-6.632c-3.337,0.204-4.884,10.709-4.199,21.752
		c0.434,7.205,1.507,8.313,2.507,8.247C141.125,304.087,145.557,291.215,144.914,280.831 M117.645,270.984
		c-0.238-2.687-2.343-4.527-5.198-4.527c-3.181,0-6.177,3.343-5.86,7.542c0.204,2.763,1.835,5.039,5.038,5.039
		C115.302,279.038,117.983,274.845,117.645,270.984 M169.8,305.187c0-2.842-1.512-5.19-3.348-5.19c-1.522,0-5.029,1.666-5.029,7.036
		c0,4.207,1.492,6.201,2.174,7.055C168.451,312.577,169.8,308.542,169.8,305.187 M235.355,299.505c3.527,0,4.537,4.167,3.696,6.692
		c-0.847,2.512-3.855,5.37-8.552,6.211C229.49,309.886,228.982,299.505,235.355,299.505 M42.28,287.595
		c-0.481-1.522-1.877-4.949-2.255-7.482c-0.841-5.601,2.086-9.289,4.778-10.136c3.017-0.843,4.196,0.669,5.36,4.199
		c1.515,5.359,1.679,12.398,1.174,22.46c-0.661,13.752-7.539,30.355-24.641,30.012c-14.76-0.323-21.291-9.887-21.971-24.473
		c-0.32-6.877,0.167-13.744,3.017-23.472c1.512-5.201,2.861-7.058,7.544-8.058c3.688-0.669,3.358,3.182,2.52,7.724
		c-1.838,10.062-2.689,14.916-2.01,26.318c0.658,12.073,6.203,16.771,12.237,16.771c9.059,0.172,13.076-7.372,14.76-18.281
		C44.128,294.468,43.123,290.271,42.28,287.595"/>
</g>
</svg>
