<svg id="Layer_1" data-name="Layer 1" xmlns="http://www.w3.org/2000/svg" viewBox="0 0 1086.15 453.54"><defs><style>.cls-1{fill:#007cb0;}</style></defs><title>Valvira_en_Vaaka_RGB</title><path d="M805.35,322H808V310.64c0-3.69,1.62-8.08,6.26-8.08,4.31,0,5,3.15,5,6.8V322h2.61V309.32c0-5.22-1.53-9-7.21-9a7.17,7.17,0,0,0-6.59,4.06H808V290.88h-2.61ZM799,300.82h-4.8v-6l-2.61.91v5.09h-4.15v2.24h4.15v12.35c0,3.85.16,7,4.8,7a9.46,9.46,0,0,0,3.19-.58l-.16-2.16a6.08,6.08,0,0,1-2.41.5c-2.11,0-2.81-1.57-2.81-3.48V303.06H799ZM779,322h2.61V290.88H779Zm-10.48-9.36c0,2.28-.12,7.62-6.25,7.62-2.41,0-4.39-1-4.39-3.81,0-4.64,5.38-5.1,9.9-5.1h.74Zm.25,9.36h2.57a29.58,29.58,0,0,1-.21-4.43V308.2c0-5.51-2.19-7.87-7.41-7.87a16.61,16.61,0,0,0-6.22,1.45v2.52a11.26,11.26,0,0,1,6.22-1.74c3.52,0,4.8,1.83,4.8,5.43v1.08h-.49c-5.47,0-13,.33-13,7.41,0,1.91,1,6,7,6a7.43,7.43,0,0,0,6.71-3.9h.08ZM735.59,309.9c0-3.48,2.36-7.34,6.21-7.34s5.39,3.65,5.39,7.34Zm12.88,8.74a13.68,13.68,0,0,1-5.92,1.57c-4.56,0-7-3.6-7-8.08H750v-1.32c0-5.68-2.44-10.48-8.41-10.48-5.34,0-8.9,4.59-8.9,11.06s2.61,11.06,9.61,11.06a17.41,17.41,0,0,0,6.13-1.16ZM705.38,322h2.86V308.32h14.63V322h2.86V293h-2.86v12.81H708.24V293h-2.86Zm-34.55-10.56c0-4.1,1.29-8.83,6.26-8.83,4.64,0,6.25,5,6.25,8.83s-1.61,8.82-6.25,8.82c-5,0-6.26-4.72-6.26-8.82M686,290.88h-2.61v13.51h-.08a7.1,7.1,0,0,0-6.59-4.06c-6.21,0-8.7,4.64-8.7,11.06,0,6.25,2.9,11.06,8.7,11.06a6.77,6.77,0,0,0,6.59-3.85h.08V322H686ZM644.52,322h2.61V310.27c0-3.52,1.5-7.71,6.26-7.71,3.6,0,5,2.57,5,6.55V322H661v-13.5c0-4.64-2-8.12-7.21-8.12-4.39,0-6,2.36-6.83,4.26h-.08v-3.77h-2.53c.16,1.7.16,3.36.16,5ZM634,312.59c0,2.28-.12,7.62-6.25,7.62-2.41,0-4.4-1-4.4-3.81,0-4.64,5.39-5.1,9.91-5.1H634Zm.25,9.36h2.57a29.58,29.58,0,0,1-.21-4.43V308.2c0-5.51-2.19-7.87-7.41-7.87a16.61,16.61,0,0,0-6.22,1.45v2.52a11.26,11.26,0,0,1,6.22-1.74c3.52,0,4.8,1.83,4.8,5.43v1.08h-.49c-5.47,0-13,.33-13,7.41,0,1.91,1,6,7,6a7.43,7.43,0,0,0,6.71-3.9h.08ZM590,309.9c0-3.48,2.36-7.34,6.22-7.34s5.38,3.65,5.38,7.34Zm12.89,8.74a13.73,13.73,0,0,1-5.93,1.57c-4.56,0-7-3.6-7-8.08h14.46v-1.32c0-5.68-2.44-10.48-8.41-10.48-5.34,0-8.91,4.59-8.91,11.06s2.61,11.06,9.61,11.06a17.51,17.51,0,0,0,6.14-1.16ZM574,322h2.61V311.51c0-3.81,1.12-8.45,5.26-8.45a6.74,6.74,0,0,1,1.91.25v-2.74a8,8,0,0,0-1.83-.24c-2.69,0-4.47,2.19-5.42,4.55h-.09v-4.06H573.8a37.2,37.2,0,0,1,.17,4.73Zm-10.48-9.36c0,2.28-.13,7.62-6.26,7.62-2.4,0-4.39-1-4.39-3.81,0-4.64,5.39-5.1,9.9-5.1h.75Zm.25,9.36h2.57a29.58,29.58,0,0,1-.21-4.43V308.2c0-5.51-2.2-7.87-7.42-7.87a16.56,16.56,0,0,0-6.21,1.45v2.52a11.25,11.25,0,0,1,6.21-1.74c3.52,0,4.81,1.83,4.81,5.43v1.08H563c-5.47,0-13,.33-13,7.41,0,1.91,1,6,7,6a7.43,7.43,0,0,0,6.71-3.9h.09Zm-25.81,0h2.61V303.06h4.76v-2.24h-4.76V299c0-2.53-.38-6.38,3.19-6.38a4.64,4.64,0,0,1,2.07.46l.16-2.28a6,6,0,0,0-2.44-.42c-5.43,0-5.59,4.48-5.59,8.91v1.53h-4.27v2.24h4.27Zm-12.64,0h2.61V290.88h-2.61ZM504.2,309.9c0-3.48,2.37-7.34,6.22-7.34s5.38,3.65,5.38,7.34Zm12.89,8.74a13.69,13.69,0,0,1-5.93,1.57c-4.55,0-7-3.6-7-8.08h14.46v-1.32c0-5.68-2.44-10.48-8.41-10.48-5.34,0-8.9,4.59-8.9,11.06S504,322.45,511,322.45a17.45,17.45,0,0,0,6.13-1.16ZM498.36,293h-2.73l-7.25,25.69h-.08L481,293h-3.43l-7.42,25.69h-.08L462.94,293H460L468.28,322h3.44l7.46-25.68h.08L486.6,322H490Zm-62,28.92H439V311.51c0-3.81,1.12-8.45,5.27-8.45a6.67,6.67,0,0,1,1.9.25v-2.74a8,8,0,0,0-1.82-.24c-2.69,0-4.48,2.19-5.43,4.55h-.08v-4.06h-2.61a39.51,39.51,0,0,1,.16,4.73ZM412.9,311.39c0-4.89,2.44-8.83,7-8.83s7,3.94,7,8.83-2.45,8.82-7,8.82-7-3.93-7-8.82m-2.86,0c0,5.76,3,11.06,9.86,11.06s9.86-5.3,9.86-11.06-3-11.06-9.86-11.06-9.86,5.3-9.86,11.06M398,322h2.61V303.06h4.77v-2.24h-4.77V299c0-2.53-.37-6.38,3.19-6.38a4.61,4.61,0,0,1,2.07.46l.17-2.28a6.05,6.05,0,0,0-2.45-.42c-5.42,0-5.59,4.48-5.59,8.91v1.53h-4.27v2.24H398Z"/><path d="M958,252.85h-2.86l7.5,21.38-.54,1.86c-.82,2.74-1.57,4.6-3.81,4.6a5.18,5.18,0,0,1-1.94-.33l-.25,2.24a12.28,12.28,0,0,0,2.81.33c3,0,4.44-2.9,5.43-5.8l8.45-24.28H970l-6.09,17.61h0Zm-6.29,0h-4.81v-6l-2.61.91v5.09h-4.14v2.24h4.14v12.35c0,3.85.17,7,4.81,7a9.56,9.56,0,0,0,3.19-.58l-.17-2.16a6.06,6.06,0,0,1-2.4.5c-2.12,0-2.82-1.57-2.82-3.48V255.09h4.81Zm-17.36-9.11h-2.61v3.48h2.61ZM931.71,274h2.61V252.85h-2.61Zm-15.46,0h2.62V263.54c0-3.81,1.11-8.45,5.26-8.45a6.67,6.67,0,0,1,1.9.25V252.6a8,8,0,0,0-1.82-.24c-2.69,0-4.47,2.19-5.43,4.55h-.08v-4.06h-2.61a39.51,39.51,0,0,1,.16,4.73Zm-23.44-10.56c0-4.89,2.44-8.83,7-8.83s7,3.94,7,8.83-2.45,8.82-7,8.82-7-3.93-7-8.82m-2.86,0c0,5.76,3,11.06,9.86,11.06s9.86-5.3,9.86-11.06-3-11.06-9.86-11.06-9.86,5.3-9.86,11.06M866.87,274h2.61V262.67c0-3.69,1.62-8.08,6.26-8.08,4.31,0,5,3.15,5,6.8V274h2.61V261.35c0-5.22-1.53-9-7.21-9a7.17,7.17,0,0,0-6.59,4.06h-.08V242.91h-2.61Zm-6.34-21.13h-4.8v-6l-2.61.91v5.09H849v2.24h4.15v12.35c0,3.85.16,7,4.8,7a9.46,9.46,0,0,0,3.19-.58l-.16-2.16a6.08,6.08,0,0,1-2.41.5c-2.11,0-2.81-1.57-2.81-3.48V255.09h4.8Zm-17.31,0h-2.61v11.69c0,3.52-1.5,7.7-6.26,7.7-3.6,0-5-2.57-5-6.54V252.85h-2.61v13.51c0,4.64,2,8.12,7.21,8.12,4.39,0,6-2.36,6.83-4.27h.08V274h2.53c-.16-1.7-.16-3.35-.16-5Zm-29,10.9H801.66L808,247.8ZM794.7,274h2.78l3.11-7.75h14.58l3.11,7.75h3l-11.48-28.92h-3.23Zm-28.46-21.13h-2.86l7.5,21.38-.54,1.86c-.83,2.74-1.57,4.6-3.81,4.6a5.29,5.29,0,0,1-1.95-.33l-.24,2.24a12.28,12.28,0,0,0,2.81.33c2.94,0,4.44-2.9,5.43-5.8L781,252.85H778.3l-6.09,17.61h0ZM750.83,274h2.61V263.54c0-3.81,1.12-8.45,5.26-8.45a6.74,6.74,0,0,1,1.91.25V252.6a8,8,0,0,0-1.83-.24c-2.69,0-4.47,2.19-5.42,4.55h-.09v-4.06h-2.61a37.2,37.2,0,0,1,.17,4.73Zm-23.45-10.56c0-4.89,2.45-8.83,7-8.83s7,3.94,7,8.83-2.44,8.82-7,8.82-7-3.93-7-8.82m-2.86,0c0,5.76,3,11.06,9.86,11.06s9.86-5.3,9.86-11.06-3-11.06-9.86-11.06-9.86,5.3-9.86,11.06m-18,10.06a15.88,15.88,0,0,0,5.93,1c3.19,0,7.37-1.53,7.37-6,0-6.92-10.4-6.42-10.4-10.36,0-2.69,1.87-3.52,4.56-3.52a12.37,12.37,0,0,1,4.68,1l.25-2.28a16.49,16.49,0,0,0-5.22-.95c-3.48,0-6.88,1.57-6.88,5.75,0,6.14,10.15,5.35,10.15,10.36,0,2.4-2.19,3.77-4.68,3.77a12.51,12.51,0,0,1-5.51-1.32Zm-6.38-29.74h-2.61v3.48h2.61ZM697.51,274h2.61V252.85h-2.61Zm-5.3-21.13h-2.74l-6.13,18.27h-.08l-5.84-18.27h-2.86L681.73,274h3.06ZM662,274h2.61V263.54c0-3.81,1.12-8.45,5.26-8.45a6.62,6.62,0,0,1,1.9.25V252.6a8,8,0,0,0-1.82-.24c-2.69,0-4.47,2.19-5.43,4.55h-.08v-4.06h-2.61a37.2,37.2,0,0,1,.17,4.73Zm-21.09-12.05c0-3.48,2.36-7.34,6.21-7.34s5.39,3.65,5.39,7.34Zm12.88,8.74a13.64,13.64,0,0,1-5.92,1.57c-4.56,0-7-3.6-7-8.08h14.46v-1.32c0-5.68-2.45-10.48-8.41-10.48-5.35,0-8.91,4.59-8.91,11.06s2.61,11.06,9.61,11.06a17.41,17.41,0,0,0,6.13-1.16Zm-24-7.25c0,4.1-1.29,8.82-6.26,8.82-4.64,0-6.26-5-6.26-8.82s1.62-8.83,6.26-8.83c5,0,6.26,4.73,6.26,8.83m-15.13,19.26h2.61v-12.3h.09a6.54,6.54,0,0,0,6.58,4.1c5.81,0,8.71-4.81,8.71-11.06,0-6.42-2.49-11.06-8.71-11.06a7.3,7.3,0,0,0-6.75,4.35h-.08l.16-3.86h-2.61Zm-8-29.83h-2.61v11.69c0,3.52-1.49,7.7-6.26,7.7-3.6,0-5-2.57-5-6.54V252.85h-2.61v13.51c0,4.64,2,8.12,7.21,8.12,4.39,0,6-2.36,6.84-4.27h.08V274h2.53a49.34,49.34,0,0,1-.17-5Zm-39.65,20.39a16.61,16.61,0,0,0,6.55,1.24c4.47,0,9.49-2.32,9.49-8.16,0-8.45-13.26-8.5-13.26-14.3,0-3.72,3.27-5,6.25-5a11.89,11.89,0,0,1,5.27,1.08l.45-2.61a17.13,17.13,0,0,0-5.67-1c-5.1,0-9.16,2.9-9.16,7.54,0,7.58,13.26,8.28,13.26,14,0,4.1-2.94,5.92-6.51,5.92a11.37,11.37,0,0,1-6.38-1.7Zm-21.17.74h2.61V242.91h-2.61Zm-10.48-9.36c0,2.28-.12,7.62-6.25,7.62-2.41,0-4.4-1-4.4-3.81,0-4.64,5.39-5.1,9.91-5.1h.74Zm.25,9.36h2.57a29.58,29.58,0,0,1-.21-4.43v-9.32c0-5.51-2.19-7.87-7.41-7.87a16.61,16.61,0,0,0-6.22,1.45v2.52a11.26,11.26,0,0,1,6.22-1.74c3.52,0,4.8,1.83,4.8,5.43v1.08h-.5c-5.46,0-13,.33-13,7.41,0,1.91.95,6,7,6a7.43,7.43,0,0,0,6.71-3.9h.08Zm-36.83,0h2.61V262.3c0-3.52,1.49-7.71,6.26-7.71,3.6,0,5,2.57,5,6.55V274h2.61v-13.5c0-4.64-2-8.12-7.21-8.12-4.39,0-6,2.36-6.84,4.26h-.08v-3.77h-2.53a49.43,49.43,0,0,1,.17,5Zm-23.45-10.56c0-4.89,2.45-8.83,7-8.83s7,3.94,7,8.83-2.44,8.82-7,8.82-7-3.93-7-8.82m-2.86,0c0,5.76,3,11.06,9.86,11.06s9.86-5.3,9.86-11.06-3-11.06-9.86-11.06-9.86,5.3-9.86,11.06m-6.63-19.68h-2.61v3.48h2.61ZM463.31,274h2.61V252.85h-2.61ZM457,252.85h-4.81v-6l-2.61.91v5.09h-4.14v2.24h4.14v12.35c0,3.85.17,7,4.81,7a9.56,9.56,0,0,0,3.19-.58l-.17-2.16a6.06,6.06,0,0,1-2.4.5c-2.12,0-2.82-1.57-2.82-3.48V255.09H457Zm-19.6,11.77c0,2.28-.12,7.62-6.26,7.62-2.4,0-4.39-1-4.39-3.81,0-4.64,5.39-5.1,9.9-5.1h.75Zm.25,9.36h2.57a29.58,29.58,0,0,1-.21-4.43v-9.32c0-5.51-2.2-7.87-7.42-7.87a16.61,16.61,0,0,0-6.21,1.45v2.52a11.25,11.25,0,0,1,6.21-1.74c3.53,0,4.81,1.83,4.81,5.43v1.08h-.5c-5.47,0-13,.33-13,7.41,0,1.91,1,6,7,6,2.61,0,5.56-1.37,6.72-3.9h.08Zm-41.51,0H399V249h.09L413.52,274h3.85V245.06h-2.86V270.5h-.08l-14.71-25.44h-3.6Z"/><path d="M687.46,188c0,8.16-5.26,14.39-15.25,14.39-4.62,0-10.2-3.12-10.2-8.92,0-9.66,13.53-10.52,19-10.52,2.15,0,4.29.21,6.44.21ZM658,167a25.73,25.73,0,0,1,15.89-5.59c10.09,0,13.53,4.84,13.53,14.29-4-.22-6.76-.22-10.74-.22-10.41,0-25.45,4.3-25.45,18,0,11.92,8.27,17.08,20.08,17.08a20.32,20.32,0,0,0,17-8.38h.22v7.09H698a85.43,85.43,0,0,1-.43-10.74V175.86c0-14.93-6.34-22.66-22-22.66a34.85,34.85,0,0,0-18,5.16ZM615.3,209.26h10.09V184.34c0-13.74,5.91-22.33,14.93-22.33a14.92,14.92,0,0,1,5.58,1v-9a28.47,28.47,0,0,0-6.66-.75c-5.79,0-11.59,4.08-14.28,9.77h-.21v-8.48H615.3Zm-15.68-78.39H588.23v11.38h11.39Zm-10.74,78.39H599V154.49H588.88ZM580,154.49h-10.1l-15.14,44.67h-.22l-14.82-44.67H528.63l19.66,54.77h12Zm-70.34,54.77h10.09V128.72H509.63ZM483.85,188c0,8.16-5.26,14.39-15.25,14.39-4.61,0-10.2-3.12-10.2-8.92,0-9.66,13.53-10.52,19-10.52,2.15,0,4.29.21,6.44.21ZM454.43,167a25.73,25.73,0,0,1,15.89-5.59c10.1,0,13.53,4.84,13.53,14.29-4-.22-6.76-.22-10.74-.22-10.41,0-25.45,4.3-25.45,18,0,11.92,8.27,17.08,20.08,17.08a20.32,20.32,0,0,0,17-8.38h.22v7.09h9.45a85.43,85.43,0,0,1-.43-10.74V175.86c0-14.93-6.34-22.66-22-22.66a34.85,34.85,0,0,0-18,5.16Zm-4.94-32.65H438.21l-23.73,65.51h-.22L391.18,134.3h-12l28.24,75h13.43Z"/><path class="cls-1" d="M229.77,113.4c-33.17-.75-28.54,25.81-27.83,28.32,4.5,15.84,26.16,31.06,44.66,43.69,25.75,17.59,52.87,38.67,49.12,67.47-1.38,10.58-8.05,22.25-11.7,26.13.16-1.8,1.93-15.8-7.66-27.74-12.4-15.46-32.68-29.78-49.94-42C219,204,212,199,206.39,194.53c-20-14.51-40.13-32.54-37-56.36a37.29,37.29,0,0,1,3.21-11,113.28,113.28,0,0,0-59.18,96.63c-1.64,62.62,47.54,114.94,110.4,116.34,24.1.54,25.74-21,22.95-29.64-5.14-15.91-25.94-29.64-44.44-42.28-25.74-17.59-52.91-38.91-49.11-67.48,1.67-12.58,8.64-22.39,11.69-26.13-.13,1.12-2.06,15.75,7.66,27.74,12.46,15.39,32.68,29.78,49.95,42,7.4,5.25,14.4,10.22,20,14.73,20.05,14.49,40.12,32.53,37,56.35a37.34,37.34,0,0,1-4.83,14.11,113.4,113.4,0,0,0,65.46-99.83c1.64-62.61-47.68-114.93-110.4-116.34"/></svg>